<?xml version="1.0" encoding="UTF-8"?>
<!DOCTYPE svg PUBLIC "-//W3C//DTD SVG 1.1//EN" "http://www.w3.org/Graphics/SVG/1.1/DTD/svg11.dtd">
<!-- Creator: CorelDRAW X8 -->
<svg xmlns="http://www.w3.org/2000/svg" xml:space="preserve" width="1151px" height="580px" version="1.1" style="shape-rendering:geometricPrecision; text-rendering:geometricPrecision; image-rendering:optimizeQuality; fill-rule:evenodd; clip-rule:evenodd"
viewBox="0 0 10575 4911"
 xmlns:xlink="http://www.w3.org/1999/xlink">
 <defs>
  <style type="text/css">
   <![CDATA[
    .fil8 {fill:#F9A631}
    .fil4 {fill:black}
    .fil0 {fill:#E6E6E6}
    .fil1 {fill:white}
    .fil11 {fill:white}
    .fil9 {fill:white}
    .fil5 {fill:#F05B5C;fill-rule:nonzero}
    .fil6 {fill:#C94E51;fill-rule:nonzero}
    .fil10 {fill:black;fill-rule:nonzero}
    .fil7 {fill:black;fill-rule:nonzero}
    .fil2 {fill:white;fill-rule:nonzero}
    .fil3 {fill:white;fill-rule:nonzero}
   ]]>
  </style>
 </defs>
 <g id="Layer_x0020_1">
  <metadata id="CorelCorpID_0Corel-Layer"/>
  <path class="fil0" d="M5287 1c2692,0 4874,2182 4874,4873 0,12 0,24 0,36l-9747 0c0,-12 0,-24 0,-36 0,-2691 2182,-4873 4873,-4873z"/>
  <g id="_2046473266928">
   <rect class="fil1" x="6966" y="2546" width="248.78" height="29.04" rx="2" ry="92"/>
   <path class="fil2" d="M7237 2429c41,-57 100,-92 164,-103 64,-11 132,2 189,43 57,40 93,100 103,164 3,14 4,28 4,42 0,20 -25,19 -25,0 0,-13 -1,-25 -3,-38 -10,-57 -42,-111 -93,-148 -52,-36 -113,-48 -171,-39 -57,10 -111,42 -147,94 -29,39 -42,85 -42,131l-25 0c0,-51 15,-102 46,-146z"/>
   <path class="fil2" d="M7690 2282c27,0 53,7 75,18l-7 25c-20,-11 -43,-18 -68,-18 -40,0 -76,17 -103,43 -6,6 -12,13 -17,20l-22 -12c7,-9 14,-18 22,-26 30,-31 73,-50 120,-50z"/>
   <path class="fil2" d="M7950 2206c-51,0 -97,20 -130,53 -31,31 -50,71 -54,117 -2,16 -28,16 -24,-9 5,-48 27,-92 60,-125 38,-38 90,-61 148,-61 57,0 110,23 147,61 38,38 62,90 62,148 0,39 -11,75 -30,106 -9,19 -33,11 -24,-8 18,-28 29,-62 29,-98 0,-51 -21,-97 -54,-131 -34,-33 -80,-53 -130,-53z"/>
   <path class="fil2" d="M8244 2404c43,0 81,17 110,45 28,28 45,67 45,110 0,15 -24,16 -25,0 0,-36 -14,-69 -38,-92 -24,-24 -56,-38 -92,-38 -36,0 -69,14 -92,38 -8,8 -15,17 -21,26l-22 -12c7,-12 15,-22 25,-32 28,-28 67,-45 110,-45z"/>
   <rect class="fil1" x="8249" y="2655" width="370.49" height="29.04" rx="3" ry="92"/>
   <rect class="fil1" x="7985" y="2653" width="218.354" height="29.04" rx="2" ry="92"/>
   <rect class="fil1" x="7388" y="2713" width="48.9509" height="29.04" rx="0" ry="92"/>
   <rect class="fil1" x="7142" y="2713" width="179.593" height="29.04" rx="2" ry="92"/>
   <rect class="fil1" x="6754" y="2613" width="368.757" height="29.04" rx="3" ry="92"/>
   <path class="fil3" d="M7255 1959c-111,33 -99,137 -97,152 2,15 -20,20 -25,5 -21,-62 -43,-92 -65,-105 -22,-12 -46,-10 -69,-6 -18,2 -22,-22 -4,-24 28,-5 56,-8 85,9 19,11 38,30 55,65 8,-43 34,-97 113,-120 16,-6 25,18 7,24z"/>
   <path class="fil3" d="M7674 1790c-73,-3 -87,63 -89,72 -2,9 -16,8 -16,-2 0,-42 -7,-64 -18,-77 -10,-12 -25,-15 -40,-17 -11,-3 -8,-18 3,-16 17,3 35,7 49,23 9,10 16,26 20,50 13,-24 40,-51 92,-48 11,-1 11,16 -1,15z"/>
   <path class="fil3" d="M7219 1619c-59,11 -59,65 -59,73 0,8 -12,9 -13,1 -7,-33 -17,-50 -28,-58 -10,-7 -23,-7 -35,-6 -9,-1 -10,-13 -1,-13 15,-1 30,-1 44,9 9,7 17,18 24,37 7,-22 23,-48 65,-56 9,-2 12,11 3,13z"/>
  </g>
  <rect class="fil4" y="4874" width="6248.97" height="35.63" rx="57" ry="113"/>
  <rect class="fil4" x="6414" y="4874" width="761.43" height="35.63" rx="7" ry="113"/>
  <rect class="fil4" x="7538" y="4874" width="301.33" height="35.63" rx="3" ry="113"/>
  <rect class="fil4" x="7964" y="4874" width="2610.48" height="35.63" rx="24" ry="113"/>
  <rect class="fil4" x="7323" y="4874" width="71.4376" height="35.63" rx="1" ry="113"/>
  <rect class="fil4" transform="matrix(1.08343E-15 0.0409082 -1.68304 4.45746E-14 9005.78 4599.79)" width="7366.01" height="21.17" rx="67" ry="67"/>
  <rect class="fil4" transform="matrix(1.08343E-15 0.0262232 -1.68304 2.85734E-14 8917.83 4706.22)" width="7366.01" height="21.17" rx="67" ry="67"/>
  <rect class="fil4" transform="matrix(1.08343E-15 0.018641 -1.68304 2.03117E-14 1026.04 4753.29)" width="7366.01" height="21.17" rx="67" ry="67"/>
  <rect class="fil4" transform="matrix(1.08343E-15 0.018641 -1.68304 2.03117E-14 5876.49 4757.98)" width="7366.01" height="21.17" rx="67" ry="67"/>
  <rect class="fil4" transform="matrix(1.08343E-15 0.0528617 -1.68304 5.75995E-14 951.273 4509.16)" width="7366.01" height="21.17" rx="67" ry="67"/>
  <rect class="fil4" transform="matrix(1.08343E-15 0.0131116 -1.68304 1.42867E-14 8917.83 4509.11)" width="7366.01" height="21.17" rx="67" ry="67"/>
  <path class="fil5" d="M3283 2078l-414 0c-23,0 -45,10 -61,26l-292 292c-17,16 -26,39 -26,62l0 413c0,23 9,45 26,61l292 293c16,16 38,25 61,25l414 0c23,0 45,-9 61,-25l292 -293c17,-16 26,-38 26,-61l0 -413c0,-23 -9,-46 -26,-62l-292 -292c-16,-16 -38,-26 -61,-26z"/>
  <path class="fil6" d="M2707 2946c0,-393 244,-729 588,-866 -4,-1 -8,-2 -12,-2l-414 0c-23,0 -45,10 -61,26l-292 292c-17,16 -26,39 -26,62l0 413c0,23 9,45 26,61l213 213c-14,-64 -22,-130 -22,-199z"/>
  <path class="fil7" d="M3642 2871c0,18 -7,34 -20,47l-292 292c-13,13 -30,20 -47,20l-414 0c-18,0 -34,-7 -47,-20l-292 -292c-13,-13 -20,-29 -20,-47l0 -413c0,-18 7,-35 20,-47l292 -293c13,-12 29,-19 47,-19l414 0c17,0 34,7 47,19l292 293c13,12 20,29 20,47l0 413zm40 0l0 -414c0,-28 -11,-55 -31,-75l-293 -293c-20,-20 -46,-31 -75,-31l-414 0c-29,0 -55,11 -76,31l-292 293c-20,20 -31,47 -31,76l0 413c0,29 11,56 31,76l292 292c21,20 48,31 76,31l414 0c28,0 55,-11 75,-31l293 -292c20,-20 31,-47 31,-76z"/>
  <path class="fil7" d="M3054 2514l-173 0c-12,0 -21,9 -21,20 0,11 9,20 21,20l173 0c12,0 21,-9 21,-20 0,-11 -9,-20 -21,-20z"/>
  <path class="fil7" d="M2967 2601c-11,0 -20,9 -20,20l0 173c0,12 9,21 20,21 12,0 21,-9 21,-21l0 -173c0,-11 -9,-20 -21,-20z"/>
  <path class="fil7" d="M3273 2708c0,36 -30,66 -67,66 -36,0 -66,-30 -66,-66l0 -87c0,-37 30,-67 66,-67 37,0 67,30 67,67l0 87zm-67 -194c-59,0 -107,48 -107,107l0 87c0,59 48,107 107,107 59,0 107,-48 107,-107l0 -87c0,-59 -48,-107 -107,-107z"/>
  <path class="fil7" d="M3456 2514l-76 0c-11,0 -21,9 -21,20 0,11 10,20 21,20l76 0c30,0 55,25 55,56 0,31 -25,56 -55,56l-56 0 0 -45c0,-11 -9,-20 -20,-20 -11,0 -21,9 -21,20l0 173c0,12 10,21 21,21 11,0 20,-9 20,-21l0 -88 56 0c53,0 96,-43 96,-96 0,-53 -43,-96 -96,-96z"/>
  <path class="fil7" d="M2740 2514c-9,0 -18,1 -27,3 -11,2 -18,13 -15,24 2,11 13,18 24,15 6,-1 12,-2 18,-2 30,0 55,17 55,37 0,11 9,20 21,20 11,0 20,-9 20,-20 0,-43 -43,-77 -96,-77z"/>
  <path class="fil7" d="M2746 2645c-48,-17 -62,-29 -62,-54 0,-11 -9,-20 -20,-20 -12,0 -21,9 -21,20 0,56 45,76 90,92 48,18 62,30 62,54 0,20 -25,37 -55,37 -30,0 -56,-17 -56,-37 0,-11 -9,-20 -20,-20 -12,0 -21,9 -21,20 0,43 44,78 97,78 53,0 96,-35 96,-78 0,-55 -44,-76 -90,-92z"/>
  <rect class="fil4" transform="matrix(1.41263E-15 0.168453 -2.19443 1.8355E-13 3099.18 3311.76)" width="7366.01" height="21.17" rx="67" ry="67"/>
  <rect class="fil4" transform="matrix(1.41263E-15 0.036993 -2.19443 4.03086E-14 3099.18 4635)" width="7366.01" height="21.17" rx="67" ry="67"/>
  <g id="_2046473258512">
   <path class="fil8" d="M3980 4821l-238 -569c-12,-26 -30,-40 -52,-42l-86 0c-21,3 -38,16 -50,41l-238 570 664 0z"/>
   <polygon class="fil9" points="3937,4719 3360,4717 3402,4616 3894,4616 "/>
   <rect class="fil4" x="3246" y="4822" width="803.023" height="76.0904" rx="7" ry="241"/>
   <rect class="fil4" transform="matrix(0.00298688 0.00728153 -1.26364 0.518344 3880.17 4544.88)" width="7366.01" height="21.17" rx="67" ry="67"/>
   <polygon class="fil9" points="3845,4498 3452,4497 3494,4396 3802,4396 "/>
   <path class="fil10" d="M3961 4809l-63 -150c-5,-17 17,-24 24,-9l77 184 -702 0 167 -400c8,-17 31,-7 24,9l-153 366 626 0zm-130 -311l-101 -241c-5,-11 -11,-19 -18,-25 -7,-5 -14,-8 -23,-9l-85 0c-7,1 -14,4 -20,9 -7,5 -13,13 -18,24l-48 114c-7,20 -31,10 -23,-9l48 -115c7,-14 15,-25 25,-33 10,-9 21,-14 34,-15 15,-2 73,-2 89,0 14,1 26,6 36,15 11,8 19,19 26,33l0 1 102 243c6,13 -17,24 -24,8z"/>
  </g>
  <g id="_2046473256432">
   <rect class="fil11" transform="matrix(1.08343E-15 0.01907 -1.68304 2.07792E-14 1939.11 4721.03)" width="7366.01" height="21.17" rx="67" ry="67"/>
   <path class="fil3" d="M1946 3679l160 964c5,19 10,56 -19,63 -107,0 -215,0 -323,0 -26,-2 -23,-41 -18,-63 10,-84 23,-174 37,-266 35,-235 80,-488 123,-698 2,-10 4,-17 7,-21 4,-4 8,-6 13,-6 5,0 9,2 12,6 4,4 6,11 8,21l0 0zm136 967l-156 -938 -156 938c-2,16 -6,34 12,35l294 0c11,0 6,-28 6,-35z"/>
   <rect class="fil11" transform="matrix(6.87412E-16 0.0828128 -1.06785 9.0235E-14 1932.61 4014.52)" width="7366.01" height="21.17" rx="67" ry="67"/>
   <rect class="fil11" transform="matrix(0.00728027 0.0169244 -0.980941 0.421966 1881.52 4237.15)" width="7366.01" height="21.17" rx="67" ry="67"/>
   <rect class="fil11" transform="matrix(-0.00728027 0.0169244 0.980941 0.421966 1960.72 4297.34)" width="7366.01" height="21.17" rx="67" ry="67"/>
   <rect class="fil11" transform="matrix(-0.00376681 0.00552735 0.882422 0.601357 1937.16 4058.87)" width="7366.01" height="21.17" rx="67" ry="67"/>
  </g>
 </g>
</svg>
