<?xml version="1.0" encoding="UTF-8"?>
<!DOCTYPE svg PUBLIC "-//W3C//DTD SVG 1.1//EN" "http://www.w3.org/Graphics/SVG/1.1/DTD/svg11.dtd">
<!-- Creator: CorelDRAW X7 -->
<svg xmlns="http://www.w3.org/2000/svg" xml:space="preserve" width="35mm" height="23mm" version="1.1" style="shape-rendering:geometricPrecision; text-rendering:geometricPrecision; image-rendering:optimizeQuality; fill-rule:evenodd; clip-rule:evenodd"
viewBox="0 0 3500 2300"
 xmlns:xlink="http://www.w3.org/1999/xlink">
 <defs>
  <style type="text/css">
   <![CDATA[
    .fil1 {fill:#1D508D}
    .fil0 {fill:#1D508D;fill-rule:nonzero}
   ]]>
  </style>
 </defs>
 <g id="Layer_x0020_1">
  <metadata id="CorelCorpID_0Corel-Layer"/>
  <path class="fil0" d="M1750 58c-527,-109 -1059,160 -1334,519 -77,104 -138,205 -187,301 -293,581 -97,1039 174,1185 383,206 932,-37 895,-695 -29,-342 -183,-522 15,-883 86,-159 256,-310 437,-427zm-466 1733c-266,814 -1502,534 -1206,-679 48,-166 132,-333 248,-484 351,-457 946,-690 1513,-575 -197,51 -422,272 -520,446 -260,466 174,746 -35,1292z"/>
  <path class="fil0" d="M1750 58c-527,-109 -1059,160 -1334,519 -77,104 -138,205 -187,301 -293,581 -97,1039 174,1185 383,206 932,-37 895,-695 -29,-342 -183,-522 15,-883 86,-159 256,-310 437,-427zm-466 1733c-266,814 -1502,534 -1206,-679 48,-166 132,-333 248,-484 351,-457 946,-690 1513,-575 -197,51 -422,272 -520,446 -260,466 174,746 -35,1292z"/>
  <path class="fil0" d="M728 1333c47,1 89,21 119,52 30,31 48,74 48,121 -1,47 -21,89 -52,119 -31,30 -74,48 -121,47 -47,0 -89,-20 -119,-51 -30,-31 -48,-74 -48,-121 1,-47 21,-89 52,-119 31,-30 74,-48 121,-48zm85 84c-22,-22 -52,-36 -86,-37 -34,-1 -65,13 -87,35 -23,21 -37,52 -38,86 0,34 13,65 35,87 21,23 52,37 86,38 34,0 65,-13 87,-35 23,-22 37,-52 38,-86 0,-34 -13,-65 -35,-88z"/>
  <circle class="fil1" transform="matrix(0.0777057 0.00130318 -0.00130318 0.0777057 724.988 1502.89)" r="1050"/>
  <path class="fil1" d="M682 1321l-44 -191c-15,-71 40,-102 95,-101 55,1 109,34 92,104l-51 190c-15,-4 -30,-7 -46,-7 -16,0 -31,1 -46,5z"/>
  <path class="fil1" d="M905 1552l190 51c70,17 103,-37 104,-92 1,-55 -30,-111 -101,-95l-191 44c3,15 5,30 5,46 0,16 -3,31 -7,46z"/>
  <path class="fil1" d="M858 1372l139 -139c50,-52 19,-107 -28,-136 -48,-28 -111,-28 -133,40l-57 187c31,9 58,26 79,48z"/>
  <path class="fil1" d="M906 1456l189 -51c70,-19 71,-83 45,-131 -28,-48 -82,-80 -135,-32l-144 133c22,23 37,51 45,81z"/>
  <path class="fil1" d="M543 1546l-191 44c-71,15 -102,-40 -101,-95 1,-55 34,-109 104,-92l190 51c-4,14 -7,30 -7,46 0,16 2,31 5,46z"/>
  <path class="fil1" d="M596 1368l-133 -144c-49,-53 -16,-108 32,-135 48,-26 112,-25 131,45l51 188c-31,8 -59,24 -81,46z"/>
  <path class="fil1" d="M546 1450l-188 -57c-68,-22 -67,-85 -40,-133 29,-47 85,-77 136,-27l139 138c-22,22 -39,49 -47,79z"/>
  <path class="fil1" d="M676 1683l-51 190c-17,70 37,103 92,104 55,1 110,-30 95,-101l-44 -191c-15,3 -30,5 -46,5 -16,0 -32,-3 -46,-7z"/>
  <path class="fil1" d="M854 1638l133 144c49,53 16,107 -32,135 -48,26 -112,25 -131,-45l-51 -188c31,-9 59,-24 81,-46z"/>
  <path class="fil1" d="M904 1555l188 58c68,22 67,85 40,133 -29,47 -85,77 -136,27l-139 -138c22,-22 38,-49 47,-80z"/>
  <path class="fil1" d="M592 1634l-139 139c-50,52 -19,107 28,136 48,27 111,28 133,-40l57 -187c-31,-9 -58,-26 -79,-48z"/>
  <path class="fil1" d="M544 1549l-189 51c-70,20 -71,83 -45,132 28,48 82,80 135,32l144 -133c-22,-23 -37,-51 -45,-82z"/>
  <path class="fil0" d="M187 1113c95,-248 292,-476 535,-642 239,-164 523,-268 797,-271l0 0c-271,3 -552,119 -790,281 -240,165 -448,387 -542,632l0 0z"/>
  <path class="fil0" d="M200 1296c113,-262 318,-365 533,-463 216,-97 431,-195 538,-457l0 0c-109,267 -314,371 -532,469 -214,97 -428,193 -539,451l0 0z"/>
  <path class="fil0" d="M166 1226c194,-504 575,-752 1067,-849l0 0c-440,88 -883,372 -1067,849l0 0z"/>
  <path class="fil0" d="M168 1336c232,-536 589,-473 903,-720l0 0c-350,232 -681,207 -903,720l0 0z"/>
  <path class="fil0" d="M135 1338c126,-289 262,-456 469,-589 165,-106 458,-180 547,-276l0 0c-106,106 -363,183 -553,302 -209,132 -355,312 -463,563l0 0z"/>
  <path class="fil0" d="M1930 1306c28,-33 55,-67 83,-100 27,-33 55,-66 83,-99 40,-47 77,-88 112,-123 35,-35 68,-65 98,-90 81,-67 150,-101 205,-101 5,0 9,1 14,1 5,1 10,1 15,3 7,1 10,1 10,-2 0,-1 -3,-4 -10,-7 -12,-4 -26,-6 -40,-6 -76,0 -175,61 -296,182 -36,37 -78,83 -126,139 -47,55 -99,120 -157,195 -7,9 -12,13 -17,13 -5,0 -8,-5 -10,-14 -1,-8 -1,-15 0,-23 7,-38 38,-125 94,-258 25,-63 45,-115 58,-155 14,-41 21,-71 21,-89 1,-22 -7,-41 -24,-57 -16,-15 -35,-21 -57,-20 -62,8 -125,44 -189,108 -66,65 -102,129 -110,192 -1,10 3,22 10,35 4,7 8,12 12,15 3,4 6,6 9,7 5,4 10,7 16,7 8,-2 12,-5 12,-10 0,-3 -3,-5 -8,-6 -5,-1 -8,-1 -12,-2 -3,0 -5,-1 -7,-2 -11,-6 -16,-21 -15,-42 5,-50 37,-106 96,-169 63,-67 128,-105 195,-114 2,-1 5,-1 8,-1 2,0 5,0 7,0 23,0 35,12 35,35l0 11c-1,3 -1,5 -1,6 0,1 0,2 0,3 -1,36 -30,118 -86,246 -28,66 -50,120 -65,164 -15,43 -23,76 -25,98 0,5 1,10 3,15 1,5 3,10 6,15 3,4 7,8 11,11 4,3 9,4 14,4 10,0 19,-5 28,-15zm1019 51c51,0 109,-29 176,-88 33,-30 57,-58 74,-85 17,-27 27,-53 31,-79 0,-4 0,-9 -1,-15 -2,-6 -5,-14 -11,-22 -11,-17 -23,-26 -35,-26 -3,0 -5,1 -7,1 -10,4 -18,9 -24,13 -5,5 -9,9 -10,12 0,1 1,1 3,1 3,-1 5,-1 7,-1 2,0 5,-2 9,-5 5,-3 10,-5 15,-5 26,-5 39,10 39,46 -4,20 -12,42 -25,65 -14,23 -34,48 -59,74 -24,26 -49,47 -72,63 -24,15 -48,27 -72,34 -16,6 -31,8 -45,8 -17,0 -32,-5 -44,-16l-7 -8c-7,-9 -13,-21 -18,-34 -6,-14 -9,-29 -9,-47 0,-4 0,-6 -1,-5 0,0 0,-2 1,-7 6,-34 18,-74 36,-122 18,-47 40,-98 67,-153 17,-34 34,-67 50,-98 17,-32 36,-62 56,-91 3,-5 8,-8 15,-9 69,-5 126,-8 171,-9 7,-2 11,-3 11,-4 -1,-1 -4,-2 -7,-2 -3,0 -11,0 -23,0 -13,-1 -30,-1 -52,-1l-85 0c-9,0 -10,-4 -3,-13 82,-112 142,-171 178,-179 2,0 4,-1 5,-3 1,-2 1,-4 1,-5 0,-1 0,-2 -1,-1 -1,1 -3,1 -5,1 -10,0 -23,3 -40,9 -19,6 -30,11 -33,15 -26,30 -50,60 -72,88 -22,29 -42,56 -61,83 -2,4 -4,5 -6,5 -96,0 -159,1 -197,1 -61,2 -62,4 -34,10 8,1 18,2 30,2 69,4 190,4 190,7 0,2 -2,5 -4,9 -3,4 -6,9 -9,13 -3,5 -6,9 -9,13 -3,4 -5,7 -6,8 -21,28 -41,58 -60,92 -20,34 -40,72 -59,116 -22,50 -39,94 -49,132 -7,25 -12,47 -14,68 -7,5 -15,11 -25,18 -13,10 -28,21 -44,31 -16,10 -32,19 -47,27 -15,8 -28,13 -38,15 -5,1 -10,2 -16,2 -6,0 -10,-1 -14,-5 -4,-3 -5,-8 -5,-15 0,-7 3,-17 10,-31 6,-13 10,-22 12,-26 2,-4 3,-7 4,-9 0,-1 1,-3 2,-5 1,-2 3,-7 7,-15 5,-9 12,-22 21,-41 10,-18 24,-44 42,-78 5,-10 6,-17 4,-23 -2,-6 -5,-10 -10,-11 -5,-2 -10,-2 -15,1 -6,2 -9,7 -10,13 0,2 -3,8 -7,17 -4,9 -10,20 -16,34 -6,13 -13,27 -21,43 -7,15 -14,31 -20,46 -7,15 -12,29 -16,43 -4,13 -7,24 -7,33 0,9 3,17 8,24 5,7 11,12 17,16 7,4 14,6 20,8 7,1 12,1 15,0 12,-6 26,-13 42,-23 15,-9 31,-20 47,-30 16,-11 30,-22 43,-32 6,-4 11,-8 15,-12 0,5 0,10 0,15 0,16 3,32 10,47 6,16 15,29 26,40l8 9c9,7 18,12 28,14 9,3 21,4 34,4zm254 -25c47,-6 102,-37 164,-90 32,-27 55,-52 71,-76 16,-23 24,-44 26,-64 0,-2 0,-3 -1,-4 0,-2 -1,-4 -2,-5 -1,-2 -1,-3 0,-5 5,-6 16,-10 32,-10 8,0 12,-1 12,-4 0,-1 -4,-2 -12,-4 -22,0 -42,-1 -59,-1 -17,-1 -32,-1 -44,-2 -1,0 -2,-1 -3,-1 -1,-1 -2,-1 -3,-2 -15,-10 -27,-15 -36,-14 -11,0 -23,6 -35,17 -3,2 -6,3 -8,3 -1,0 -11,1 -31,1 -12,1 -19,2 -20,5 -2,3 -3,5 -3,6 0,4 3,7 7,10 5,4 10,7 15,10 3,1 3,3 1,7 -70,86 -105,151 -106,195 0,4 1,8 3,12 3,3 6,7 9,9 3,3 7,5 12,6 4,2 8,2 11,1zm-11 -42c31,-73 75,-136 132,-188 8,-6 12,-8 13,-8 10,-3 20,-6 31,-7 11,-2 23,-1 36,0 24,3 34,12 30,28 -8,39 -38,82 -91,129 -51,46 -94,72 -130,78 -17,3 -25,-1 -25,-14 0,-6 1,-12 4,-18zm-807 -75c3,-2 6,-5 7,-8 2,-4 3,-6 2,-7 0,-2 -1,-3 -3,-2 -2,0 -6,3 -11,8 -7,7 -18,15 -31,25 -14,10 -29,21 -45,31 -16,10 -31,19 -47,27 -15,8 -27,13 -37,15 -6,1 -11,2 -17,2 -5,0 -10,-1 -14,-5 -3,-3 -5,-8 -5,-15 0,-7 4,-17 10,-31 6,-13 11,-22 12,-26 2,-4 3,-7 4,-9 1,-1 1,-3 2,-5 1,-2 3,-7 8,-15 4,-9 11,-22 21,-41 9,-18 23,-44 41,-78 5,-10 7,-17 4,-23 -2,-6 -5,-10 -10,-11 -5,-2 -10,-2 -15,1 -5,2 -9,7 -10,13 0,2 -3,8 -7,17 -4,9 -9,20 -16,34 -6,13 -13,27 -20,43 -8,15 -15,31 -21,46 -6,15 -12,29 -16,43 -4,13 -6,24 -6,33 0,9 2,17 7,24 5,7 11,12 18,16 6,4 13,6 20,8 6,1 11,1 14,0 12,-6 26,-13 42,-23 16,-9 31,-20 47,-30 16,-11 30,-22 43,-32 13,-10 23,-18 29,-25zm-50 -246c2,-4 0,-9 -5,-14 -5,-4 -11,-6 -16,-5 -8,2 -18,9 -30,22 -12,12 -18,22 -18,29 0,7 6,12 17,14 8,1 18,-3 30,-15 13,-11 20,-22 22,-31zm89 266c-7,-4 -16,-14 -27,-30 -11,-16 -16,-30 -18,-41 -4,-26 20,-56 70,-90 40,-28 75,-46 105,-54 3,0 6,-1 9,-1 2,0 6,0 9,0 6,0 13,1 21,2 9,2 19,5 31,9 4,1 10,-1 18,-6 8,-6 14,-11 18,-16 2,-3 2,-6 0,-11 -3,-3 -5,-5 -9,-5 -29,0 -61,5 -95,16 -34,11 -70,28 -108,51 -76,44 -112,84 -108,120 1,7 3,14 6,21 3,7 7,14 13,22l26 34c-63,44 -99,71 -108,82 -4,6 -2,10 5,10 2,1 6,1 11,0 4,-1 10,-2 17,-3 5,2 11,3 17,3 19,0 43,-7 73,-20 35,-15 52,-30 52,-45 0,-4 -1,-9 -4,-15 -3,-6 -8,-13 -15,-22 43,-25 83,-45 122,-60 39,-16 78,-28 115,-35l-1 -1c-40,7 -80,17 -120,30 -41,12 -82,31 -125,55zm-106 95c2,-4 7,-9 13,-14 7,-6 15,-12 26,-19 17,-13 30,-22 39,-27 12,11 18,21 18,29 0,3 -1,6 -3,9 -3,4 -8,8 -15,11 -7,3 -16,7 -27,11 -22,8 -39,11 -48,9 -7,-1 -8,-4 -3,-9zm489 -361c1,-4 0,-9 -5,-14 -5,-4 -11,-6 -17,-5 -7,2 -17,9 -29,22 -12,12 -18,22 -18,29 0,7 5,12 17,14 8,1 18,-3 30,-15 13,-11 20,-22 22,-31z"/>
  <path class="fil0" d="M1816 2007l-114 0 0 -556 114 0 0 556zm282 -229l-38 0 0 229 -114 0 0 -555c11,-1 23,-1 37,-2 13,-1 26,-1 40,-2 14,-1 29,-1 43,-1 14,-1 28,-1 41,-1 67,0 118,12 153,37 35,25 52,63 52,115 0,23 -3,43 -9,61 -6,17 -14,32 -24,45 -9,13 -21,24 -33,32 -13,9 -26,16 -40,23 17,28 33,55 48,80 15,25 29,47 44,66 15,19 30,34 46,45 16,11 32,17 50,17l4 0 0 35c-9,3 -20,6 -31,8 -12,1 -25,2 -39,2 -14,0 -27,0 -38,-2 -12,-1 -22,-4 -32,-8 -10,-4 -20,-10 -29,-18 -10,-8 -20,-19 -30,-32 -10,-13 -21,-29 -32,-48 -12,-19 -25,-41 -39,-68l-30 -58zm-19 -55c16,0 31,-2 46,-6 15,-3 26,-8 34,-14 5,-3 9,-6 13,-10 5,-5 9,-11 12,-18 3,-7 6,-17 8,-28 2,-11 3,-25 3,-42 0,-19 -2,-35 -7,-48 -4,-13 -11,-23 -20,-31 -9,-8 -19,-14 -32,-17 -13,-3 -29,-5 -46,-5 -4,0 -9,0 -15,1 -5,0 -11,0 -15,1l0 217 19 0zm708 284l-65 -188 -209 3 -68 185 -71 0 220 -552 110 -19 205 571 -122 0zm-83 -241l-83 -240 -89 240 172 0zm728 243l-392 -389 -2 0c1,32 2,62 2,90 1,11 1,23 1,35 0,12 1,22 1,32 0,10 0,19 0,26 1,8 1,13 1,17l0 187 -67 0 0 -560 50 0 393 388 0 0c-1,-30 -1,-58 -2,-84 0,-11 0,-22 0,-34 0,-11 0,-22 -1,-32 0,-10 0,-20 0,-29 0,-8 0,-15 0,-21l0 -184 67 0 0 558 -51 0z"/>
  <path class="fil0" d="M1004 1903c-73,63 -188,124 -329,113 -533,-44 -657,-723 -200,-1004 160,-98 388,-150 567,-220 57,-22 115,-68 153,-124 35,-53 68,-141 107,-223 34,-73 72,-145 119,-208l-49 76c-158,286 -126,417 -375,508 -251,91 -563,174 -699,413 -49,87 -72,183 -70,275 9,374 437,643 776,394z"/>
  <path class="fil1" d="M1044 259c-984,379 -1283,1685 -486,1920 278,83 526,-2 682,-233 21,-31 40,-65 58,-102 122,-255 55,-491 -16,-740 -64,-227 3,-447 156,-637l0 0c-27,33 -49,68 -71,104 -98,161 -132,341 -79,531 71,251 138,488 15,745l0 0c-17,37 -37,71 -58,103 -157,233 -408,319 -689,236 -623,-185 -579,-1016 -71,-1559 165,-176 332,-281 559,-368l0 0z"/>
 </g>
</svg>
