<?xml version="1.0" encoding="UTF-8"?>
<!DOCTYPE svg PUBLIC "-//W3C//DTD SVG 1.1//EN" "http://www.w3.org/Graphics/SVG/1.1/DTD/svg11.dtd">
<!-- Creator: CorelDRAW X8 -->
<svg xmlns="http://www.w3.org/2000/svg" xml:space="preserve" width="42.3332mm" height="33.8666mm" version="1.1" style="shape-rendering:geometricPrecision; text-rendering:geometricPrecision; image-rendering:optimizeQuality; fill-rule:evenodd; clip-rule:evenodd"
viewBox="0 0 4233 3387"
 xmlns:xlink="http://www.w3.org/1999/xlink">
 <defs>
  <style type="text/css">
   <![CDATA[
    .fil1 {fill:#ABABAB}
    .fil0 {fill:#DBDBDB}
    .fil2 {fill:#ABABAB;fill-rule:nonzero}
    .fil3 {fill:url(#id0)}
   ]]>
  </style>
  <linearGradient id="id0" gradientUnits="userSpaceOnUse" x1="280.93" y1="3526.92" x2="1371.03" y2="-373.04">
   <stop offset="0" style="stop-opacity:1; stop-color:#E8E8E8"/>
   <stop offset="1" style="stop-opacity:1; stop-color:#DBDBDB"/>
  </linearGradient>
 </defs>
 <g id="Layer_x0020_1">
  <metadata id="CorelCorpID_0Corel-Layer"/>
  <rect class="fil0" width="4233" height="3387"/>
  <g id="_2423012689504">
   <g>
    <path class="fil1" d="M2420 871c-53,1 -114,9 -170,25 -35,9 -66,22 -97,35 -422,183 -545,751 -193,855 125,37 237,-1 307,-105 10,-14 18,-30 26,-46 55,-115 25,-221 -7,-334 -33,-116 12,-230 103,-323 23,-23 50,-43 78,-64l0 0c-141,101 -220,237 -178,387 32,113 62,219 7,335l0 0c-8,17 -17,32 -27,47 -70,104 -183,143 -310,106 -422,-125 -164,-908 461,-918l0 0z"/>
    <path class="fil2" d="M2497 831c-237,-49 -477,72 -601,233 -34,47 -62,92 -84,136 -132,261 -44,468 78,534 173,92 420,-17 403,-313 -13,-155 -82,-235 7,-398 39,-72 115,-140 197,-192zm-210 780c-120,367 -676,240 -543,-306 21,-74 59,-150 112,-218 158,-206 425,-310 681,-259 -89,23 -190,123 -234,201 -117,210 78,336 -16,582z"/>
    <path class="fil2" d="M2497 831c-237,-49 -477,72 -601,233 -34,47 -62,92 -84,136 -132,261 -44,468 78,534 173,92 420,-17 403,-313 -13,-155 -82,-235 7,-398 39,-72 115,-140 197,-192zm-210 780c-120,367 -676,240 -543,-306 21,-74 59,-150 112,-218 158,-206 425,-310 681,-259 -89,23 -190,123 -234,201 -117,210 78,336 -16,582z"/>
    <path class="fil2" d="M2037 1405c21,0 40,9 53,23 14,14 22,33 22,55 -1,21 -10,40 -24,53 -14,14 -33,22 -54,22 -21,-1 -40,-10 -54,-24 -13,-14 -21,-33 -21,-54 0,-21 9,-40 23,-54 14,-13 33,-21 55,-21zm38 38c-10,-10 -24,-17 -39,-17 -15,0 -29,6 -39,15 -10,10 -17,24 -17,39 0,16 6,30 15,40 10,10 24,16 39,17 16,0 30,-6 40,-16 10,-10 16,-24 17,-39 0,-15 -6,-29 -16,-39z"/>
    <circle class="fil1" transform="matrix(0.0349962 0.000586911 -0.000586911 0.0349962 2035.28 1481.27)" r="1050"/>
    <path class="fil1" d="M2016 1399l-20 -86c-7,-32 18,-45 43,-45 25,0 49,15 41,47l-23 85c-6,-2 -13,-3 -20,-3 -7,0 -14,1 -21,2z"/>
    <path class="fil1" d="M2117 1503l85 23c31,8 46,-16 47,-41 0,-25 -14,-50 -46,-43l-86 20c2,7 3,14 2,21 0,7 -1,14 -2,20z"/>
    <path class="fil1" d="M2095 1422l63 -62c22,-24 8,-49 -13,-61 -21,-13 -50,-13 -60,18l-25 84c13,4 26,11 35,21z"/>
    <path class="fil1" d="M2117 1460l85 -23c31,-8 32,-37 20,-59 -12,-21 -37,-36 -61,-14l-64 60c9,10 16,22 20,36z"/>
    <path class="fil1" d="M1953 1501l-86 20c-32,6 -45,-19 -45,-43 0,-25 15,-50 47,-42l85 23c-2,7 -3,14 -3,21 0,7 1,14 2,21z"/>
    <path class="fil1" d="M1977 1420l-60 -64c-22,-24 -7,-49 15,-61 21,-12 50,-11 59,20l23 85c-14,4 -27,11 -37,20z"/>
    <path class="fil1" d="M1954 1458l-84 -26c-31,-10 -30,-39 -18,-60 13,-21 38,-35 61,-12l63 62c-10,10 -18,22 -22,36z"/>
    <path class="fil1" d="M2013 1563l-23 85c-8,31 17,46 42,47 24,0 49,-14 43,-46l-20 -86c-7,2 -14,3 -21,2 -7,0 -14,-1 -21,-2z"/>
    <path class="fil1" d="M2093 1542l60 65c22,24 7,48 -14,61 -22,11 -50,11 -59,-20l-23 -85c14,-4 26,-11 36,-21z"/>
    <path class="fil1" d="M2116 1505l85 26c30,10 30,38 17,60 -13,21 -38,35 -61,12l-62 -62c10,-10 17,-22 21,-36z"/>
    <path class="fil1" d="M1975 1540l-62 63c-23,23 -9,48 12,61 22,13 50,13 60,-18l26 -84c-14,-4 -26,-12 -36,-22z"/>
    <path class="fil1" d="M1954 1502l-86 23c-31,9 -31,38 -19,59 12,22 36,37 60,15l65 -60c-10,-10 -17,-23 -20,-37z"/>
    <path class="fil2" d="M1793 1306c43,-112 132,-215 241,-290 108,-73 236,-120 359,-121l0 0c-122,1 -249,53 -356,126 -108,75 -202,174 -244,285l0 0z"/>
    <path class="fil2" d="M1799 1388c51,-118 143,-164 240,-208 97,-44 194,-88 242,-206l0 0c-49,120 -141,167 -240,211 -96,43 -192,87 -242,203l0 0z"/>
    <path class="fil2" d="M1784 1357c87,-228 258,-339 480,-383l0 0c-198,40 -398,168 -480,383l0 0z"/>
    <path class="fil2" d="M1784 1406c105,-241 266,-213 407,-324l0 0c-157,104 -307,93 -407,324l0 0z"/>
    <path class="fil2" d="M1770 1407c56,-130 117,-205 211,-265 74,-48 206,-81 246,-125l0 0c-6,8 -14,13 -23,19 -55,39 -152,71 -226,118 -94,59 -160,140 -208,253l0 0z"/>
    <path class="fil1" d="M2019 1398l-17 -79c-6,-29 15,-42 37,-42 21,1 42,14 35,44l-19 78c-6,-1 -12,-2 -18,-3 -6,0 -12,0 -18,2z"/>
    <path class="fil1" d="M2062 1401l26 -78c9,-28 34,-28 53,-18 18,12 30,34 9,56l-57 59c-4,-4 -9,-8 -14,-11 -5,-4 -11,-6 -17,-8z"/>
    <path class="fil1" d="M2099 1426l61 -54c23,-20 45,-7 55,12 10,19 8,44 -21,52l-77 21c-1,-6 -5,-11 -8,-17 -3,-5 -6,-10 -10,-14z"/>
    <path class="fil1" d="M2118 1502l80 18c29,7 42,-14 42,-36 0,-21 -13,-43 -42,-36l-79 18c1,5 1,12 1,18 0,6 -1,12 -2,18z"/>
    <path class="fil1" d="M1953 1498l-80 17c-30,6 -43,-15 -43,-37 1,-21 15,-42 44,-35l79 19c-1,6 -2,12 -2,18 0,6 0,12 2,18z"/>
    <path class="fil1" d="M2097 1539l59 56c22,21 44,9 56,-9 10,-19 10,-44 -19,-53l-78 -25c-1,5 -4,11 -7,16 -3,6 -7,10 -11,15z"/>
    <path class="fil1" d="M2060 1563l22 78c8,28 33,30 52,20 19,-11 31,-33 11,-56l-53 -60c-5,4 -10,7 -16,10 -5,3 -10,7 -16,8z"/>
    <path class="fil1" d="M2016 1564l-20 78c-7,30 15,43 36,44 21,0 43,-13 37,-42l-17 -79c-5,1 -12,1 -18,1 -6,-1 -12,0 -18,-2z"/>
    <path class="fil1" d="M1976 1543l-55 58c-21,22 -9,44 9,56 18,10 44,10 53,-19l25 -76c-6,-2 -11,-6 -17,-9 -5,-3 -10,-6 -15,-10z"/>
    <path class="fil1" d="M1955 1506l-79 22c-29,8 -31,33 -21,52 11,19 32,31 55,12l62 -54c-4,-5 -8,-10 -11,-15 -3,-6 -5,-11 -6,-17z"/>
    <path class="fil1" d="M1955 1454l-78 -24c-28,-10 -29,-35 -18,-53 11,-19 33,-30 55,-10l60 56c-5,5 -8,9 -11,15 -4,5 -6,11 -8,16z"/>
    <path class="fil1" d="M1978 1418l-54 -61c-20,-23 -7,-45 12,-55 19,-10 44,-9 52,20l22 79c-6,1 -11,4 -17,7 -5,2 -10,6 -15,10z"/>
    <circle class="fil1" transform="matrix(0.0316216 0.000530316 -0.000530316 0.0316216 2035.28 1481.27)" r="1050"/>
    <path class="fil2" d="M2036 1411c20,0 37,8 50,21 13,13 20,31 20,50 0,20 -9,37 -22,50 -13,13 -30,20 -50,20 -19,0 -37,-9 -49,-22 -13,-13 -21,-30 -20,-50 0,-19 8,-37 21,-49 13,-13 31,-21 50,-20zm44 27c-11,-11 -27,-18 -44,-18 -17,-1 -32,6 -44,17 -11,11 -18,26 -18,43 -1,17 6,33 17,44 11,12 26,19 43,19 17,0 33,-6 44,-17 12,-11 19,-27 19,-44 0,-17 -6,-32 -17,-44z"/>
    <path class="fil2" d="M2161 1661c-33,29 -85,57 -148,51 -240,-20 -296,-325 -91,-452 73,-44 175,-67 256,-99 26,-10 52,-31 69,-56 16,-23 31,-63 48,-100 15,-33 33,-66 54,-94l-22 34c-71,129 -57,188 -169,229 -113,41 -254,79 -315,186 -22,40 -32,82 -31,124 3,168 196,290 349,177z"/>
   </g>
   <g>
    <path class="fil2" d="M1785 2314c10,-13 20,-25 30,-37 10,-12 20,-24 31,-36 14,-17 28,-32 41,-45 12,-13 24,-24 35,-33 30,-24 55,-37 75,-37 2,0 4,0 5,1 2,0 4,0 6,0 2,1 3,1 3,0 0,0 -1,-1 -3,-3 -5,-1 -10,-2 -15,-2 -28,0 -64,22 -108,67 -13,13 -29,30 -46,50 -17,21 -36,44 -57,72 -3,3 -5,4 -7,4 -1,0 -2,-1 -3,-5 0,-3 0,-5 0,-8 2,-14 14,-46 34,-95 9,-22 16,-41 21,-56 5,-15 8,-26 8,-33 0,-8 -3,-15 -9,-20 -6,-6 -13,-8 -21,-7 -22,2 -45,16 -69,39 -24,23 -37,47 -40,70 0,4 1,8 4,13 1,2 3,4 4,5 1,2 2,2 4,3 1,1 3,2 5,2 3,0 5,-2 5,-3 0,-1 -1,-2 -3,-2 -2,-1 -3,-1 -4,-1 -2,0 -2,0 -3,-1 -4,-2 -6,-7 -6,-15 2,-19 14,-39 35,-62 24,-24 47,-38 72,-42 1,0 2,0 2,0 1,0 2,0 3,0 9,0 13,4 13,13l0 4c0,1 0,1 0,2 0,0 0,1 0,1 -1,13 -11,43 -32,90 -10,24 -18,44 -24,60 -5,15 -8,27 -9,36 0,1 1,3 1,5 1,2 2,4 3,6 1,1 2,3 4,4 1,1 3,1 5,1 3,0 7,-2 10,-5zm166 -34c1,0 2,-2 3,-3 0,-1 1,-2 1,-2 -1,-1 -1,-1 -2,-1 -1,0 -2,1 -4,3 -2,3 -6,6 -11,9 -5,4 -11,8 -16,11 -6,4 -12,7 -18,10 -5,3 -10,5 -13,6 -2,0 -4,0 -6,1 -2,0 -4,-1 -5,-2 -2,-1 -2,-3 -2,-6 0,-2 1,-6 3,-11 3,-5 4,-8 5,-10 1,-1 1,-2 1,-3 0,0 1,-1 1,-2 0,0 1,-2 3,-5 1,-3 4,-8 7,-15 4,-7 9,-16 16,-29 1,-3 2,-6 1,-8 -1,-2 -2,-4 -4,-4 -1,-1 -3,-1 -5,0 -2,1 -3,3 -4,5 0,1 -1,3 -2,6 -2,4 -4,8 -6,13 -2,4 -5,10 -8,15 -2,6 -5,12 -7,17 -3,6 -5,11 -6,16 -2,5 -2,9 -2,12 0,3 1,6 2,9 2,2 4,4 7,6 2,1 5,2 7,2 2,1 4,1 5,0 5,-2 10,-4 16,-8 5,-3 11,-7 17,-11 6,-4 11,-8 16,-11 4,-4 8,-7 10,-10zm-18 -89c0,-2 0,-4 -2,-5 -2,-2 -4,-3 -6,-2 -3,0 -6,3 -11,7 -4,5 -6,9 -6,11 0,3 2,4 6,5 3,1 6,-1 11,-5 5,-4 7,-8 8,-11zm32 96c-2,-1 -6,-4 -10,-10 -3,-6 -6,-11 -6,-15 -1,-10 7,-21 26,-33 14,-11 27,-17 38,-20 1,0 2,0 3,0 1,0 2,0 3,0 2,0 5,0 8,1 3,0 7,1 12,3 1,0 3,-1 6,-3 3,-2 5,-3 7,-5 0,-1 0,-2 0,-4 -1,-1 -2,-2 -4,-2 -10,0 -22,2 -34,6 -13,4 -26,10 -40,18 -28,16 -41,31 -39,44 0,3 1,5 2,8 1,2 3,5 5,8l9 12c-23,16 -36,26 -39,30 -2,3 -1,4 1,4 1,0 3,0 4,0 2,0 4,-1 7,-1 2,0 4,1 6,1 7,0 16,-3 26,-7 13,-6 20,-11 20,-17 0,-1 -1,-3 -2,-5 -1,-2 -3,-5 -5,-8 15,-9 30,-17 44,-22 15,-6 29,-10 42,-13l0 0c-15,2 -29,6 -44,10 -15,5 -30,12 -46,20zm-38 35c0,-1 2,-3 4,-5 3,-2 6,-4 10,-7 6,-4 11,-8 14,-10 4,4 7,8 7,11 0,1 -1,2 -1,3 -1,2 -3,3 -6,4 -2,1 -6,3 -10,4 -8,3 -14,4 -17,4 -3,-1 -3,-2 -1,-4zm197 -42c1,0 2,-2 2,-3 1,-1 1,-2 1,-2 0,-1 -1,-1 -1,-1 -1,0 -2,1 -4,3 -3,3 -7,6 -12,9 -5,4 -10,8 -16,11 -6,4 -12,7 -17,10 -6,3 -10,5 -14,6 -2,0 -4,0 -6,1 -2,0 -4,-1 -5,-2 -1,-1 -2,-3 -2,-6 0,-2 1,-6 4,-11 2,-5 4,-8 4,-10 1,-1 1,-2 2,-3 0,0 0,-1 0,-2 1,0 1,-2 3,-5 2,-3 4,-8 8,-15 3,-7 8,-16 15,-29 2,-3 2,-6 1,-8 0,-2 -2,-4 -3,-4 -2,-1 -4,-1 -6,0 -2,1 -3,3 -3,5 -1,1 -1,3 -3,6 -2,4 -3,8 -6,13 -2,4 -5,10 -7,15 -3,6 -6,12 -8,17 -2,6 -4,11 -6,16 -1,5 -2,9 -2,12 0,3 1,6 3,9 2,2 4,4 6,6 3,1 5,2 7,2 3,1 5,1 6,0 4,-2 9,-4 15,-8 6,-3 11,-7 17,-11 6,-4 11,-8 16,-11 5,-4 8,-7 11,-10zm-19 -89c1,-2 0,-4 -2,-5 -2,-2 -4,-3 -6,-2 -2,0 -6,3 -10,7 -5,5 -7,9 -7,11 0,3 2,4 6,5 3,1 7,-1 11,-5 5,-4 8,-8 8,-11z"/>
    <path class="fil2" d="M1743 2570l-41 0 0 -204 41 0 0 204zm103 -84l-14 0 0 84 -41 0 0 -203c4,0 8,-1 13,-1 5,0 10,0 15,-1 5,0 10,0 16,0 5,0 10,0 14,0 25,0 44,4 56,13 13,9 19,23 19,42 0,9 -1,16 -3,22 -2,7 -5,12 -8,17 -4,5 -8,9 -13,12 -4,3 -9,6 -14,8 6,10 12,20 17,29 6,10 11,18 16,24 6,7 11,13 17,17 6,4 12,6 18,6l2 0 0 13c-4,1 -7,2 -12,3 -4,0 -9,1 -14,1 -5,0 -9,-1 -14,-1 -4,-1 -8,-2 -11,-3 -4,-2 -7,-4 -11,-7 -4,-3 -7,-7 -11,-11 -4,-5 -8,-11 -12,-18 -4,-7 -9,-15 -14,-25l-11 -21zm-7 -20c6,0 12,-1 17,-2 5,-2 10,-3 13,-5 1,-1 3,-3 4,-4 2,-2 3,-4 5,-7 1,-2 2,-6 3,-10 0,-4 1,-9 1,-15 0,-7 -1,-13 -3,-18 -1,-4 -4,-8 -7,-11 -3,-3 -7,-5 -12,-6 -5,-2 -10,-2 -17,-2 -1,0 -3,0 -5,0 -2,0 -4,0 -6,1l0 79 7 0zm259 104l-24 -69 -76 1 -25 68 -26 0 80 -202 40 -7 75 209 -44 0zm-30 -88l-31 -88 -32 88 63 0zm266 88l-144 -142 0 0c0,12 0,23 0,33 1,4 1,9 1,13 0,4 0,8 0,12 0,3 0,7 0,9 0,3 0,5 0,6l0 69 -24 0 0 -205 18 0 144 142 0 0c0,-11 -1,-21 -1,-31 0,-4 0,-8 0,-12 0,-4 0,-8 0,-12 0,-4 0,-7 0,-10 0,-4 0,-6 0,-8l0 -68 24 0 0 204 -18 0z"/>
    <path class="fil2" d="M2250 2323c17,-2 37,-13 60,-33 11,-10 20,-19 26,-27 5,-9 9,-17 9,-24 0,0 0,-1 0,-2 0,0 0,-1 -1,-1 0,-1 0,-1 0,-2 2,-2 6,-4 12,-4 3,0 4,0 4,-1 0,-1 -1,-1 -4,-1 -8,-1 -15,-1 -22,-1 -6,0 -11,0 -16,-1 0,0 -1,0 -1,0 0,0 -1,-1 -1,-1 -6,-3 -10,-5 -13,-5 -4,0 -9,2 -13,6 -1,1 -2,2 -3,2 0,0 -4,0 -11,0 -5,0 -7,1 -8,2 0,1 0,1 0,2 0,1 0,2 2,4 2,1 4,2 5,3 2,0 2,1 1,3 -26,31 -39,55 -39,71 0,1 0,3 1,4 1,2 2,3 3,4 2,1 3,1 5,2 1,0 3,0 4,0zm-4 -15c11,-27 27,-50 48,-69 3,-2 5,-3 5,-3 3,-1 7,-2 11,-2 4,-1 9,-1 13,0 9,1 13,4 11,10 -2,14 -14,30 -33,47 -18,17 -34,26 -47,28 -7,2 -10,0 -10,-5 0,-2 1,-4 2,-6z"/>
    <path class="fil2" d="M2157 2332c19,0 40,-11 64,-32 12,-11 21,-21 27,-31 7,-10 10,-19 12,-29 0,-1 0,-3 -1,-5 0,-3 -2,-5 -4,-8 -4,-7 -8,-10 -12,-10 -1,0 -2,0 -3,1 -4,1 -7,3 -9,4 -2,2 -3,3 -3,5 -1,0 0,0 1,0 1,0 2,0 2,0 1,0 2,-1 4,-2 1,-1 3,-2 5,-2 9,-2 14,4 14,17 -1,7 -4,15 -9,24 -5,8 -12,17 -21,27 -9,9 -18,17 -27,22 -9,6 -17,10 -26,13 -6,2 -11,3 -16,3 -7,0 -12,-2 -16,-6l-3 -3c-2,-3 -5,-7 -7,-12 -2,-5 -3,-11 -3,-17 0,-2 0,-3 0,-2 0,0 0,-1 0,-3 2,-12 7,-27 13,-44 7,-18 15,-36 25,-56 6,-13 12,-25 18,-36 6,-12 13,-23 20,-33 2,-2 3,-3 6,-4 25,-1 46,-3 62,-3 3,-1 4,-1 4,-1 0,-1 -1,-1 -2,-1 -1,0 -4,0 -9,0 -4,0 -11,0 -19,0l-31 0c-3,0 -3,-2 -1,-5 30,-41 52,-63 65,-65 1,-1 2,-1 2,-2 0,0 0,-1 0,-1 0,-1 0,-1 0,-1 0,0 -1,1 -2,1 -3,0 -8,1 -14,3 -7,2 -11,4 -12,5 -10,11 -19,22 -27,32 -8,11 -15,21 -22,31 -1,1 -1,2 -2,2 -35,0 -58,0 -72,0 -22,1 -23,2 -12,3 2,1 6,1 10,1 26,2 70,2 70,3 0,0 -1,2 -2,3 -1,2 -2,3 -3,5 -1,2 -2,3 -3,5 -1,1 -2,2 -3,3 -7,10 -14,21 -21,33 -8,13 -15,27 -22,43 -8,18 -14,34 -18,48 -4,14 -6,26 -6,36 0,5 2,11 4,17 2,5 6,10 9,14l4 4c3,2 6,4 10,5 3,1 7,1 12,1z"/>
   </g>
  </g>
  <path class="fil3" d="M1736 128c-272,4 -590,49 -880,128 -183,50 -347,117 -505,185 -122,53 -239,112 -351,177l0 -21c490,-281 1073,-459 1736,-469l0 0zm-1736 1674c166,-55 330,-107 479,-165 134,-52 271,-161 358,-291 84,-123 160,-331 251,-523 80,-170 170,-340 278,-486l-113 177c-370,670 -296,977 -879,1189 -120,44 -247,87 -374,132l0 -33zm0 -531c305,-127 608,-245 734,-382l0 0c-32,37 -72,66 -117,97 -159,111 -383,212 -617,320l0 -35zm0 275c184,-85 368,-183 546,-323l0 0c-185,123 -368,215 -546,298l0 25zm0 -592c284,-130 594,-224 926,-289l0 0c-314,62 -628,168 -926,315l0 -26zm0 666c417,-200 805,-443 1017,-957l0 0c-218,529 -596,784 -1017,989l0 -32zm0 -906c498,-284 1055,-458 1597,-464l0 0c-542,6 -1100,204 -1597,498l0 -34zm161 2477l443 -119c162,-46 165,-195 104,-308 -64,-112 -191,-188 -316,-75l-335 312c49,53 86,118 104,190zm-111 -197l323 -326c117,-121 45,-251 -65,-318 -109,-64 -254,-67 -308,85l0 75 0 436 0 4c18,13 34,28 50,44zm789 393c5,-22 8,-45 9,-68 0,-129 -72,-259 -237,-223l-448 103c8,35 12,71 12,108 -1,27 -4,54 -9,80l5 0 622 0 46 0zm-839 -385c8,7 15,14 23,22 70,73 113,173 111,283 0,27 -3,54 -9,80l-31 0 -47 0 -35 0c8,-26 13,-54 13,-82 1,-44 -8,-85 -25,-123l0 -67 0 -72 0 -41zm670 -3002c-235,72 -460,171 -670,289l0 -39c194,-101 397,-185 605,-250l65 0zm1432 0c-391,200 -785,614 -974,951 -508,909 115,1516 51,2436l-110 0 0 -6 1 -6 1 -6 0 -6 1 -6 1 -6 0 -6 1 -6 0 -6 1 -6 0 -6 1 -6 0 0 0 -6 1 -6 0 0 0 -6 0 -6 1 -6 0 -6 1 -7 0 0 0 -6 0 -6 0 0 1 -6 0 0 0 -6 0 0 0 -6 1 -7 0 0 0 -6 0 -6 0 -6 0 0 1 -6 0 -7 0 0 0 -6 0 0 0 -6 0 0 0 -7 0 -6 0 0 1 -6 0 -7 0 -6 0 0 0 -6 0 -7 0 -6 0 -6 0 -7 0 -6 0 -7 0 0 0 -6 0 -6 0 -7 0 -6 0 -7 -1 -6 0 -7 0 0 0 -6 0 -7 0 -7 0 -6 -1 -7 0 -6 0 -7 0 -6 -1 -7 0 -7 0 -6 -1 -7 0 -7c-68,-801 -428,-1221 34,-2067 183,-336 525,-656 903,-917l86 0zm-866 3387c-1,-340 -96,-675 -194,-1022 -173,-607 60,-1196 534,-1679 118,-121 260,-226 405,-332l0 0c-730,520 -1145,1231 -925,2007 98,348 194,684 195,1026l-15 0z"/>
 </g>
</svg>
