<?xml version="1.0" encoding="UTF-8"?>
<!DOCTYPE svg PUBLIC "-//W3C//DTD SVG 1.1//EN" "http://www.w3.org/Graphics/SVG/1.1/DTD/svg11.dtd">
<!-- Creator: CorelDRAW X8 -->
<svg xmlns="http://www.w3.org/2000/svg" xml:space="preserve" width="1151px" height="580px" version="1.1" style="shape-rendering:geometricPrecision; text-rendering:geometricPrecision; image-rendering:optimizeQuality; fill-rule:evenodd; clip-rule:evenodd"
viewBox="0 0 10575 4911"
 xmlns:xlink="http://www.w3.org/1999/xlink">
 <defs>
  <style type="text/css">
   <![CDATA[
    .fil11 {fill:black}
    .fil1 {fill:black}
    .fil7 {fill:#666666}
    .fil0 {fill:#E6E6E6}
    .fil10 {fill:#F2F2F2}
    .fil9 {fill:#F2F2F2}
    .fil2 {fill:white}
    .fil5 {fill:white}
    .fil12 {fill:black;fill-rule:nonzero}
    .fil6 {fill:#666666;fill-rule:nonzero}
    .fil8 {fill:#666666;fill-rule:nonzero}
    .fil3 {fill:white;fill-rule:nonzero}
    .fil4 {fill:white;fill-rule:nonzero}
   ]]>
  </style>
 </defs>
 <g id="Layer_x0020_1">
  <metadata id="CorelCorpID_0Corel-Layer"/>
  <path class="fil0" d="M5287 1c2692,0 4874,2182 4874,4873 0,12 0,24 0,36l-9747 0c0,-12 0,-24 0,-36 0,-2691 2182,-4873 4873,-4873z"/>
  <g id="_2046463726096">
   <g>
    <rect class="fil1" y="4874" width="6248.97" height="35.63" rx="57" ry="113"/>
    <g>
     <rect class="fil1" transform="matrix(1.08343E-15 0.018641 -1.68304 2.03117E-14 1026.04 4753.29)" width="7366.01" height="21.17" rx="67" ry="67"/>
     <rect class="fil1" transform="matrix(1.08343E-15 0.0528617 -1.68304 5.75995E-14 951.273 4509.16)" width="7366.01" height="21.17" rx="67" ry="67"/>
    </g>
   </g>
   <g>
    <rect class="fil1" x="6414" y="4874" width="761.43" height="35.63" rx="7" ry="113"/>
    <rect class="fil1" x="7538" y="4874" width="301.33" height="35.63" rx="3" ry="113"/>
    <rect class="fil1" x="7964" y="4874" width="2610.48" height="35.63" rx="24" ry="113"/>
    <rect class="fil1" x="7323" y="4874" width="71.4376" height="35.63" rx="1" ry="113"/>
    <rect class="fil1" transform="matrix(1.08343E-15 0.0409082 -1.68304 4.45746E-14 9005.78 4599.79)" width="7366.01" height="21.17" rx="67" ry="67"/>
    <rect class="fil1" transform="matrix(1.08343E-15 0.0262232 -1.68304 2.85734E-14 8917.83 4706.22)" width="7366.01" height="21.17" rx="67" ry="67"/>
    <rect class="fil1" transform="matrix(1.08343E-15 0.018641 -1.68304 2.03117E-14 5876.49 4757.98)" width="7366.01" height="21.17" rx="67" ry="67"/>
    <rect class="fil1" transform="matrix(1.08343E-15 0.0131116 -1.68304 1.42867E-14 8917.83 4509.11)" width="7366.01" height="21.17" rx="67" ry="67"/>
   </g>
  </g>
  <g id="_2046463722192">
   <rect class="fil2" x="6842" y="2324" width="497.56" height="29.04" rx="5" ry="92"/>
   <path class="fil3" d="M7362 2208c40,-57 100,-93 164,-104 64,-10 132,3 189,43 57,41 92,101 103,164 2,14 4,28 4,42 0,20 -25,19 -25,0 0,-12 -1,-25 -4,-37 -9,-58 -41,-112 -93,-148 -51,-37 -112,-49 -170,-39 -58,10 -111,42 -148,93 -28,40 -42,86 -42,131l-25 0c0,-50 15,-101 47,-145z"/>
   <path class="fil3" d="M7814 2061c28,0 53,6 76,18l-7 24c-21,-11 -44,-17 -69,-17 -40,0 -76,16 -102,42 -6,7 -12,13 -17,21l-22 -12c6,-10 13,-18 21,-26 31,-31 73,-50 120,-50z"/>
   <path class="fil3" d="M8074 1984c-51,0 -97,21 -130,54 -30,30 -50,71 -53,116 -2,16 -28,17 -25,-8 6,-49 28,-93 61,-126 37,-37 90,-61 147,-61 58,0 110,24 148,61 38,38 61,90 61,148 0,39 -10,76 -29,107 -9,18 -33,11 -24,-8 18,-29 28,-63 28,-99 0,-51 -20,-97 -54,-130 -33,-33 -79,-54 -130,-54z"/>
   <path class="fil3" d="M8368 2182c43,0 82,18 110,46 28,28 46,67 46,109 0,15 -25,16 -25,0 0,-36 -15,-68 -38,-92 -24,-23 -57,-38 -93,-38 -36,0 -68,15 -92,38 -8,8 -15,17 -20,27l-22 -13c7,-11 15,-22 24,-31 29,-28 67,-46 110,-46z"/>
   <rect class="fil2" x="8373" y="2433" width="370.49" height="29.04" rx="3" ry="92"/>
   <rect class="fil2" x="8237" y="2492" width="218.354" height="29.04" rx="2" ry="92"/>
   <rect class="fil2" x="8154" y="2492" width="48.9509" height="29.04" rx="0" ry="92"/>
   <rect class="fil2" x="7923" y="2492" width="179.593" height="29.04" rx="2" ry="92"/>
   <rect class="fil2" x="7241" y="2435" width="368.757" height="29.04" rx="3" ry="92"/>
  </g>
  <g id="_2046463721616">
   <rect class="fil2" x="2112" y="2546" width="248.78" height="29.04" rx="2" ry="92"/>
   <path class="fil3" d="M2383 2429c40,-57 100,-92 164,-103 64,-11 132,2 189,43 57,40 92,100 103,164 2,14 4,28 4,42 0,20 -25,19 -25,0 0,-13 -1,-25 -4,-38 -9,-57 -41,-111 -93,-148 -51,-36 -112,-48 -170,-39 -58,10 -111,42 -148,94 -28,39 -42,85 -42,131l-25 0c0,-51 15,-102 47,-146z"/>
   <path class="fil3" d="M2835 2282c28,0 53,7 76,18l-7 25c-21,-11 -44,-18 -69,-18 -40,0 -76,17 -102,43 -6,6 -12,13 -17,20l-22 -12c6,-9 13,-18 21,-26 31,-31 73,-50 120,-50z"/>
   <path class="fil3" d="M3095 2206c-51,0 -97,20 -130,53 -30,31 -50,71 -53,117 -2,16 -28,16 -25,-9 6,-48 28,-92 61,-125 37,-38 90,-61 147,-61 58,0 110,23 148,61 38,38 61,90 61,148 0,39 -10,75 -29,106 -9,19 -33,11 -24,-8 18,-28 28,-62 28,-98 0,-51 -20,-97 -54,-131 -33,-33 -79,-53 -130,-53z"/>
   <path class="fil3" d="M3389 2404c43,0 82,17 110,45 28,28 46,67 46,110 0,15 -25,16 -25,0 0,-36 -15,-69 -38,-92 -24,-24 -57,-38 -93,-38 -36,0 -68,14 -92,38 -8,8 -15,17 -20,26l-22 -12c7,-12 15,-22 24,-32 29,-28 68,-45 110,-45z"/>
   <rect class="fil2" x="3394" y="2655" width="370.49" height="29.04" rx="3" ry="92"/>
   <rect class="fil2" x="3131" y="2653" width="218.354" height="29.04" rx="2" ry="92"/>
   <rect class="fil2" x="2533" y="2713" width="48.9509" height="29.04" rx="0" ry="92"/>
   <rect class="fil2" x="2288" y="2713" width="179.593" height="29.04" rx="2" ry="92"/>
   <rect class="fil2" x="1899" y="2613" width="368.757" height="29.04" rx="3" ry="92"/>
   <path class="fil4" d="M2401 1959c-111,33 -99,137 -97,152 2,15 -21,20 -25,5 -21,-62 -43,-92 -66,-105 -21,-12 -45,-10 -69,-6 -17,2 -21,-22 -4,-24 28,-5 57,-8 86,9 19,11 37,30 55,65 8,-43 34,-97 113,-120 16,-6 25,18 7,24z"/>
   <path class="fil4" d="M2820 1790c-73,-3 -88,63 -90,72 -2,9 -16,8 -15,-2 0,-42 -7,-64 -18,-77 -11,-12 -25,-15 -40,-17 -11,-3 -9,-18 2,-16 18,3 36,7 50,23 9,10 16,26 19,50 14,-24 41,-51 93,-48 10,-1 11,16 -1,15z"/>
   <path class="fil4" d="M2364 1619c-59,11 -58,65 -58,73 0,8 -12,9 -13,1 -8,-33 -17,-50 -28,-58 -11,-7 -23,-7 -36,-6 -9,-1 -9,-13 0,-13 14,-1 29,-1 43,9 10,7 18,18 25,37 6,-22 23,-48 65,-56 8,-2 12,11 2,13z"/>
  </g>
  <g id="_2046463717680">
   <rect class="fil5" transform="matrix(1.08343E-15 0.01907 -1.68304 2.07792E-14 1933.97 4721.03)" width="7366.01" height="21.17" rx="67" ry="67"/>
   <path class="fil4" d="M1941 3679l160 964c5,19 9,56 -19,63 -107,0 -215,0 -323,0 -26,-2 -23,-41 -18,-63 10,-84 23,-174 37,-266 35,-235 79,-488 122,-698 2,-10 5,-17 8,-21 4,-4 8,-6 13,-6 5,0 9,2 12,6 3,4 6,11 8,21l0 0zm135 967l-155 -938 -156 938c-2,16 -7,34 12,35l293 0c12,0 7,-28 6,-35z"/>
   <rect class="fil5" transform="matrix(6.87412E-16 0.0828128 -1.06785 9.0235E-14 1927.47 4014.52)" width="7366.01" height="21.17" rx="67" ry="67"/>
   <rect class="fil5" transform="matrix(0.00728027 0.0169244 -0.980941 0.421966 1876.38 4237.15)" width="7366.01" height="21.17" rx="67" ry="67"/>
   <rect class="fil5" transform="matrix(-0.00728027 0.0169244 0.980941 0.421966 1955.58 4297.34)" width="7366.01" height="21.17" rx="67" ry="67"/>
   <rect class="fil5" transform="matrix(-0.00376681 0.00552735 0.882422 0.601357 1932.02 4058.87)" width="7366.01" height="21.17" rx="67" ry="67"/>
  </g>
  <path class="fil6" d="M4816 2581c-2,-6 -3,-12 -3,-18 -2,-12 -19,-12 -20,2 1,7 2,14 4,21 5,13 23,4 19,-5zm204 308c-7,2 -13,3 -19,5 -14,3 -10,23 4,19 7,-1 13,-3 20,-5 13,-3 8,-23 -5,-19zm-77 13c-7,0 -13,0 -20,0 -14,0 -15,21 0,20 7,0 14,0 21,0 15,-2 14,-22 -1,-20zm-77 -6c-6,-1 -13,-3 -18,-5 -12,-4 -20,15 -7,19 7,3 14,4 21,6 13,3 18,-16 4,-20zm-63 -32c-2,-4 -4,-8 -4,-13 2,-12 -16,-17 -20,-2 0,10 2,18 7,26 10,13 25,-1 17,-11zm32 -41c6,-2 13,-4 19,-5 13,-1 9,-23 -4,-19 -7,1 -14,3 -21,5 -15,6 -7,25 6,19zm77 -12c6,0 13,0 19,0 14,-1 11,-20 0,-20 -7,0 -13,0 -20,0 -14,1 -12,22 1,20zm79 1l20 1c17,1 16,-19 1,-20l-20 -1c-15,0 -20,19 -1,20zm160 4l20 0c16,-1 14,-20 0,-20l-20 0c-19,0 -16,21 0,20zm80 -1l20 0c17,-1 15,-20 0,-20l-20 0c-17,1 -17,20 0,20zm81 -3c6,0 13,-1 20,-1 14,0 13,-20 -2,-20 -6,0 -13,1 -19,1 -16,1 -17,21 1,20zm80 -7c7,0 14,-1 20,-2 15,-3 9,-22 -3,-20 -6,1 -13,2 -19,2 -14,2 -14,23 2,20zm80 -15c7,-2 14,-4 20,-6 12,-5 7,-26 -7,-19 -6,2 -12,4 -18,6 -13,2 -11,23 5,19zm67 -54c2,-9 1,-18 -2,-25 -5,-12 -24,-9 -19,7 2,4 2,10 1,14 -4,12 16,18 20,4zm-51 -71c-6,-3 -13,-5 -19,-7 -12,-3 -18,16 -6,19 6,2 11,4 17,7 15,6 20,-14 8,-19zm-81 -16c-7,0 -14,0 -21,0 -17,0 -18,19 1,20 6,-1 13,0 19,0 13,0 15,-19 1,-20zm-81 3l-20 2c-15,1 -14,20 1,20l20 -2c18,-1 15,-21 -1,-20zm-80 7l-20 2c-14,1 -13,21 2,20l20 -2c14,-1 13,-21 -2,-20zm-80 7l-19 1c-14,2 -12,21 1,20l20 -1c14,-3 11,-22 -2,-20zm-79 4l-20 1c-14,1 -14,20 1,20l20 -1c14,0 12,-20 -1,-20zm-79 1c-6,0 -14,0 -20,-1 -15,-1 -14,19 -1,20 6,0 13,1 20,1 17,0 17,-20 1,-20zm-78 -8c-7,-1 -13,-3 -19,-4 -12,-3 -18,15 -5,19 6,2 13,4 20,5 14,2 16,-17 4,-20zm-72 -26c-5,-3 -10,-7 -14,-11 -10,-7 -23,5 -14,15 6,5 12,10 18,13 12,6 20,-10 10,-17z"/>
  <g id="_2046463749264">
   <rect class="fil7" transform="matrix(0.00878841 -0.00878841 0.766085 0.766085 5566.12 2748.72)" width="7366.01" height="21.17" rx="67" ry="67"/>
   <rect class="fil7" transform="matrix(0.00878841 0.00878841 -0.766085 0.766085 5582.31 2683.99)" width="7366.01" height="21.17" rx="67" ry="67"/>
  </g>
  <circle class="fil7" cx="4819" cy="2691" r="16"/>
  <circle class="fil7" cx="5425" cy="2859" r="20"/>
  <path class="fil8" d="M5083 2758c13,0 25,5 34,14 9,9 14,21 14,34 0,13 -5,25 -14,34 -9,9 -21,14 -34,14 -13,0 -26,-5 -34,-14 -9,-9 -14,-21 -14,-34 0,-13 5,-25 14,-34 8,-9 21,-14 34,-14zm16 32c-4,-5 -10,-7 -16,-7 -7,0 -12,2 -17,7 -4,4 -6,10 -6,16 0,7 2,12 6,17 5,4 10,6 17,6 6,0 12,-2 16,-6 5,-5 7,-10 7,-17 0,-6 -2,-12 -7,-16z"/>
  <circle class="fil7" cx="5321" cy="2611" r="16"/>
  <path class="fil8" d="M4927 2500l13 38 46 20 -46 21 -19 56 -18 -56 -46 -21 46 -20 18 -56 6 18zm2 44l-8 -23 -8 26 -26 11 26 12 8 26 9 -26 25 -12 -25 -11 -1 -3z"/>
  <g id="_2046463745392">
   <path class="fil9" d="M4028 3949l127 31c-151,-285 526,-535 653,-535l0 -23c-257,52 -519,132 -797,313 -79,98 -107,167 17,214z"/>
   <path class="fil9" d="M5569 3422l-2 56c358,57 604,167 814,454 87,-55 78,-130 -59,-231 -180,-112 -443,-202 -753,-279z"/>
   <path class="fil10" d="M5564 3300c-13,-192 -99,-306 -246,-356 -16,-6 -134,-18 -151,-22 138,83 285,193 301,445l33 1133 63 38 0 -1238z"/>
   <circle class="fil11" cx="4985" cy="3213" r="24"/>
   <circle class="fil11" cx="5387" cy="3213" r="24"/>
   <path class="fil1" d="M5139 3404c17,0 32,0 49,0l45 0c10,0 18,-8 18,-18l0 0c0,-10 -8,-18 -18,-18 -15,0 -30,0 -46,0l-48 0c-10,0 -18,8 -18,18l0 0c0,10 8,18 18,18z"/>
   <path class="fil12" d="M4950 3194c1,-6 3,-11 6,-16 5,-6 11,-11 18,-14 13,-6 3,-24 -9,-18 -9,5 -18,12 -25,20 -5,8 -9,17 -9,27 1,12 18,12 19,1z"/>
   <path class="fil12" d="M5424 3193c0,-5 -2,-10 -6,-15 -4,-6 -11,-11 -17,-14 -13,-6 -3,-24 9,-18 9,4 18,11 24,20 6,8 10,17 10,27 -1,12 -19,12 -20,0z"/>
   <ellipse class="fil11" cx="4580" cy="3993" rx="130" ry="27"/>
   <ellipse class="fil11" cx="5793" cy="3991" rx="130" ry="27"/>
   <rect class="fil1" transform="matrix(1.91037E-16 0.00768912 -1.25177 3.53402E-14 4821.8 4141.13)" width="7366.01" height="21.17" rx="67" ry="67"/>
   <path class="fil12" d="M5572 3412c72,18 139,36 201,53 64,19 124,37 178,55 20,7 12,26 -7,19 -53,-18 -112,-36 -176,-55 -63,-17 -129,-35 -201,-53l5 -19zm449 133c214,79 336,156 390,222 26,32 37,62 35,90 -3,28 -18,52 -44,73 -46,35 -126,59 -226,65 -83,5 -153,0 -224,-5 -108,-7 -218,-14 -381,13l-3 -20c165,-27 276,-20 386,-13 70,5 139,10 221,5 96,-6 172,-28 214,-61 22,-17 35,-37 37,-59 1,-22 -8,-48 -30,-75 -52,-64 -172,-139 -382,-216 -17,-6 -12,-25 7,-19z"/>
   <path class="fil12" d="M4810 3431c-443,109 -687,219 -795,314 -37,33 -58,64 -63,91 -5,26 4,49 25,68 33,33 95,56 177,66 20,3 17,23 -3,20 -85,-11 -152,-36 -188,-71 -25,-25 -36,-54 -30,-87 6,-31 28,-66 69,-102 110,-96 357,-209 803,-318l5 19zm-562 545c62,2 118,-2 175,-6 109,-7 221,-14 386,13l-3 20c-163,-27 -273,-20 -382,-13 -57,4 -113,8 -177,6 -18,-1 -19,-21 1,-20z"/>
   <path class="fil12" d="M4820 4504c17,-18 35,-36 56,-49 32,-21 68,-32 111,-20l0 0c41,12 74,42 107,72 39,36 78,72 132,78 35,0 60,-12 82,-28 15,-12 32,8 9,24 -25,17 -53,29 -92,29l-1 -1c-62,-6 -105,-45 -147,-84 -31,-28 -61,-56 -97,-66 -35,-9 -64,0 -91,17 -27,18 -51,45 -72,70l-22 27 0 -341c0,-16 25,-15 25,0l0 272zm557 -6c6,-5 13,-10 21,-14 52,-31 98,-3 144,26l10 6 0 -1216c0,-176 -95,-288 -217,-337 -47,-19 -98,-29 -150,-29 -51,0 -102,9 -150,29 -81,32 -150,94 -187,184 -9,24 -34,18 -24,-6 38,-99 114,-166 202,-202 50,-20 105,-30 159,-30 55,0 110,10 160,31 130,52 232,172 232,360l0 1259 -19 -10c-10,-6 -19,-12 -29,-18 -40,-24 -79,-49 -119,-26 -7,4 -14,10 -21,15 -22,16 -32,-8 -12,-22zm-548 -1287c-6,27 -9,57 -9,89l0 803c0,16 -25,16 -25,0l0 -803c0,-32 3,-62 8,-89 5,-24 29,-16 26,0z"/>
  </g>
 </g>
</svg>
