<?xml version="1.0" encoding="UTF-8"?>
<!DOCTYPE svg PUBLIC "-//W3C//DTD SVG 1.1//EN" "http://www.w3.org/Graphics/SVG/1.1/DTD/svg11.dtd">
<!-- Creator: CorelDRAW X7 -->
<svg xmlns="http://www.w3.org/2000/svg" xml:space="preserve" width="23.9868mm" height="39.319mm" version="1.1" style="shape-rendering:geometricPrecision; text-rendering:geometricPrecision; image-rendering:optimizeQuality; fill-rule:evenodd; clip-rule:evenodd"
viewBox="0 0 2399 3932"
 xmlns:xlink="http://www.w3.org/1999/xlink">
 <defs>
  <style type="text/css">
   <![CDATA[
    .fil0 {fill:#A7A1A0}
    .fil1 {fill:#6C6D6D}
    .fil2 {fill:#2D3752}
   ]]>
  </style>
 </defs>
 <g id="Layer_x0020_1">
  <metadata id="CorelCorpID_0Corel-Layer"/>
  <g id="_1393961410272">
   <path class="fil0" d="M2223 3673c0,80 -456,145 -1018,145 -563,0 -1019,-65 -1019,-145 0,-81 456,-146 1019,-146 562,0 1018,65 1018,146z"/>
   <path class="fil1" d="M1780 3635c0,46 -258,83 -575,83 -318,0 -575,-37 -575,-83 0,-45 257,-82 575,-82 317,0 575,37 575,82z"/>
   <path class="fil2" d="M1199 2031c-424,0 -769,-344 -769,-769 0,-425 345,-769 769,-769 425,0 770,344 770,769 0,425 -345,769 -770,769l0 0zm0 -1917c-624,0 -1130,506 -1130,1130 0,624 777,2079 1130,2079 354,0 1130,-1455 1130,-2079 0,-624 -506,-1130 -1130,-1130l0 0z"/>
  </g>
 </g>
</svg>
