<svg id="Isolation_Mode" data-name="Isolation Mode" xmlns="http://www.w3.org/2000/svg" viewBox="0 0 217.57 249.01"><defs><style>.cls-1{fill:#d3d3d3;}</style></defs><title>jadeh</title><path class="cls-1" d="M129.22,4.64h.85l-.18-.18h0l-.44-.21h0l-.66-.09A1.37,1.37,0,0,1,129.22,4.64ZM123.56,2.8V2.74h-.12l-.15.09Zm-.63.21h-.55l.26.1.8.08h-.05L122.9,3Zm1.32,1Zm5.88.94L130,4.86h-.34ZM126.92,4a7.43,7.43,0,0,1,.93,0l-.58-.23h.11l.86.26,1.1.15.23.08h0a2,2,0,0,1,.45.12h.38a2.69,2.69,0,0,0-.1-.32L129.68,4l-3.75-.36h-.08l.24.12h.18V3.6h.17c.09,0,.27.13.24.14a.9.9,0,0,1-.32,0Zm-2.19-2,.05-.09L125,2a3.81,3.81,0,0,1,.53,0v.09l.48.13-.44.13h-.06l-.38-.06.53.21.4.11h.32c-.15,0-.21-.09,0-.13a2.41,2.41,0,0,1,1,.24h.46l-.61-.14L126,2.39l-.21-.08a2.38,2.38,0,0,1,.42,0l.91.17h.07c-.1-.06,0-.11,0-.17l-.49-.14a4.48,4.48,0,0,1-.63-.16l-.7-.16-.83,0h-.51c.22.06.29.09.29.12A1.12,1.12,0,0,1,124.73,2Zm2.64,3.29.35.08v.24l1.06.41.15-.22a2,2,0,0,1-.43-.28l-2-.74s.06.07,0,.11l-.43-.23v.11l.85.52.59.22Zm3.16-2.53c-.47-.09-.92-.21-1.39-.32h-.09a4.24,4.24,0,0,1,1.09.31h-.54l.13.07h-.17l-.29-.1-.81-.11h-.06l.55.2-.78-.13h0l.28.08h0l2.24.22L130.54,3h.76Zm15.59,4.75H146l.33.08Zm-28.58-6,.18-.07-1.19-.33a1.44,1.44,0,0,0,.66.32.66.66,0,0,1-.55-.11,3.75,3.75,0,0,1-.36-.24h-.38l.24.16,1.33.38V1.61l-.27-.11h0ZM119.47,1h0l-.4-.1V.95l.46.07Zm5.47,1.52h.4l-.41-.11ZM119.1.09,118.8,0h-.16l.56.17.72.11Zm35.46,12.08c.63.28,1.33.57,2,.85l-.81.08-1.4-.3H155l-1.47-.28,1.19.56h.16l3.71.48,3.83.5-1.66-.77-1.67-.73-4.7-.59a.35.35,0,0,0,.2.2ZM141.29,7.46l1.63.6h0l3.6.41c-.24-.09-.55-.17-.82-.26l-.53-.2h.26l.54.2.15.07.71.07a6.85,6.85,0,0,0,1.34.3l1.44.16L148,8.24l-1.6-.56h-.13l-.83-.22-3-.33-2.88-.32Zm2.45.24V7.61l1,.2v.08Zm-1.92-.31a16.58,16.58,0,0,1,2.42.6,16.53,16.53,0,0,1-2.41-.6Zm16.69,7.52,3.93.53,4,.56L165,15.32l-1.32-.66a9.34,9.34,0,0,1-1.44-.36l-3.56-.5a.92.92,0,0,1,.15.18c-.6,0-1.65-.58-1.86-.18l-1.46-.42h-.05l1.51.74,1.49.76ZM117.73,2.19V2.13h-.16Zm39.88,9.93a.62.62,0,0,1,.25-.09l-.39-.16a3,3,0,0,1-1.89-.46h.65l-2.61-.6h0l2,.32-.81-.33-.53-.06.15.06-.6-.11-3.1-.38-3-.36,1.58.66,1.57.68h0l.9.11.34-.06-1.54-.54,1.28.16,1.16.36h.13l-.39-.22H153a6.11,6.11,0,0,1,1,.55Zm-29-9.8h.05l.5.12Zm24.58,10h.56l-.59-.21H154c-.55-.15-.71-.17-.93,0a.69.69,0,0,1-.25.06ZM128.47,6.4l.15-.18L128,6l-.87-.3h0l-1.34-.51a4,4,0,0,1-.21.35,3.49,3.49,0,0,0,1.11.14c0,.1.09.19.12.27l.76.37-.69-.18v.1h-.21l-.2-.18-.89-.23c.16.13,0,.26,0,.44s.4.13.33.19l1.95.26c-.09-.09,0-.17.13-.26l.09-.09ZM119.8,1.84a.56.56,0,0,1,.15.1l.34.1h.33l-1-.41a.27.27,0,0,0,.18.23Zm-2.07.56h-.15l.11.23h-.31v.09h.17l.18.08h0A2.15,2.15,0,0,0,117.73,2.4Zm7.4,3.83c0-.08,0-.15.11-.2s.16-.12.09-.19l-.29.35Zm-2.79-1Zm2-.54h.19l-1.12-.4.16.28a1.45,1.45,0,0,1-.32-.07v.06c0,.06.06.11.1.17h0l.06.05c.19.15.44.3.67.45h.28l-.65-.43.51-.09ZM114,3.5a2.41,2.41,0,0,0,.1-.34,3.29,3.29,0,0,0-.64.12l.32.14Zm4.76-.19H119l-.38-.15h-.12l.28.08Zm-.93-2.1L117,1.13l1.12.31-.25-.12a.87.87,0,0,0,0-.1Zm-.2.78h-.1l-.77-.19.25.12h.13Zm8.35.77-1.63-.16.14.08.43.1c.31.06.47.13.49.21l.71.34v-.2h.13A3.83,3.83,0,0,0,126,2.8Zm-8.33.36L117.45,3l.28.08V3l-.49-.06h0l.16.14.17.07Zm5.76-1h.33L123.16,2l-.23-.05h-.35s0,.06.09.1c.24.11.58.22.88.33h.26ZM116.45,2l.4.05L116,1.85H116l-.63-.18v.12l.38.09h.19a1.93,1.93,0,0,1,0,.23h-.56a1.56,1.56,0,0,0,.4.11l.1-.08H116l.07.09h.23l-.09-.17.48.2.47-.12a3,3,0,0,1-.69-.07Zm2.14-.67.53.27.17-.1-.65-.25h-.32l.19.09h.08Zm5.66.9c-.22,0-.13.08-.06.14l.57.05a3.38,3.38,0,0,0-.49-.19ZM118.16.7h.2l-.27-.07H118l.1.08Zm-2.09,1.87h.19l-.36-.11a.12.12,0,0,0-.12.1h.29Zm2.75.76Zm.87-.48-.1-.05h0ZM116.88,3l-.15-.12h-.25a2.08,2.08,0,0,0,.43.13Zm2.78,0h.14l-.3-.1c-.06,0-.06.09,0,.16h.23s-.07,0,0,0Zm-.84.24Zm-4.69-1.4V1.76h0a.7.7,0,0,1,0,.11Zm6.07,1.61Zm-6-1.41V2h-.1V2.1h.12Zm1.75.63ZM130,6.8Zm-8.77-3.66a.16.16,0,0,1,0-.14l-.39-.12h0a4.23,4.23,0,0,1-.5-.13l-.2-.13-.28-.09-.24-.05a.13.13,0,0,1,.06.1,4,4,0,0,1,.83.44l1,.32v0h-.3a.17.17,0,0,0,0-.05l-.43-.2Zm-2,1h.15l-.13-.05ZM110.28,2l.39-.24-.23,0-.37.22Zm4.86.31h0Zm-1-1.75h0Zm5.43,3.36a.23.23,0,0,1-.09.08l.53.13ZM114.13,1.8Zm-.07-.21V1.53l-.67-.12h-.06l.45.12.23.07h.06s-.08-.05,0-.05Zm2.4.06h0Zm4.39,3.23h0l-.49-.19h0l.47.22Zm2-1.29h-.12l-.1-.12-.32-.1v.06a4.68,4.68,0,0,1,.81.42H123l.17.07.18-.06a1.19,1.19,0,0,0,.19.18l.3.11s.09-.06,0-.1l-.43-.27-.51-.17Zm3.28,1.47L126,5h0Zm-4.58-1.8Zm0,.41h0l-.35-.12h0ZM117.83,1,117.58.8h-.35l-.41-.1h-.17c.3.16.23.23-.15.34-.18-.15.24-.23-.28-.4H116l-.32-.19H116s.11.12,0,.12l.1.09h-.16l.27.12,1.62.15h0L117.24.8l.57.07Zm7,4.37Zm.71.22h0l.89.35a2.75,2.75,0,0,1-.34-.23Zm-10.12-3.1.09-.06-.62-.18V2.3Zm12,5h0c.08-.12.16-.24.24-.38l-.43-.17a1.93,1.93,0,0,1,.7.08l.05-.05-1.39-.19c0,.06,0,.12-.08.12l-.89-.24h-.3a13.48,13.48,0,0,1,2.1.82Zm21,11,1.63-.58L149,17.08l-1.08-.77c-.7.28-1.26.49-1.82.69l-2,.69ZM150,20.8Zm0-2.27,1.11.28-.59-.46ZM132.73,7.95Zm19.83,12h.08c-.55-.47-.83-.7-1.41-1.16-.26.23-.63.19-1.4-.2-1.32.46-2,.69-3.48,1.14l2.84.52-.39-.53c.4.18,1.54.21,1.63.65v.1l.41.08,1.39-.44h-1.31l.92-.4Zm-9-2.56,1.86-.67-3.37-.57c.57.51.88.76,1.46,1.26Zm-3.83-4.28-.25.32.54-.25-.06-.09-1.47-.23A3,3,0,0,0,139.73,13.11Zm4.45,1.21.42-.19-1.17-.71-1.19-.7-1.36.66c-.43.2-.87.4-1.49.66l4,.64.43-.18-.42-.1.41-.26Zm3.66,4.38-3.5-.62c.58.52.86.78,1.4,1.3ZM138.91,6.58l3.14.34,3.24.35-1.56-.47-1.55-.51-2.35-.08-.11-.06,2.22.06-.23-.07-3.18-.34-3.05-.32,1.68.56,1.67.57ZM135.65,9l.43-.33L134.7,8l-1.4-.59-.34.32.86.17h-.41c.86.42,1.32.62,2.19,1Zm-3.72-1.63a.57.57,0,0,1,.25-.1l.14.21.28-.28-1.76-.7a3.4,3.4,0,0,1-.07.4Zm8.8,4.17,1.24.67.65-.36-1.29-.67L140,10.49l-.56.35Zm5,2-1.24-.7-1.26-.69-.68.36,1.22.69,1.2.71ZM134.89,9.38l.38-.27L134,8.52l-1.28-.58h-.15l.05.1L132.51,8l-.34.28c.38.23-.25.3-.2.48l-.24.06.09-.15-.68.47.45.12,3,.43h.07l-.24-.16Zm-1,1.28,1.39.21-1.1-.37Zm3.84.44.71-.41L137.17,10l-1.28-.63-.18.12.23.19-.65.3-.16-.11-.87.52,1.39.48,1.12.17c-.1-.11.15-.22.22-.33l.5.12ZM136.3,10a5.51,5.51,0,0,1,.25.57c-.76-.23-.82-.3-.16-.53Zm4.15,2.9,1.06-.53-1.22-.67L139,11l-.9.51h.1l-.07,0H138l-.48.25a6.36,6.36,0,0,1,1.23.57h-.62a2.87,2.87,0,0,0-.8-.46l-.74.37Zm48.68,27.74,2.43.35.09-.15a21.82,21.82,0,0,0-2.75-.56Zm-55.9-30.22c.42-.24.62-.36,1-.6l-2.87-.41c.85.42,1.22.65,2,1.06Zm57.6,32.81.75.16c.31-.37-.51-.67-1.25-1ZM146.73,15l1.14.75.89-.38-1.19-.74-1.21-.73-.79.37Zm48.83,28.15-2.83-.67c.47.21.94.42,1.47.61a1.81,1.81,0,0,0,1.4.06ZM198.9,78.8l1.36.52a7.55,7.55,0,0,1-.89.17l4.18,1.65c-.36-.54-.72-1.09-1.11-1.63-.62-.87-1.91-1.21-3.51-1C198.91,78.69,198.9,78.74,198.9,78.8ZM188.78,40l.42.1c.53.11,1.12.12,1.68.19a5.73,5.73,0,0,1,1.19.2,6.17,6.17,0,0,0,2.55.73l3.91.57c.87.67,1.74,1.35,2.61,2l1,.25h0c-.46-.61-.82-1.06-1.17-1.51s-.71-.89-1.2-1.47h0l-3.3-.74a5.8,5.8,0,0,1-2.51-.53H194l-3.25-.72-3.18-.7C188.08,39,188.32,39.35,188.78,40Zm4,.49.11-.16a11.62,11.62,0,0,1,2.87.58l-.15.19Zm8.54,21.62a5.82,5.82,0,0,1,.34,1.21,8.94,8.94,0,0,1-3.85-1.73l.13.68h.1L203.41,64l4.84,1.55L214,67.4c-.27-.9-.48-1.56-.7-2.22s-.44-1.3-.75-2.15l-7.43-2.23L198,58.64l.34.64-1-.27c.11.47.17.7.27,1.17a1,1,0,0,0,.25.11c2.49.51,3.05.82,3.55,1.84ZM191.73,41.4l2,.34-.43.26h1.19c-.21-.16-.34-.39-.66-.48-.63-.17-1.36-.26-2-.39Zm9.81,10.09,3.08,1.63c-1.86-.19-3.67-.22-4.78-1.08-.49,1,2.38,1.18,3.85,1.79l-2,.64-.41-.14.33-.45L198.4,52.8l-3.26-1-.4-.78c2.08.58,2.6.57,4.07-.22l-2.8-.67-.69-.17a.11.11,0,0,1,.07-.1l-1.31-.35c.29.67.5,1.17.7,1.68s.41,1,.66,1.73h.08l6.77,1.88a.24.24,0,0,1,.1-.15l1.68.44,1.84.49-.06.22L210,57h0c-.31-.66-.55-1.15-.8-1.63s-.49-1-.82-1.59h-.85l-.27-.3h1l-.09-.17h0L206.95,53a10.71,10.71,0,0,1-2.72-.73Zm-12-10.36h.07l2.17.5L189.46,41ZM123.05,5.53h.06l.12.09,1,.43h0c-.1-.07-.21-.18-.41-.35l.48.26a5,5,0,0,0,.32-.41h-.05l-.48-.06a.8.8,0,0,1-.37,0c-.28,0-.36-.08-.42-.15l-.7-.09-.19.06Zm1.68-2.37h0Zm4.83,4.93a.44.44,0,0,1,.21.5l-.62-.52a1.29,1.29,0,0,1-.35,0l1.58.78c.34-.23.5-.35.8-.58Zm-1.83-.19Zm57.74,27.42a2.12,2.12,0,0,1,.51.46h-.35c.63.76.93,1.14,1.52,1.92h.07L193.13,39l.56.1h0l5.57,1.24h0c-.49-.57-.86-1-1.24-1.41s-.75-.83-1.27-1.37h0l-6-1.24L185,35.11l.15.18a1,1,0,0,1,.26,0ZM128.23,8.38l.33-.08L128,8v.3Zm68.85,37.19-1.35-.45.78-.22c.27.12.72.25.77.35a.64.64,0,0,1,0,.7,1.09,1.09,0,0,1-.52.09l3.85,1,3.94,1a1.71,1.71,0,0,1-.65-.68c-.09-.17-.08-.34-.24-.51a5.36,5.36,0,0,0-.79-.5l.83-.07c-.38-.55-.58-.82-1-1.36l-1.63-.39c-.6.14-.35.26.81.7a3.44,3.44,0,0,1,.74.46,7.22,7.22,0,0,1-4-.76c-.21-.08-.19-.26-.25-.39-.18-.37-.49-.74-1.73-.86a31,31,0,0,0-3.71-.17l3.24,1a8.36,8.36,0,0,1-4-.21,5.61,5.61,0,0,1-.92-.26l.48.76h.07l4.21,1,.7-.16Zm-25.35-26,2.1.37c-1-.58-1.52-.87-2.55-1.43l-4.3-.63-4.17-.6,1.35.78,1.33.8.3-.25,1.88.64,2.66.4,2.71.41-1.31-.41Zm-2.25-.07L167.83,19l.14-.07c.6.12,1.27.2,1.54.55Zm-30.75-5.7.71-.31-1.27-.28c-.15-.13-.41-.29-.39-.41l-.75-.12A14.2,14.2,0,0,1,138.73,13.8Zm38.6,14.67c-.68-.62-1-.93-1.72-1.54l-.53-.08-1.88.69s0,0-.07,0h-.06l-.21.08Zm-3.61-3,.51.29c-.76-.63-1.15-.94-2-1.56l-2.23.91,2,.34c.21-.14.73-.13,1.73,0Zm1.84,4.13-.87-.29.25-.1a6.38,6.38,0,0,0,.73.25h.22l1.6-.56-1.59-.29a1.66,1.66,0,0,1-.14.52h-.28l-1-.66h.36l-3.27-.59-3.2-.57c.4.41.69.73,1,1s.58.64,1,1.07l3.78.71Zm-6.83-4.72c1.13-.44,1.68-.66,2.71-1.1l-4.25-.69-4.12-.66,1.11.93,1.09,1Zm-3.87-5.67L161,18.64l-3.77-.55,1.22.83,1.2.85,3.17.48c.84-.45,1.26-.62,2-1Zm2.25,3.49,4.09.66c-.83-.62-1.26-.93-2.12-1.54-.78.36-1.17.53-2,.88Zm-17.5-5.81,1.09.79,1-.39-1.14-.78-1.16-.77-.92.38Zm30.61,14.37c-.72-.75-1.09-1.12-1.85-1.85l-.74.26c.15,0,.34.25.25.27a3,3,0,0,1-1,.06h-.12l-1.22.41ZM164,20.43l3.91.6c-.86-.59-1.3-.88-2.2-1.45-.68.34-1,.51-1.73.85Zm-35-17-.17-.13h-.3Zm23.11,11.52,1.3.76,2.9.4a14.31,14.31,0,0,0,1.49-1l-3.55-.47-3.45-.46Zm-14.72-8.5.61.06-.78-.27ZM164.52,18.8c-.89-.55-1.35-.83-2.27-1.37-.56.33-.85.49-1.47.82ZM138.06,5l-.8-.13.95.38h-1a.26.26,0,0,1,0,.14l-.27-.18-.57-.12A1.41,1.41,0,0,1,136,4.9c-.7-.23-.94,0-1.72-.27-.42-.12-.9-.22-1.37-.34l-1.62-.16,1.71.53,1.7.54h0l3,.31,3,.29Zm.77.46.06.07-1-.1-.17-.06a2.24,2.24,0,0,1,.39,0c.17,0,.46.06.72.1Zm-2.67-.84,1.36.21-.36-.11Zm17.21,8.21-1.43-.67h-.57a2.2,2.2,0,0,0-.2-.27l-.29.28a5,5,0,0,1,1.91.5A3.25,3.25,0,0,0,153.37,12.8Zm4.07,3.47,3.57.5c-.92-.52-1.39-.78-2.34-1.29C158.21,15.8,158,15.95,157.44,16.27Zm0-1.46c-.95-.49-1.43-.74-2.41-1.22-.38.31-.58.46-1,.77Zm-2.09,2.07,1.25.8,3,.44c.75-.4,1.11-.6,1.78-1l-3.71-.52-3.61-.5Zm10.54,14.46h0l-.06-.08a11.19,11.19,0,0,0-.72-1c-.22-.26-.44-.62-.75-1l-1.81.44c.29.43.5.75.71,1.08s.41.66.67,1.1ZM164,28.65c-.32-.42-.57-.72-.82-1s-.51-.61-.85-1l-1.65.43.79,1c.23.29.46.62.76,1Zm-4.49-3,.77.9,1.61-.43-.9-1c-.28-.31-.55-.57-.92-1l-1.33.38,2.17,1.16a6.32,6.32,0,0,1-2.19-1ZM123.28,3.34V3.4l1.33.43.11-.14c-.1,0-.18-.07-.17-.1h0l-.21-.07h-.84ZM158.51,24l1-.3-1-.92-1-.9-1.34.41c.52.5.78.75,1.28,1.25A2.52,2.52,0,0,1,158.51,24Zm-3.71-3,1,.88,1.31-.41-1-.87-1.05-.85-1.19.4Zm-2.53-2.11,1,.83,1.16-.4-1.09-.83-1.11-.81-1.05.39Zm5.81,5.26h.06L158,24.1ZM128,4.43l.54.14h.25l-.47-.13-.1-.1.67.1-1-.41c-.11.09-.11.21-.22.28Zm3.12,1.07a1.32,1.32,0,0,1,.29,0L134,6h.4a2.76,2.76,0,0,0,0-.77l-3.08-.32-.11.11a3.8,3.8,0,0,1,.7.32L130.28,5a.07.07,0,0,1,.06.08Zm16,5.36,2.86.35c-1-.44-1.5-.66-2.53-1.09a7.18,7.18,0,0,1-.55.67Zm1.75,2.26,1.34.72,2.77.36a12.58,12.58,0,0,0,1.22-.94l-1-.13a2.66,2.66,0,0,1-.78-.1l-2.49-.32-2.44-.31Zm1.7-.64-.06,0,.44,0a2.83,2.83,0,0,1-.41-.09ZM143.08,9.2l3,.34-.29-.12a9.79,9.79,0,0,1-1.42-.34,1.65,1.65,0,0,1-.37-.2,3.11,3.11,0,0,1,.68.11h.1l-1.29-.51a4.82,4.82,0,0,1-.44.73Zm2.33,2.19,1.39.68,2.65.33.32-.28-.16-.06c-.07,0,.12-.12.18-.17H150l.44-.43-1-.12-.18.08h-.31c-.07.27-.74.06-1.4-.11l.23.24L146,10.9l-2-.24ZM131.94,5.8Zm9.26,2.31.6.11v.09L140.1,8h-1.21l-.12.11h.64l.89.43h.23l.15.1L140,8.52a12.51,12.51,0,0,1-1.37-.22l-.44-.08,1.55.58,2.43.28a4.68,4.68,0,0,0,.48-.84Zm-5.76-1h0l.74.1h.38l-.11-.14L136.3,7h.12l-1-.15a2,2,0,0,1-.36.07Zm7.4,164.39c-1.57,1.22-3.21,2.44-5,3.57l.44.51c.25.09.52.15.76.24,1.43.51,2.45,1.54,4.34,2.8l2.37-1.58.94.47c2-2.59,3-3.87,4.9-6.39-3.68-.12-5.53-.18-9.22-.33C142.64,171,142.93,171.43,142.84,171.5Zm9.66-30.37h5.81a3.44,3.44,0,0,1-.92-2.33c-.07-1.23-.43-2.07-2.37-3-1.61-.75-2.24-1.63.5-1.65a9.45,9.45,0,0,1-3.45-3.57,5.18,5.18,0,0,1-.48-3.84l-1.67,2.14c.44.8.63,1.54.24,2.11a4.47,4.47,0,0,0-.17,4.54c.64,1.54,1.67,3.1,2.17,4.71a.92.92,0,0,1-.06.54Zm35.71-33.72.82.27.38-1-3.87-.47a28,28,0,0,0,2.67,1.2Zm2.16-12.34,2.22,2.14c.29-1,.42-1.46.69-2.43Zm-8.89,16.87-5.86.35,4.5,2.67,4.65,2.77c1.13-2.45,1.66-3.65,2.64-6l-.14-.16Zm-10,.27c-2.78-1.66-4.15-2.48-6.85-4.07-.85,1.36-1.52,2.39-2.2,3.43s-1.4,2.12-2.39,3.56l2.28,1.47c-.15-.48-.27-.84,0-1a9.07,9.07,0,0,1,2.54,0c.09.18.18.36.26.54l-2,1,4.27,2.78,3.11-.12,1-.86.66.79c4.35-.19,6.5-.29,10.78-.52L177.65,116l-5.1-3.19-.4.07Zm17.86-11.6c-3.37-1.69-5.85-2.92-8.29-4.13s-4.77-2.35-7.86-3.86c-.54,1.15-1,2-1.42,2.91s-.91,1.79-1.56,3c2.73,1.43,4.12,2.16,6.94,3.66l6.68-.5,6.57-.55h-.74Zm-3.61-12.14,4.06,1.82L194,92.17c.16-.65.23-1,.38-1.62-.82-.7-1.52-1.42-2.24-2.12v-.1a5.41,5.41,0,0,1-1-.44Zm8.69-2.37L191.89,85l2.24,1.11Zm1-5.3c-3.12.41-4.7.6-7.91,1l5.94,2.46a13.87,13.87,0,0,1-.86-1.45l2.08.19.29-.21-1.53-.4a6.08,6.08,0,0,1,1-1.09,5.39,5.39,0,0,1,1-.5Zm-.9,8.81a.46.46,0,0,0,0,.06c.16-.75.24-1.12.38-1.86-.45.18-.5.72-.39,1.79Zm-4.46-3a6.69,6.69,0,0,0-.23-1l1.15.15-1.8-1.82h.13l-5.58-2.31-5.34-2.2c-.31,1-.56,1.73-.82,2.48s-.54,1.53-.93,2.56l6.5,2.87c2.81-.29,4.19-.44,6.91-.74ZM153.9,156.47c-2.47,0-4.94-.08-8.24-.16l4.82,4.67c1.48,1.45,3,2.91,5,4.91,1.4-1.92,2.42-3.34,3.42-4.75s2-2.77,3.21-4.58l-8.22-.1Zm22.59-31.75c1.67.35,3.07.61,4.42.93l.69-1.36-.31-.17.51-.21c.55-1.1.82-1.64,1.35-2.72l-6.41.31-6.48.27,5.12,3.37a1.77,1.77,0,0,0,1.1-.44Zm-42.41,54.49c-.5-.15-1-.28-1.49-.48a11.44,11.44,0,0,0-3.58-.48c.11.17.19.33.15.36-1.93,1.18-1.07,2.87-.65,4.52l7.21.44c-.55-1.51-1.1-2.95-1.65-4.38Zm30.17-58.41L158,118.12l-.57.8c2.47,1.54,2.65,3.72,7,4.22l.86-.91c.36.2.64.29.65.37.11,1,.19,2,.26,3-2-.84-4.1-1.67-6.08-2.5-.57-.24-.94-.65-1.53-.86-.94-.35-1.9-.67-2.84-1l-2.52,3.37v.05c2.91,2.09,4.39,3.17,7.39,5.36,3.37-.07,5.89-.13,8.39-.2l8.32-.26a2.25,2.25,0,0,1-.1-.22c-2.68-1.82-4.65-3.16-6.6-4.46s-3.82-2.56-6.31-4.21ZM145.12,8.9l1.38.55c.36.05.72.07,1.08.1l.16.07a1.25,1.25,0,0,1-.34,0l-.55-.07h.09l4.22.5-.7-.16c.67-.09-.63-.37-.77-.54l1.41.11,2.27.86.55.07-1.68-.59-1.73-.65-1-.12h0l1,.34a6.42,6.42,0,0,1-.65-.11,3.5,3.5,0,0,0-1.57-.31,4.61,4.61,0,0,1-1.08-.19l-3.48-.39Zm15,126.85a1.36,1.36,0,0,0-.19,1.56c.5,1.2,1.12,2.45,1.77,3.78,3.7,0,5.53,0,9.2-.11l-5.17-3.91-5-3.74a2.52,2.52,0,0,1-.66,2.47ZM170.68,132l-7,.16,4.74,3.5,4.9,3.66c1.84-3.07,2.7-4.58,4.35-7.53Zm-7.54,11.6h-7.61c1.9,1.59,3.34,2.8,4.8,4l5,4.23c1.14-1.72,2-3,2.78-4.26s1.59-2.48,2.6-4.11Zm-5-25.62,1.77-.33-1.05-.69Zm-15.88,62.1,1.3,1.5,1.45-1.85c-1,.16-1.87.28-2.8.36Zm46.14-125h0l.85.25a3.71,3.71,0,0,1-.41-.34Zm1.61-.31,2.15.34-.83-.6Zm-9-3.37c.09.5.17,1,.26,1.67l3.84,1.09a2.62,2.62,0,0,1,2,.23l1.06-.21-.77.07c.06-.46.09-.75.14-1.26l1.76,1,3.62-.73L188.29,52l.82,0-4.25-1.15-4.21-1.11c.14.61.23,1.1.32,1.59Zm.55,4.23c0,.53.08,1.06.11,1.78L187,59l2.73-.49-3.2-.52a4.24,4.24,0,0,1,3.47.48l4.37-.82-.62-.18.15.23-.91-.46-.82-.24h.07l-3.46-1,.68.34-1.74-.16,3,1.61c-2.82,0-4.27-.37-4.91-1.27l2,.55.38-.06c-.6-.51-1.24-1-1.78-1.51l-.14-.17-4.9-1.41c0,.64.09,1.16.13,1.69Zm-1.43-8.18c.13.46.25.93.39,1.56l4.91,1.31,1.32-.27c-.82-.29-1.67-.56-2.39-.86-.19-.08-.11-.38.14-.44a5,5,0,0,1,1.61-.09c.28,0,.52.38.95.73L185,49l-.2.1L187,50c1.88-.39,2.79-.59,4.6-1h0l-6.07-1.56-5.85-1.48c.13.59.26,1,.38,1.5Zm-43.84-43-1.84-.53-1.85-.52-3-.29-.44.39.21.06.29.06h0l.75.23h0l2.5.25-.83-.17-.35-.11-.52-.1a3.34,3.34,0,0,1-.43-.17l.67.13c-.31-.1-.82-.19-1.31-.33l1.55.25.16.14,1.41.29v.05Zm-5.16-1c-1-.14-1.09-.17-1-.26ZM188.58,42Zm-6.85,18.12v1.9l5.56,1.81,4.34-.72c-.28-.17-.43-.35-.37-.51s.77-.23,2,.23l1.65-.29-.39-.31-2.86-.9a1,1,0,0,1,.21.5c-1-.47-3.58-.43-3.07-1.39L183.95,59l.23.4h-.58l-.26-.56-1.63-.5C181.73,59,181.73,59.59,181.73,60.16Zm3.63,1.56,1.12-.46,3.41,1.26-.73,1Zm.58-14.92,5.85,1.49c-.28-.63-.42-.94-.71-1.56H191v-.06c-.18-.38-.27-.56-.46-.93h0c-1.81.44-2.74.65-4.64,1.08h0ZM122.58,2.46h0ZM194,56.27a1.93,1.93,0,0,1,.71.41c-.28-1.1-.44-1.64-.77-2.72l-1,.2a.63.63,0,0,1,.26.76c-.06.2-.21.39-.17.6s.09.46,1,.74Zm-.85-3.1Zm-4.06,6.49,6.68,2.06c-.21-1.29-.33-1.92-.61-3.17l-2.54.48c1,.27,1.59.64,1.57,1.09l-2.42-.94Zm-1.76-8.86,6.11,1.66h0c-.38-1.11-.59-1.65-1-2.73h0c-2,.44-3,.66-5.08,1.09h0Zm8.44,22.58h.07l-.19-.07Zm-.66,2,1.36.35V74.58h-.12c-3,.44-4.59.66-7.72,1.07l5.61,2.14s0-.07.1-.11c.78-.61.57-1.44.79-2.34Zm-5.72-10.76,7,2.31c-.08-1-.13-1.54-.25-2.54-.43-.14-.83-.28-1.21-.43a3.81,3.81,0,0,1,.49-.34l-1.21.21.34.08H194Zm-7.94.43c-.06.61-.12,1.22-.23,2l5.8,2,4.43-.66,4.32-.68-7.23-2.42L181.57,63c0,.8-.08,1.41-.14,2Zm7.83,4.87,7.28,2.59c0-1.5,0-2.24-.08-3.69l-7.18,1.06ZM156.62,120l.39.11a3.72,3.72,0,0,0-.08-.54Zm-16.7,50.7-6.19-.32,1.72,2c1.5-.58,2.95-1.16,4.43-1.67Zm27.62-136.5c-.25-.47-.45-.81-.66-1.15l-.69-1.13h0l-2,.44c.26.45.44.79.62,1.14s.36.7.58,1.17l2.14-.45Zm4.65,17.1c0-.63-.05-1.1-.09-1.57s-.07-.92-.14-1.53h0l-3,.44v3.12l3.24-.44Zm-1-7.47h0c-.13-.56-.23-1-.34-1.38s-.23-.81-.39-1.35h0l-2.59.45c.15.62.22.93.35,1.56.66.14,1.69-.16,1.88.63l-1.23-.25a3.24,3.24,0,0,0,.07.71l-.6-.49a3.17,3.17,0,0,0,.1.59Zm.54,16c.11-.72.17-1.26.23-1.8s.11-1,.16-1.75l-3.56.42c-.1.69-.18,1.21-.28,1.74s-.19,1.07-.34,1.79ZM161.48,86.94c.59-1,1-1.79,1.42-2.55s.8-1.49,1.3-2.48l-5.14.26c-.56,1-1,1.71-1.45,2.45s-.92,1.51-1.58,2.53ZM161,78.63c-.37.7-.74,1.4-1.27,2.35l5.07-.27c.47-1,.8-1.67,1.13-2.37s.63-1.39,1-2.3l-4.79.31c-.42.91-.78,1.59-1.14,2.29Zm6.35-39.09c.12.39.24.78.38,1.31l2.54-.45c-.18-.53-.32-.92-.46-1.31s-.3-.77-.51-1.28l-2.38.45c.18.54.31.9.43,1.29Zm1.37,6.86c0,.44.09.88.13,1.48l3-.45h0c-.08-.59-.15-1-.22-1.47s-.16-.87-.28-1.44h0l-2.81.45A6.64,6.64,0,0,1,168.73,46.4ZM152.94,22.71l2.05-.6-.18-.17c-.18.19-.68.09-1.13,0-.69-.22-.76-.45-.51-.65l1.54.61c-.63-.6-1-.9-1.63-1.48H153a.48.48,0,0,1-.07.3h-.18l-.16-.16c-1.06.34-1.61.51-2.75.85l1.83.18c0,.55,1.12.55,2,.92a13.32,13.32,0,0,1-2.14-.22,10.21,10.21,0,0,1-1.73-.88l-1.52.44ZM131.62,11.27c.39-.2.77-.4,1.24-.67h0l-1.13-.67h0l-1.28-.38a3,3,0,0,0,.09.41h-.2a1.08,1.08,0,0,0-.1-.35,11.37,11.37,0,0,1-1.85,1l1,.63.93.64A12.3,12.3,0,0,0,131.62,11.27Zm-2-.51.48.53c-.46,0-.73-.17-.49-.49Zm-.72-2a.55.55,0,0,0,.36.11Zm-1.79-1.15h0L125.89,7l-1.24-.56c-.18.19-.28.29-.49.48l.29.09c-.16.17-.24.33.23.58s.44.44.64.69h-.44a.39.39,0,0,1-.07.27l.52.29c.38-.24.56-.36.89-.6a2.46,2.46,0,0,1-.57-.18.38.38,0,0,1-.14-.26l-.33-.11h.1l.95.19-.14.16L125.82,8l.45.29.48-.36-.34-.08a1.9,1.9,0,0,1-.39-.22h.18l.4.19h.3Zm3.32,1.9,1,.28-.79-.42Zm-1.58-1,.35.08-.41-.2v.12Zm17.11,8,1.43-.56-.61-.41c-.66,0-.76-.11-.91-.34l.6.13-1.34-.87-.33.15h0l-.19,0h0c-.92.4-1.4.59-2.42,1h0a1.48,1.48,0,0,1-.22.18Zm21.47,58.41c.36-.89.62-1.55.87-2.21s.48-1.29.77-2.15l-4.46.35c-.34.84-.61,1.48-.9,2.13s-.58,1.31-1,2.19ZM135.12,11.47l.26.07h-.05l.76.46.69-.35a6.52,6.52,0,0,0-.79-.2h0a2.51,2.51,0,0,1-1-.4l-.69-.1Zm.83,0h0a4.92,4.92,0,0,1,.92.13l.38-.2-1.72-.26a1.43,1.43,0,0,1,.38.31Zm36.22,43.91v-.07c0-.66.05-1.15.06-1.64s0-1,0-1.6h0l-3.29.44c0,.65-.07,1.14-.11,1.64s-.09,1-.17,1.68ZM104,205.6V204l-1.73-.22.92,1.58Zm-9.8-15.35.07-.08a4.34,4.34,0,0,1-.43-.5Zm5.39,9c3.47.37,5.21.55,8.68.9.69-1.7,1.21-3,1.69-4.16a2.16,2.16,0,0,0,.11-.56l-.54-.19,2.16-2.16L103,192l-8.42-1.1L96.41,194h1c.83,1.39,1.7,2.81,1.57,4.22Zm6.56-19c-3.7,2.8-6.89,5.16-10.06,7.48v1c5,1.59,9.29,2.52,13.45.58a16.94,16.94,0,0,1,4.89-1.16c-.2-.57-.48-1.17-.69-1.73a.93.93,0,0,1,.25-.2l-.69-1c-1.17,0-2.4-.13-3.52-.13l.13-.48c-.51.25-1,.49-1.55.79-.77-2-1.18-3-2.05-5.24ZM199,76.44a20.32,20.32,0,0,1,2,.72,34.88,34.88,0,0,1,3.22,1.78c.11-.71.22-1.45.32-2.32l2.74,2.66-3.34.24c1.63.42,3.36.7,2.95,1.44a12.92,12.92,0,0,1,3.18,0c1.62.59,3.23,1.39,3,2.41l-4.74-1,1.75,1.43,7.23,2.91c-.07-1.16-.14-2-.21-2.87s-.16-1.67-.29-2.77l-6.41-2.43-5.39-2-6-2.22c0,.78,0,1.2,0,2Zm-78.75,98.81c.11-.57-.49-1.36-1-2a9.71,9.71,0,0,0-1.14-1.12c-1.38-.09-2.5,1.59-4.39,2.86Zm3.91,7.56c-1.69-1.63-3.25-3.25-3.8-5.07a27.18,27.18,0,0,1-7,.19c1.26,1.7,1.91,2.55,3.19,4.29l2.12-.75a7.77,7.77,0,0,0-.34.92Zm-13.88,1.58,1.9-.65-.17-.23c-.49.29-1.1.58-1.73.89Zm17.44-13.75c-2.24.37-3.83,1.3-6.32,1.57,2.93,1.33,2.83,3.83,5.69,5,.65-1,1.26-1.84,1.81-2.67-.32-1.17-.65-2.38-1.06-3.84Zm2.17-165h0l-.2-.06ZM178,33.27l4.89,1c-.68-.8-1-1.19-1.75-2h0l-.68.22.3.23h-.34l-.28-.14-2.14.67h0ZM165.73,67.8c-.21.61-.44,1.22-.76,2l4.38-.36c.27-.83.46-1.45.63-2.06s.34-1.21.55-2l-4.14.38A10.41,10.41,0,0,1,165.73,67.8ZM189.61,106c.49-1.32.72-2,1.17-3.27l-5.43.44-5.5.42,4.35,2.34c-.25-.93-.62-1.9,1.3-2.5-.45,1.52,2.23,2,4.16,2.61Zm-9.28-69.68,5.11,1.09c-.63-.85-1-1.28-1.64-2.11-1.35.41-2.05.61-3.48,1h0ZM130.66,5.74a2.59,2.59,0,0,1,.46,0l-.3-.11-2.38-.83h-.12L128,4.73l.28.19h-.22l-.43-.26-.75-.08.24.08h.16l.28.18.51.18a10.7,10.7,0,0,1,2.41.54l-.39.14ZM187.73,93.8l2.19-.21a4.57,4.57,0,0,0-1.83.06Zm1.51,4.9,2.49,1.23c.31-1,.46-1.47.75-2.43l-.51.07-2.74-2.39-6,.55,5.59,2.74h.34Zm-6.81-59.09,5.3,1.19-.57-.88a5.54,5.54,0,0,1-1.07-.4l.13-.13.71.18-.52-.77h0l-.44-.17-3.56,1h0Zm7.47,4.83h0c-.29-.55-.44-.82-.75-1.35l-.34-.08.19-.17-.42-.72h-.16c-1.6.41-2.43.62-4.11,1h0Zm4.56,29.14-1-1h.11l-6.37-2.29-6.13-2.17c-.12.85-.23,1.49-.35,2.14s-.24,1.31-.43,2.2l6,2.27c3.33-.47,5-.69,8.17-1.16Zm-77.9-70h0l.07.15h.2Zm1.53,1.15L118,4.9h.14V4.69h-.06ZM116.3,4.4Zm2.46.43-.25-.08h0a.8.8,0,0,0,.22.11Zm.42.17h-.09l-.19-.08.05.12ZM115.6,3.53l.07-.05h-.22Zm1.49,1Zm9.44-2.73h0ZM116.3,3.2h0l-.24-.09.09.1Zm3.31,2.19.06-.08a3.84,3.84,0,0,0-.48-.28l-.2.12a9.86,9.86,0,0,1,.94.8.1.1,0,0,1,0,.05l.33-.36a2.2,2.2,0,0,1-.64-.25ZM115.21,4ZM123,1.41h0l.14-.07-.43-.14a.39.39,0,0,1,.16.11h0Zm0,0h0a.47.47,0,0,0,.23.15h.45Zm1.37.17.07.09.92.08-.93-.21Zm2.54.32Zm-12,1.46h-.08c.06.05.11,0,.06,0ZM124,7.08c-.22.19-.33.29-.58.48h0l.17-.14.43.16a3.67,3.67,0,0,0,0-.5ZM119,4.3h-.14l-.34-.07h0c0,.1-.2.11-.45.1v.05h.34a6,6,0,0,1,.79,0l-.47.3a5.64,5.64,0,0,1,1.14.46L120,5l-.82-.38,1.18.29-.14.14.15.11.32.14V5.26h-.09c-.11,0-.14-.12-.21-.18l.4.06h0l-.3-.19-.38-.17h.19l-.21-.13V4.56l-.28-.06-.25-.14ZM117.6.2l.15-.06h-.22Zm-.68,4.36h-.18l.18.08h0a.15.15,0,0,1,0-.07Zm0-1.17v.15h0l.06-.13Zm3.2-1.89a1.13,1.13,0,0,0,.21.15l.35.07Zm.81.19a.53.53,0,0,0,.16.11l.52.1-.26-.1a.12.12,0,0,0,0-.08l-.27-.07-.36-.09a.85.85,0,0,1,.18.15Zm.82.29h0l-.38-.13h-.15c.22.09.53.16.77.24h.12ZM120.53,4.5h0l-.14-.09-.37-.1Zm.1-2.7.63.31h0c.05,0,.17-.07.08-.12l-.6-.25-.39-.06Zm2.59.39h-.34l.09.11h.3Zm-.8.21Zm.76-.24a2.07,2.07,0,0,0-.44-.18l.1.11Zm1.79.79Zm.16.17L125,3h0l-1-.19h.16l.44.22h0l.5.11Zm-5.18.7,1.28.16c-.41-.12-.86-.2-1.25-.32l-.29-.1,1.46.28v0c-.25-.06-.5-.1-.74-.17l-.32-.1h-.39l-.22-.18h-.21a.12.12,0,0,1,0,.08l.37.12-.24-.06h-.13Zm-1.09-.95Zm2.42,1.33h0l-.41-.05Zm-.7-.14h0Zm4.94-.95L125.34,3l-.1.05Zm-3.42-.58h0a.38.38,0,0,1,.12-.08h-.09a4.31,4.31,0,0,1-.52-.14h-.29Zm2.64.27.23.14h0l-.1-.13Zm2.76.73h.13l-.51-.1v.09Zm-4.08-.6a3.24,3.24,0,0,0-.58-.27l-.11.14Zm-5.21,2.26h0V5H118l-.06.15.26.11ZM140.44,7.8l1.63.18-2.64-1a3.3,3.3,0,0,1-.15.49l1,.26Zm-4.29-1.3,2.2.57a6.62,6.62,0,0,1-.87-.1l-1-.29h-.12c-.24-.07-.5-.14-.7-.22h0l-.61-.07a3.41,3.41,0,0,1,.44.14c.14.06.14.13.15.18h0a7,7,0,0,0,.91.2c.49.08,1,.14,1.53.26l.41.1a3.3,3.3,0,0,0,.14-.53Zm3.06,1.16.71.08-.68-.15Zm-1-.16h-.5l.63.07V7.51Zm-1.73-1.26.31-.18-1.45-.49a2.81,2.81,0,0,1,0,.63l1.34.14c-.14,0-.24-.06-.22-.08ZM125.73,1.65l.64.08L125,1.39c-.52-.07-1.11-.19-1.68-.3h-.08l.39.12.47.17.56.08h0l.8.18-.29-.1h.13l.48.11Zm3.5,1.4L126.9,2.8h.16l.66.12h-.16l.74.21h.44L128.31,3l.47.07c-.05.06.14,0,.41,0Zm-7.5,1.88h.15l-.12-.07Zm-7.06-1.22Zm15.58,2.94c-.14-.21-.28-.39-.44-.59h-.12l-.23.31Zm-7-2.42L122.51,4c0,.1.09.19.13.28h-.11l-.37-.31a.3.3,0,0,1-.07.23l.15.05-.19.21H122v.11l.42.16L122,4.58a3.47,3.47,0,0,1-.17.32h0l.43.15h.06V4.91a2.68,2.68,0,0,1,.41.18l.52.07L123.11,5l.35.14h.22l-1.18-.56a.55.55,0,0,0,.27,0l-.57-.19h.12l.3.09.24.08a.59.59,0,0,1,.41-.05c-.23-.15-.24-.24,0-.33ZM132,7.7l-.11-.12-.73-.31A3.78,3.78,0,0,0,130,7.1c.32,0,.58.08.37.32a1,1,0,0,0-.27-.08l1.16.49-1.12-.14a.62.62,0,0,0-.07-.36,1.73,1.73,0,0,1-.59-.15h0a3.65,3.65,0,0,1-.55-.08L128.82,7l-.56.51c.07.05.13.1.13.14h0l3.09.43.21-.18-.14-.07a2.29,2.29,0,0,1-.56-.42l.9.31Zm-8-1.5h0l-.28-.12v.14a3.06,3.06,0,0,1-.4-.16l-.66-.42h0l-1.21-.5a3.19,3.19,0,0,1-.23.32h.15c.23.17.45.34.73.57-.48-.14-.8-.23-1.09-.33h0l-.12.14c.66.35.75.49.61.88-.29-.26-.1-.54-.74-.74l-.1.1c.06.08.2.19.13.22a.37.37,0,0,0-.16.09l1,.5,1,.51a8.88,8.88,0,0,0,1.12-1h-.09a5.58,5.58,0,0,1-.38.47l-.41-.07a.63.63,0,0,0-.07-.34l.34.06c-.27-.12-.24-.26-.69-.38s-.19-.29,0-.39c.43.13.65.25.62.41s0,.19.48.2l-.33-.12.24-.09.49.16Zm.36-1.46a2.14,2.14,0,0,1-.06.21c.29.07.51.06.47-.07s0-.08,0-.08Zm6,.2a.16.16,0,0,1,0,.12l.41.11a.16.16,0,0,1-.16-.11L130.31,5h.55Zm.91-.09,2.61.27-1.58-.51v.05h-.53l-.53-.16v.19l.38.15h-.35Zm-.07.37h0l.24.06h0ZM125,3.8,125,3.74l-.1.1Zm0-.15c.48.22.86.45,1.29.67h.13l.34.07h.36c-.33-.08-.78-.17-1-.24s-.22-.16-.33-.24l-.14-.06L125,3.64h0Zm-4,1a3.16,3.16,0,0,0,.19-.38l-.7-.19.61.31-.24.21Zm-.4-4.14h0Zm-.26.72h0ZM128,2.4h0l-.45-.05.32.12h.1ZM117.43.26h0Zm2.66.29L118.91.24l.1.21-.6-.13h0l.27.06Zm-.49.09h0Zm2.66.36.27.12h.39L122.46,1Zm-.84-.44h.23l-.36-.08h0a1.11,1.11,0,0,1,.23.11h.14Zm.47.38V.85h-.24Zm6.41,5.61Zm-6.57-3.93-1.34-.4h-.29a.32.32,0,0,0,0,.08l-.51-.08h-.05l.94.28c-.16-.09-.2-.17-.1-.24l.53.38.33.1.24.07h0l.37.09.07-.05.17.06a.25.25,0,0,0,.15-.08l-.51,0Zm3.48,2.09.05-.13a2.48,2.48,0,0,1-.44-.34h-.09c-.07.11-.35.1-.72.08Zm4.43,2.19a2.48,2.48,0,0,0-.06-.29l-.24-.1-.14.16h-.06l-.07.08Zm-.46-3.1-.24-.17L126.84,3a3.54,3.54,0,0,1,.24.42c.4.05.88.14.83,0l-.2-.07h.09l-.07-.07.72.14.38.23h-.35l.39.06Zm-.14,3-.09.09.43.06Zm-.84-3.15Zm1,.1h.41l-.28-.08Zm1.94.68,1.09.17-1.15-.36Zm-.92-.4H130l.3.09Zm7.55,242.28c4.39.35,8.79.67,14.37,1-2.34-1.26-4.71-3.15-6.24-3.22-3.25-.16-6.12.61-9.14,1,.36.41.7.82,1,1.22ZM53.85,175.8l.78-1a3.6,3.6,0,0,0,.17.76c.49-.11,1-.2,1.49-.27L59.44,173l-4.21-.74c-2,1.24-4.21,2.56-6.47,3.91l.69.84C51,176.69,52.38,176.18,53.85,175.8Zm-12.61,8,2.22.46L45.34,183Zm122.37-150c-.17-.35-.34-.69-.58-1.14l-3.8.79-4,.78h0l2.77.68,2.83.7,2.79-.55-1.21-.82.28-.08,1.41.8h0a7.51,7.51,0,0,0-.48-1.24Zm-7.78,5.83,3.07-.51-.06-.14c-.05-.24-.75-.5-1.14-.75h.12l-2.21-.58c.12.7.12,1.1.22,1.91Zm-.41-3,4.14-.75h0L155,34.75a16.08,16.08,0,0,1,.42,1.78ZM26.1,185.28a10.56,10.56,0,0,0-6.09,3.6l1,.83Q23.63,187.48,26.1,185.28Zm16.74-13.61a22.31,22.31,0,0,0,5.89,2.06,2.72,2.72,0,0,0,3.28-2c-3.19-.58-4.77-.87-7.93-1.47-.35.46-.81.94-1.23,1.41Zm8.75,6.91c-4-.06-8-.19-12-.36l-1.23,1.88h.17c3.47.15,6.8-.11,10.17-.23h1l1.91-1.32ZM31.41,185.4q-4.87,2.4-9.82,4.75L24,192.08c2.15-1.21,4.31-2.42,6.39-3.61l1.74.81-3.6,3.52,2.74-.36L34.9,190q-.15-.32-.33-.63L37.92,188l1.27-.86L34.36,186l-.26.39-.49-.55ZM154.09,53.53c2.47-.27,3.7-.41,6.11-.7h0L154.8,51C154.55,52,154.41,52.51,154.09,53.53Zm13-3.12V48.87l-5,.67-5.12.65.81.8-.37.07L162,52.6,167,52a8.09,8.09,0,0,0,.16-1.57ZM160.33,38.8h0l-2.22-.59,1.67.69Zm-4.84,11.58h0l1.59.52-.64-.65ZM38.92,175.63l1.6-.53c-.1-.61-.75-1.21-2-1.73a4.12,4.12,0,0,0-2.84,1ZM152.65,57.56c2.66-.26,4-.39,6.57-.66l-5.57-2C153.28,55.95,153.08,56.48,152.65,57.56Zm3.08-11.42c2.13-.29,3.19-.43,5.26-.73h0l-5.06-1.5C155.85,44.8,155.81,45.23,155.73,46.14Zm4.55-9.88c-1.27.24-2.57.47-4.33.78h0l2.87.74,2.93.77,3.6-.65c-.17-.5-.3-.87-.44-1.24s-.28-.73-.48-1.21c-1.7.35-2.9.58-4.17.81Zm-5.16,13.46.7-.09-.56-.56c-.07.27-.1.4-.16.65Zm.15-.71.5-.08.65.62,4.37-.56h0l-5.23-1.65c-.12.67-.18,1-.31,1.68Zm11.56,5.39c.06-.5.11-1,.17-1.64l-5.19.64-5.33.61h.07l-2.12.23,3.38,1.19,3.46,1.24,5.32-.6C166.73,55.4,166.73,54.9,166.83,54.4ZM155.9,40.63h0v2.1h0l4.87-.75h0Zm2.72-10.14-2.93.63h-1.87l.09.23,2.87.66,2.93.69,3-.64-.63-1.1c-.19-.33-.39-.65-.67-1.08ZM152.14,59H152c-.49,1.12-.76,1.69-1.33,2.83,2.85-.24,4.26-.36,7.05-.62l-5.52-2.13h0Zm1.11,11.68-6-2.7c-.79,1.27-1.2,1.91-2.08,3.2,3.25-.17,4.87-.27,8.08-.49Zm5-11.73c.52.51.17.87-.6,1.13l2.28.88,5.73-.57c.18-.72.3-1.25.41-1.78s.22-1,.34-1.74c-2.63.3-4.64.51-6.67.72s-4.08.42-6.86.68L157,59.9l.59-1Zm-11.9-38.92c.53.54.79.82,1.29,1.37l1.92-.57-.17-.25Zm-3.58-5.21-3.24-.52c.66.46,1,.7,1.6,1.17h0c.75-.26,1.07-.38,1.69-.64ZM12.29,173.48c.09-.21.16-.41.25-.62l-1.34.76ZM153,29.26c.32.67.48,1,.76,1.69l3.49-.75ZM10.66,180.55l-1.27-.31.44.36ZM47.8,159.11c.27.23.59.44.84.67-.4.81-1.22,1.76-1.49,2.54.83,2.21,1.24,3.34,2.07,5.65,5.53,1,8.32,1.47,13.92,2.41L67.73,167c-.89-.35-1.81-.76-2.84-1.28l4.5.05,1.08-.79,1-1.21.28.27L73.16,163c-2,.09-2.82-1.22-1.53-3.56h-.34c-1.57.69-5.06.2-7.81.18l2-1-6.86-1-6.79-1.07-2,1.05-.43-1.45-1.58-.35a6.22,6.22,0,0,1-.27,1.79l5.67.24.61,1.27A18.91,18.91,0,0,0,47.8,159.11Zm14.77,2.5h1.32q-1,3.63-2.2,7.45l-2-.06q1.48-3.79,2.84-7.38Zm-11.5,1.08,6-.07.55.7-6.69,3.31-.93-.52c.33-1,.66-2.08,1.07-3.41Zm-5.68-7.34-1-.16.14.35.45.06ZM30.54,179.13l-1.73,1.39c0,.23.07.35.13.58l1.6.35,1.11-.94A3.32,3.32,0,0,1,30.54,179.13Zm2.71,0c.76-.66,1.5-1.33,2.29-2,.13-.1.31-.17.45-.26l-1.39-1.41A11.63,11.63,0,0,1,33.12,177l-1.94,1.56,1,.27ZM18.1,185l-.55-.23c-.38.38-.74.78-1.1,1.18l1.49,1.21v-.06c.09-.73.13-1.39.17-2.1ZM44.84,156.3a5.68,5.68,0,0,0,.13-.62l-.3.19Zm.23-.69H45v.05ZM41,158.45l-.31-.09-3.13,1.95a10.35,10.35,0,0,0,3.94-.42ZM27.46,167.8a16,16,0,0,1-1.68-.06l.48,1.92h.22C26.81,169.06,27.14,168.43,27.46,167.8Zm72.16-50.45,2.18,2.26c.32-.72.63-1.42.91-2.08Zm46.29-43.42c-.06.68-.12,1.38-.21,2.25l4.38-.22ZM144.79,98c.69-.86,1.37-1.7,2.24-2.82l-7.55.09h-14.3L129.06,98l4,2.86h9.31c1-1.1,1.73-2,2.43-2.84Zm5.31-6.9c.58-.79,1.14-1.58,1.87-2.62l-3.54.1c1,.9.33,1.69-1.83,2,.38-.7.73-1.35,1.06-2l-7.47.18c-2.25.05-4.51.09-7.54.13a1.16,1.16,0,0,1,.08.87L136,91.86,139.34,94c3.5,0,5.25-.06,8.72-.13.86-1.07,1.46-1.9,2-2.7Zm4.4-6.41c.48-.74.94-1.47,1.53-2.44-3.77.17-6.63.29-9.51.39s-5.77.2-9.67.31l3.85,2.2,4,2.3c3.28-.09,4.91-.14,8.16-.25.67-1,1.16-1.73,1.65-2.44Zm-54.4,57.11c1.53-1.27,3-2.54,5-4.2l-6.59-.56a1.88,1.88,0,0,0-.25.36l-1.4-.29.2-.19c-4.31-.38-6.46-.59-10.75-1l-.19.26v-.28l-5.48-.55c-.32.59-.65,1.16-1,1.74h0l1.84,1.7a15.63,15.63,0,0,0,1.61-.14l-.91.79.35.33a2,2,0,0,1-.65-.07L80,141.36,81.07,143h.07a18.94,18.94,0,0,1,1.3,1.84l.45.05q.4-1.11.78-2.22l1.39.06c-.29.76-.58,1.53-.88,2.3,4.25.48,6.39.7,10.66,1.15,2.14-1.72,3.72-3,5.27-4.31ZM138.86,105a9,9,0,0,1-.91-1.22,1.59,1.59,0,0,1-.22-1.36h0c-4,0-6.95,0-9.94-.08s-6-.08-10-.16l3.86,3,4,3.2c4,.09,6,.13,9.93.19,1.38-1.4,2-2.12,3.29-3.53Zm-16.61,17.15c1.13-1.08,2.24-2.15,3.68-3.56-3.92-.15-6.86-.28-9.81-.41s-5.88-.28-9.81-.49q-1.57,1.59-3.24,3.21c1.3,1.36,2,2.06,3.28,3.46a7.8,7.8,0,0,1,2.42-1.13c-.23.67-.44,1.34-.67,2,4.1.26,6.14.38,10.24.6,1.6-1.45,2.77-2.55,3.91-3.64ZM112,131.6c1.32-1.17,2.61-2.33,4.29-3.87-3.55-.21-5.32-.32-8.87-.55-.4,1.16-.81,2.34-1.27,3.61a5.32,5.32,0,0,1-1.44-3.79c-3.27-.22-5.71-.4-8.16-.59s-4.88-.37-8.13-.64c1.38,1.68,2.43,3,3.49,4.3s2.16,2.69,3.62,4.55l3.52.3L101,133l-1.56-.88.25-.23c.71.15,1.76.16,2.08.46,1.23,1.16.5,2-.61,2.76l6.32.51c1.87-1.57,3.27-2.79,4.56-4Zm19-18.11c1-1,1.92-2,3.14-3.29-3.29-.06-6-.13-8.61-.19l-7.53-.22c-2.57-.08-5.33-.18-8.64-.31,2.17,1.93,3.26,2.92,5.49,5a5.54,5.54,0,0,1,3-2.15c-.48,1.37-.9,2.51-1.33,3.69l.55.5c4.23.18,6.34.26,10.56.4,1.4-1.37,2.4-2.38,3.37-3.39Zm10.13-11.07h-1.72l-.72.45c.3.31.79.65,1.18,1ZM29.3,163.18l.52.11.31-.6Zm21.33-13c1.14-.11,2.69-.76,5.34-2L59.35,150c-.81-1.64-1.2-2.44-2-4-2.62,1.66-4,2.51-6.72,4.23Zm-4.15,2.62,2.11.34-.43-1.34ZM102,114.54l-.12.54h-.58l-.76.59,2.94.16c.21-.47.41-1,.61-1.44l1.46,1.55,7.56.37-3.14-2.93-3.05-2.81c-1.92,1.6-2.9,2.39-4.92,4ZM151,77l.81,1.13-1,.17L150.13,77c-3.06.16-4.6.23-7.7.36a1.35,1.35,0,0,1,.07.62l3.26,1.7,3.35,1.77,6.5-.29c-1.08-.66-.74-1.77-2-2.3l.52-.19,1.63,1.18,1.64-.31v.29c.78-1.35,1.15-2,1.84-3.33-3.18.19-4.85.27-8.2.46ZM76,160.9a4.66,4.66,0,0,1-.27-.88l-2.37-.34c.14,1,.26,1.91.39,2.9Zm-15.74-9-3.58,1.9,5,1.16c-.57-1.23-.86-1.84-1.46-3.06Zm-4.4,2.39h.24v-.15Zm7.82-8.12c.23.37.63,1,1.07,1.76l-1.73.5c1.52,2.92,2.28,4.42,3.83,7.51,5.28.76,7.93,1.13,13.26,1.84,1.86-1.42,2.78-2.12,4.58-3.52a23.94,23.94,0,0,1-3.73.27l-.06.31-1,.09-.43-.43a17,17,0,0,1-8-2.34l6,.33-1.35-1.36,5.54.19c-.09.46-.19.92-.29,1.37l5,.23c2.3-1.8,3.43-2.69,5.64-4.46-3.54-.39-5.3-.58-8.83-1l-.75,1.89-1.19-.07.71-2-7.27-.85-7.24-.92Q65.63,145.93,63.73,146.17Zm77.73-69.76,3.75-.17c-.51-.16-.85-.24-.83-.31a18.67,18.67,0,0,1,.88-2h.59L144,73c-1,1.32-1.51,2-2.57,3.38Zm24.07-31a2.86,2.86,0,0,0,.4.81,6.79,6.79,0,0,1-1.6-.63l-3.45.5c.14.33.28.68.48,1.18-.64-.24-1.32-.37-1.38-.53s.05-.36.18-.55l-4,.55h0l3.18,1,3.25,1,4.58-.63a8.47,8.47,0,0,0-.08-1.48c-.08-.48-.07-.87-.13-1.45ZM137,81.91c3.72-.11,5.58-.17,9.25-.32l-4.32-2.3a5,5,0,0,1-.48.48l-1.68-1.17C138.66,79.91,138.11,80.57,137,81.91ZM125.52,94.06H136L132.79,92l-3.15-2c-1.57,1.59-2.4,2.42-4.12,4.1Zm6.21-6.26c4-.06,5.94-.1,9.87-.19-2.46-1.45-3.67-2.16-6.06-3.54a2.43,2.43,0,0,1-.67.3C133.62,85.72,133,86.4,131.73,87.8Zm9.86-10.35h-.12l.13.07-.05-.09Zm6.68-11c3.05-.22,4.57-.33,7.56-.57l-5.88-2.44c-.67,1.14-1,1.74-1.72,3ZM165,63.25c.17-.56.33-1.12.53-1.85-2.84.29-5,.49-7.17.69s-4.39.39-7.37.64l3.57,1.45,3.66,1.51,6.17-.53c.22-.82.35-1.36.57-2Zm-3.94,10c.31-.64.6-1.28,1-2.12-3.28.24-5.77.41-8.28.57s-5,.32-8.46.51L149,74l3.77,1.81c2.86-.16,4.29-.24,7.11-.42.45-.84.8-1.49,1.08-2.14Zm-4.71-6.53c-2.35.18-4.71.36-7.9.58l3.66,1.61,3.76,1.67,4.87-.35c-.59-.29-.72-.72-.34-1.36l1.51,1.27h.58c.35-.82.6-1.43.83-2s.46-1.19.74-2c-3.1.2-5.42.38-7.76.57ZM89.55,124l4,.3c-.09-.32.11-.77.83-1.45,1.21.75,6-.21,4.18,1.81l4.32.3-2.49-2.71c-1.76-.25-1.93-1-1.72-1.86l-1.75-1.88C94,120.67,92.58,121.8,89.55,124Zm-10.7,7.64L77.94,133c3.15.32,4.73.48,7.89.78-.06-.63-.14-1.27-.22-1.94-3.36,1.16-4.36.48-4.35-1.5,0-.09-.11-.18-.16-.27ZM76.6,135l-.16.24.62-.2Zm41.75-34.19,5.6.09,5.58.06-3.23-2.34-3.14-2.25C121.3,98.1,120.34,99,118.35,100.8ZM83.21,128.56a1.19,1.19,0,0,1-.12.28c-.87,1.1.69,1.65,2.82,1.89s2.62,1.31,1.73,3.21l3.4.31c-1.15-1.51-2-2.62-2.86-3.71S86.5,128.39,85.4,127ZM62.73,142.48l1.46.19a9.26,9.26,0,0,1,2.14-1.28c1-.46,1.34-1.53,2-2.37l4.86,3.33c-.65.38-1.33.8-2,1.21l6.24.75L77,143.6l-.82-.09a2.46,2.46,0,0,0,.33-.7c-1.44-2.3-2.15-3.42-3.56-5.61l-1.15,1.94a3.42,3.42,0,0,1-1.54-1.63C67.34,139.47,65.83,140.47,62.73,142.48Zm-.22,2.38-1.48-.2,1,1.91a10.62,10.62,0,0,1,.5-1.71ZM110,108l5.94.2,5.93.17-3.2-2.62-3.11-2.51c-2.13,1.88-3.24,2.83-5.54,4.75Zm4.81-3.69c2.21.46,2.27,1.4-.44,3.25.21-1.37.33-2.32.46-3.26Zm21.54-89.66c.54-.21,1.05-.42,1.71-.71h0l-1-.69-1-.68c-.58.28-1,.49-1.53.7s-1,.42-1.68.7l.83.69.81.71c.79-.3,1.34-.56,1.88-.73Zm15.73,8.31-3.79-.73c.49.57.72.86,1.17,1.44l1.48-.4-.81-.25c-.23-.07-.42-.17-.64-.26v-.13a5.16,5.16,0,0,1,1.06.09l1.08.38Zm-106.54,121,2.27-.49c-.12-.32-.25-.64-.39-1l-2.29-.33c.17.59.28,1.19.43,1.78Zm-39,28-5.7-1.57-.94.68a7.5,7.5,0,0,1,.4,1.89L2,174.36h.08Zm48.66-28.42-1.15-.16-.67,1.29ZM26,159.36l-1.32-1.22-1.39,1.52C24.27,159.59,25.17,159.49,26,159.36Zm3.49-4.88c.74,1.31,2.14,2,4.28,2l4.58-2.68-2.93-.5-.74,1.35ZM17.44,157H16.5c-.19.48-.38,1-.6,1.44A8.48,8.48,0,0,1,17.44,157Zm9.22-5.25a3.1,3.1,0,0,0,0,2c.42-.59.71-1.21,1.07-1.79ZM11.78,164.69a27,27,0,0,0-6.26,2.67l4,1.23.5-.84-.12-.12.23-.07Zm8-6.09-3.69,1.28h4l.86-1.08Zm22.75-27.74,1,.11-1.46.79c-2.15,2.09-4.45,4.24-6.94,6.56l6.5,1-.06-.21a2.22,2.22,0,0,1,.79-2.4c.66,1,1.4,2,2,3l2.22.31a8.25,8.25,0,0,1-.37-1.5c-.1-.79.92-1.82,1.76-2.66a28.37,28.37,0,0,1,3.42-2.33l-3.49.57a2.14,2.14,0,0,1-.81-2.75l-4.58-.59v.06c0,.06,0,0,0,.05ZM25.11,157.75l1.77.07c0-.49-.07-1-.11-1.53h-.33ZM94,104.29l-1.58.12c.06.87.12,1.76.18,2.65l1.49.07a8.3,8.3,0,0,1-.26-1.32A7.9,7.9,0,0,1,94,104.29Zm-13.22,7-.91.12c.53,1,1.65,1.92,1.46,2.93l3.78.25a1.4,1.4,0,0,1,.08-.34Zm-14.66,22.3c.13.37.25.75.39,1.18a19.75,19.75,0,0,1-2.92-1.46l-3.35-.38a16.25,16.25,0,0,0-.54,2l-2.84.08c-1.22,1.27-2.4,2.49-3.91,4,1.45.56,1.9,1.3,1.89,2.14l3.33.44h.18c2.45-1.55,4.24-2.71,6-3.85S67.79,135.48,70,134ZM87.63,102.2a8.52,8.52,0,0,0,.17-.85L86,102.58c.13.11.29.22.4.33C86.82,102.68,87.57,102.43,87.63,102.2Zm-64.31,49-1.71-.31a9.59,9.59,0,0,0-4.12,4,3.67,3.67,0,0,1,.91,1.5l1.68-1.17-.07-.16h.29c1.62-1.21,3-2.43,3-3.89Zm-13,18.74c-1.68-.09-3.37-.18-5.14-.29l2.21,1.91Zm4.23-3.59h0l.86.74h0Zm28.14-23.87h-1.4q-2.12,4.07-4.46,8.4l3.91.64,3.78-2.88-.64-.23L40.2,150c.77-1.52,1-2.86,1.77-3.79l-.29-.15h.4a2.93,2.93,0,0,1,.47-.45c2.62-1.69.88-2.27.1-3.18Zm100.69-98-.38-.31-.11.37Zm6.12-3.35c-2.32.35-3.5.52-5.9.86h0l-.09.36.51-.23c.13.38.21.61.28.84l-.33.14-.59-.25-.1.39a9.4,9.4,0,0,1,1.29.24l1.06.71,3.42-.47,3.34-.48c-.52-.26-.8-.6-.61-.92l1.49.79,1-.15h.07V40.38l-4,.63v1c-.88-.52-1.15-.76-.88-.93ZM73.73,110.68l.89-.17-.2-.45-.8.5Zm65.58-51.24-4.58.36c-.48.66-.85,1.15-1.23,1.65s-.77,1-1.32,1.69c3.3-.22,5.75-.4,8.17-.58s4.82-.37,8-.64h.1c.36-.67.61-1.17.86-1.67s.49-1,.79-1.63L150,58.5,145,59l-5,.43,1.16,1.73-.77.12c-1.63-.44-1.24-1.14-1.07-1.8Zm-5.16,2.36,1.48-.94.54.16C136.09,61.94,136.09,61.94,134.15,61.8Zm7-13c-.44,1-.68,1.48-1.2,2.49h0l4.09-.44L142.42,50c.9.15,2.07.19,2.2.77l3.69-.42-1.54-1,.47-.31c.54.45,1.73.69,2,1.23l3.84-.46h.08c.15-.59.25-1,.34-1.46s.18-.86.28-1.43l-4.05.56-4.19.52h1a1.33,1.33,0,0,1,0,1c-.08.14-.7.22-1.25.26.4-.41,2.06-.76-.66-1l.47-.16-3.74.44v.08a4,4,0,0,1,.84.13Zm7.29-.22.58-.13.92.88a2.64,2.64,0,0,1-.72.14c-.78-.14-1.16-.43-.74-.84Zm-6.81-.78Zm-10.9-35.53.9.66.87.67,1.62-.69c.46-.2.91-.41,1.47-.69h0l-1.5-.92-.28-.11h.13l-.5-.29-.47.25,1.46.54a2.38,2.38,0,0,1-1.57-.48C132.05,11.64,131.62,11.85,130.73,12.27ZM144.22,32.8h0l1.54-.29-.22-.16a1.68,1.68,0,0,1-.39-.56.6.6,0,0,1,0-.38.85.85,0,0,1,.36,0,1.36,1.36,0,0,1,.5.32c.09.16,0,.33.07.58l.43-.25a1.62,1.62,0,0,1,.38.25h0l2.86-.56,2.77-.56h.05c-.16-.42-.29-.74-.42-1s-.26-.62-.45-1l-1.8.39.69.82c-1-.21-1.32-.36-1.06-.74l-2.54.53.33.21-.18.16a7.05,7.05,0,0,1-.93-.21l-2.29.46.06.3C144.09,31.69,144.14,32,144.22,32.8Zm2.61-2.13,1.81.17-1,.18.31.43c-1-.12-1-.12-1.12-.82Zm-21-21.47,1,.6,1,.61c.49-.26.83-.46,1.16-.66s.64-.39,1-.65h0L129.45,9l-.38.43h-.2c0-.23-.61-.42-.53-.66a4.54,4.54,0,0,0-.48-.24h-.13a2.38,2.38,0,0,0,.07.4c-.4-.13-.62-.29-.7-.49a10.89,10.89,0,0,0-1.24.74Zm1.26.7c-.12-.31-.49-.58,0-.79.12,0,.05-.17.07-.26l1.14.39a4,4,0,0,1-.56.31,3.24,3.24,0,0,1-.59.07l.33.19Zm9,7,.34.35.4-.13ZM118.47,78.26h-.81c-.9.82-1.36,1.23-2.31,2.06-.07.64-.15,1.28-.25,1.93h3.58l.09-.1-2.13-.75c.44-.71.93-1.49,1.48-2.4,1.94.63,2.39,1.19.72,1.72a16.21,16.21,0,0,1,1.25,1.51l6.93-.15,6.87-.19H134c.8-.9,1.38-1.57,1.95-2.23s1.12-1.31,1.83-2.17l-3.76.15h0c-3,.12-5.26.19-7.53.27s-4.56.14-7.62.21h0Zm-61.56,42.6.42-.45-.73.42ZM142.79,26.8c.11.28.21.57.34,1,1.46-.31,2.52-.55,3.56-.79l3.37-.8h0c-.23-.38-.41-.66-.59-.94s-.37-.55-.63-.92c-1.32.34-2,.52-3.39.86l1,.1a1.91,1.91,0,0,1-1.51,0l-2.6.61A4.57,4.57,0,0,1,142.79,26.8ZM25.56,139.14l-1.94-.34-1.68.86c.14.16.22.32.13.47-1.34,2.37-3,4.8-4.75,7.3l.79.14C20.62,144.8,23.06,142,25.56,139.14Zm4.59.73c1.11.27,2.35.41,2.33.69a2.87,2.87,0,0,1-1.36,2.24c-2,1.21-4.56,2.17-6.75,3.34-.21.11-.44.25-.66.39a22.94,22.94,0,0,1,3.56.92l3.09-3.26,1,.07c-.07.54-.16,1.09-.25,1.72l2.5-.56c-.2,1.4.31,2.66-3.69,2.86a2.93,2.93,0,0,0-1.86,1.07l2.21.38A19.3,19.3,0,0,0,34,148c2.12-2.13,3.69-4.44,6.35-6.18a5.72,5.72,0,0,0,.47-.38c-4.31-.62-6.43-.94-10.64-1.6ZM26.73,148l-4.51-.33a.79.79,0,0,0-.26.53c0,.15.07.08.09.12l3.75.67ZM133.29,68.13l-5.69.31c-.67.73-1.19,1.29-1.72,1.85s-1.08,1.13-1.83,1.89l4.71-.2,4.67-.22c-.58-.14-.94-.62-1.1-1.53l2.17,1.48h0l2.61-.14.16-.49c1.91,0,2.83-1.26,1.23-3l2.21.3c-.48,1.05-1,2.07-1.48,3.11l3.19-.18h.11c.57-.79,1-1.38,1.37-2s.78-1.16,1.27-1.92l-5.48.36-5.56.34a3.07,3.07,0,0,0,.07.42l-.79.11C133.36,68.45,133.33,68.29,133.29,68.13ZM98.45,94.89H97c-1.35,1-2.38,1.72-3.43,2.47S91.48,98.8,90,99.8l7.26.25c.63-.44-2.19-1.23,1.25-1.8A6,6,0,0,1,99,100.1l5.78.16,5.77.13h.29L109.93,99l.92-.28c.76.59,1.87,1.16,2.53,1.77h1.44c1.26-1.09,2.18-1.91,3.08-2.72s1.77-1.59,2.91-2.64c-3.8,0-5.7,0-9.53-.07-.28.49-.43,1.08-1.09,1.35-1.71.7-3.77,1.19-6.25,1.9v.79l.52.27,1.21-.85.49.24c0,.31.19.79-.1.89a6.79,6.79,0,0,1-2.52.46,10.54,10.54,0,0,1-2.8-1.94c-.2-.19.58-.66.83-.92-.17-.16-.19-.23-.25-.23-4.59-.2-4.11-1.12-2.86-2.11ZM59.11,119.38l-1.37.8,1.51.34A1.44,1.44,0,0,1,59.11,119.38Zm-3.75,3.14-1.41-.15c-2.18,1.25-3.84,2.19-5.53,3.13s-3.43,1.92-5.79,3.21l5.92.74c1-.91,2.29-1.81,3.31-2.73l1,2.16L55,127.73,56.58,129c1.84-2,3.48-3.77,5.14-5.59l1.8,1.1c-2.4,1.42-4.1,2.68-3,4.66a2.78,2.78,0,0,1,.2,1.72l3.26.36a10.59,10.59,0,0,0,.58-.92l.53.21.3.87,7.24.75h0c.27-.29.53-.57.85-.88a14.55,14.55,0,0,1-3.26-1c-.66-.41-.62-1.16-.89-1.75l1.33-.28,1.13,1.56H76l-1.14,1,3.69-2.51c-.21-.11-.42-.22-.61-.34,1.25-.92,2.56-1.89,3.94-2.93-4.68-.39-8.18-.7-11.67-1s-6.95-.65-11.56-1.12l-.86.5-2.6-.61ZM148.11,47l-3.23-1.69-1,.59-.41-.6h-.29l-1,1.1-.18.46,1.55-.14.28.62.07.16Zm6.06-3.48h-.1c-2.4.35-3.63.52-6.11.86a2.41,2.41,0,0,1,1.49.53,8.28,8.28,0,0,0,2.21.52l-4.29-.15h0c.12.37,0,.74,1,1,.25.06.3.32.36.63l5.09-.67h.08c.09-.56.14-1,.19-1.38s.09-.81.13-1.35Zm-10-5.25h.12l.62-.1-.33-.85,1-.06-.06-.54.31,0,.79.65h.6a1.38,1.38,0,0,0,.05.45l3.36-.56,3.26-.57h.06c-.06-.37-.09-.56-.16-.92L152,35.09h1.22l-.3-.3h.65l-.1-.43-3.66.68-3.8.66.51.56a9.6,9.6,0,0,1,1-.31,3.86,3.86,0,0,1,1.11.73c-1.25,0-2.54,0-2.94-.67a.94.94,0,0,1,0-.21l-1.08.18c.09.34.16.68.23,1l-.38.07-.17-.15c0,.56-.08.84-.14,1.41Zm3.18,7h0l-.29-.79-.73.1Zm1.1,5.77-4.64.51h1.3l-2.9.54a2.18,2.18,0,0,1,.7-.49l-2.5.26h.41c.75.15,1.48.32,2.18.47l-1.55,1c-.6-.39-1.27-.79-1.83-1.2-.05,0,.06-.16.18-.24h-.21c-.32.59-.57,1-.82,1.48s-.53.91-.9,1.52l4.09-.39-.21-.2h1.55c.31-.71.58-1.37.85-2.09l3,.58L147,53l-1.22-.2.92.86a2.6,2.6,0,0,0-1.13.53c2.61-.27,3.9-.4,6.45-.68h.08c.22-.62.37-1.09.51-1.55s.28-.91.44-1.51Zm-7.26,3-1.34.54c-.38-.22-.36-.22.19-1.4Zm8,3.67-.64-.7.4-.14,1.39.73h.06c.29-.66.5-1.15.69-1.64s.38-1,.62-1.6c-2.67.29-4,.43-6.75.7-.15.89.68,2,2.41,2.82ZM132.42,65a1.07,1.07,0,0,1,0-.46,1.31,1.31,0,0,1,.49-.1c.25.11.58.23.61.38.17.77.3,1.55.43,2.35l5.89-.37,5.79-.4h.1c.47-.74.8-1.3,1.12-1.85s.63-1.09,1-1.8c-3.21.27-5.66.45-8.12.63s-5,.36-8.33.57c-.57.69-1,1.22-1.47,1.74s-.92,1.07-1.56,1.79l4.67-.26c-.09-.38-.17-.75-.26-1.12s-.18-.72-.29-1.09Zm9.43-.49h.65c-.08.44-.17.89-.28,1.42-2.18-.51-.81-1-.3-1.41ZM140,63.87h.65a3.51,3.51,0,0,0-.44.93,5.36,5.36,0,0,0,.13,1.25c-2-.65-.38-1.44-.27-2.17ZM137.19,56l1.12-.31-1,.09Zm1.54,16.37-.11.21h-1.89v-.12l-6.8.32c-2.05.09-4.12.18-6.89.28-.78.78-1.39,1.36-2,2s-1.25,1.19-2.12,2l7-.21,6.93-.25-.5-.44L134.28,75c-.07.59-.12,1.09-.19,1.61l4.37-.19h.11c.68-.84,1.17-1.47,1.65-2.09l1.53-2ZM135.29,59l5.18-.43,5.09-.45a1.42,1.42,0,0,1-.26-.45c-.21-.53-1-1-1.65-1.65l-1.05.83h-.3l.62-1.22-.25-.23-3.06.29a4.31,4.31,0,0,1-2.61.82C136.36,57.47,136,58,135.29,59Zm3.83-38.72.6.82c1.1-.3,1.89-.53,2.66-.76l2.49-.76h0l-.82-.8L143.2,18c-.88.3-1.58.53-2.29.75l-2.45.75c.27.31.48.54.66.78Zm2.61,4.23c.13.27.27.54.43.9l3.25-.79c.94-.24,1.87-.47,3.07-.79h0c-.26-.36-.47-.63-.68-.89s-.41-.53-.7-.87l-.47.13.07.06q.41.41.75.81c.07.08,0,.17,0,.25a2.46,2.46,0,0,1-.54-.13c-.25-.29-.48-.59-.71-.88l-2.44.66-2.57.66A2.29,2.29,0,0,1,141.73,24.51Zm-1.23-2.17c.16.25.32.51.52.86l2.95-.77,2.77-.78h0L146,20.8l-.78-.83-2.56.77-2.73.77a3.79,3.79,0,0,1,.63.83Zm10.38,5.24c-.16-.29-.32-.58-.54-1-1.35.33-2.4.57-3.46.81l-3.65.8c.12.39.2.68.28,1s.15.59.24,1l3.89-.8c1.14-.24,2.25-.48,3.7-.81h0a3.86,3.86,0,0,0-.41-1Zm-1,4.64-2.87.55v.08a1.88,1.88,0,0,1-.65.07h0l-1,.19.45.39-.21.15-1.37-.23a20.75,20.75,0,0,1,.08,2.09l4.6-.8c1.35-.24,2.67-.49,4.4-.82h.05c-.12-.45-.21-.78-.31-1.11s-.21-.65-.36-1.08Zm-1.79.86a9.88,9.88,0,0,1-.05,1.23c-1.15-.42-1.11-.51.12-1.23Zm6.09,6h0c-.05-.69-.09-1-.17-1.72l-3.28.44-3.4.56v.21l-.48-.13-.56.09.37.3c-.8.31-.87.32-1.31-.15l-.56.09-.7.27V39a21.74,21.74,0,0,1-.41,2.32h0c2.18-.31,3.79-.55,5.37-.79s3.13-.48,5.16-.81h.06a5,5,0,0,0,0-.67Zm-9.33-5.86-.56.1.73.2Zm-9.06-16.58a4.86,4.86,0,0,1,1.31.33l1.73-.61,1.62-.6h0L139.5,15l-1-.71c-.68.29-1.22.5-1.77.72s-1.13.43-1.93.72a4.29,4.29,0,0,1,1.06.83Zm1.64,1.72.67.78c1-.3,1.69-.52,2.38-.75l2.22-.75h0l-.89-.76-.91-.75-1.59.58-1.69.58a2.5,2.5,0,0,1,.35.31l-.53-.25-.75.25ZM95.19,106.78a3.65,3.65,0,0,1-.33.46l6.36.26c-1.12-.63-1.87-1.08-2.68-1.45a18.88,18.88,0,0,0-2.17-.68c-.34.43-.76.87-1.11,1.35Zm16.54-4.91-3.34-.08a9.62,9.62,0,0,1-5.7,1.59c-.41-.73-.15-1.27.95-1.72l-4.56-.14a8,8,0,0,0,.94,4.08l1.94-.45c-.05.7-.1,1.32-.18,2.3l4.42.17h.15c1.75-1.42,2.6-2.12,4.26-3.51l-1.45-.82.42-.72,2.47.33.21-.18Zm-6.76,5h-1.16q0-1.45-.09-2.86l1.45-.09q-.1,1.46-.21,2.94Zm-13.48-5.6.46.39,1.19-.33Zm0,1.59c-2,1.27-3.8,1.13-6.47,1.1a5.22,5.22,0,0,1-1-.06c-1.52,1-2.28,1.51-3.85,2.53l5.37.29c.11-.31.2-.63.34-.93h1l.1,1,3.39.17a4.84,4.84,0,0,1,1.11-4.16Zm19.34-2.44h0ZM92,101.69h0l-2.09.58ZM64.91,119.16l-3.63,2.13c4.45.43,7.79.73,11.15,1s6.74.58,11.25.93l-1.12-1a17.36,17.36,0,0,1,3.86.5l1.86-1.33c-.91-1.07.12-2,3.13-3.28l-.28,1.2c1.37-1,2-1.5,3.38-2.5-3.26-.19-4.89-.29-8.14-.51l-.73.87H84.47l.21-.94L80,115.91c-.67.56-1.52,1.16-2.32,1.87.1.35,2.72,1.56-2,1.75-.2,0-.55.72-.91,1.19-1.53-1.68-.9-3.21,2.09-4.28a7.22,7.22,0,0,0,1.42-.66L72,115.31c.29.8.59,1.64.93,2.6-2-.36-2.28-.41-1.65-2.66L67.89,115a14.85,14.85,0,0,1-.53,1.94c-.15.42-.95.86-1.46,1.29-.4-.37-1-.7-1.14-1.11a7.62,7.62,0,0,1-.14-1l-1.82,1.09a3.85,3.85,0,0,1-.55.54C60.49,119.08,60.83,119.26,64.91,119.16Zm13-6.58c.38-1.6.87-3.17,1.3-4.73l-1.16,0-.84.54c-.14.82-.15,1.64-.21,2.48-.1,1.32-2.23,1.91-4.15,1.89-1.43,0-1.52-.37-1.3-.81l-2.47,1.52c3.94.31,5.91.45,9.86.73a2.65,2.65,0,0,0-.34-.55c-.26-.34-.74-.67-.66-1Zm36.91-28.5h0l1.68-.59-.16-.2h-1.42a5.4,5.4,0,0,1-.07.8ZM100.19,112.5c-.12-.65,0-1.29,1.19-2h1.4l1.74-1.38-5.94-.24-5.93-.27c0,.71.08,1.42.11,2.15l-.92.09c-.35-.79-.72-1.56-1-2.33l-3.7-.19a2.91,2.91,0,0,0,.07.81c-1.61,1-3.4,1.66-3.83,2.41-.55,1,2.56,1.77,5.84,1.36l-1.49,1.8,6,.36-2.6-2,.6-.27,4,.81c0,.42-.06,1-.11,1.54h.94C98.07,114.14,98.78,113.59,100.19,112.5Zm-19-3.86a3.57,3.57,0,0,0,3.25-.48L82.17,108ZM108.58,87.8l-.79-.3.94-.56-.7-.24c-.27.17-.62.34-.93.51l-.72.58Zm-.22,8.44,1.71-1.16h-1.75c0,.34,0,.72,0,1.16Zm-.94-7.18.51-.1h-1.34c.16.33.36.66.51,1s.44.37.38.55c-.39,1.08-.86,2.17-1.33,3.28,3.2,0,5.59.07,8,.08s4.77,0,7.94,0h.14c1.09-1,1.88-1.78,2.66-2.54s1.53-1.49,2.51-2.47l-6.13.06H115.1c.17.45.32.84.58,1.57l-2.48-.82-2.34,1.52c-.14-.63,0-1.2-.44-1.53a13,13,0,0,0-3-.6Zm12.88-5a14.8,14.8,0,0,1-2.64,2.16l-2.79-2.15h0c-1.21.77-.62,1.44.5,1.85,1.33.48.65.75-.24,1.2a2.37,2.37,0,0,0-.76.67h1.13l1.76-.86a1.1,1.1,0,0,1,.34.85H123l5.41-.07h.13l.72-.74c-.58-.7-1.22-1.41-1.95-2.25a5.77,5.77,0,0,1,1.48.24A14.86,14.86,0,0,1,130,86.19L133,83l-6.22.16-6.27.12a1.23,1.23,0,0,1-.27.8ZM101.19,91.8a5.52,5.52,0,0,1,1.68-.83c1.87-.38,2.9-1.26,2.55-2h-.5ZM106.82,95,102.69,95v.63l4.39-.37Zm-3.09-1.32-1-.29v.27Zm-3.4-.32c.09-.09-.13-.23-.26-.44l-.82.26-.55.41H100Zm67.4-73.14,1.37.9h.05l1.6.25-2.15-1-2.14-1h-.11Zm-31.8,170.62c1.15-1.38,1.72-2.07,2.84-3.44-3.87-.23-6.77-.42-9.67-.61s-5.8-.4-9.66-.69l1.06,1.44c1-.09,2-.19,3-.32l2.16,2.47C128.92,190.12,132.17,190.49,135.93,190.89Zm-41,45.67-8.17-.85c1.1,2.54,1.64,3.84,2.76,6.46C91.73,239.92,92.8,238.8,94.93,236.56Zm36-39.73c-1.34-.33-2.83-.75-4.64-1.19v.05l3.37,2.57Zm-59,27.11c-4.52-1.28-9.06-2.52-13.53-3.8l2.12,1.66c3.57,1.42,7.24,2.87,10.79,4.25.46,1.25-.72,2.07-2.09,2.83l4.85,3.94,4.19,1.82c-1.52-3.36-3-6.63-4.56-9.81a3.67,3.67,0,0,0-1.72-.88Zm7.81,11-1.2-.14,1.48.72ZM182.28,32.08l1.12,1.19,1.09,1.22h.07l1,.2-.34-.54c.51.24,1.16.5,1.17.71l4.75,1,4.9,1c-.52-.54-.91-.93-1.31-1.33s-.79-.78-1.33-1.29l-5.67-1.09-5.46-1.08Zm-76,172.18c1.32,2.23,2.67,4.51,4,6.83.54,0,1-.07,1.54-.1.62-2.17,1.23-4.26,1.72-6h0c-2.91-.27-4.36-.43-7.26-.73Zm-24,20.3c4.56.71,8,1.25,11.63,1.78v-.8c-4.37-.59-6.55-.9-10.9-1.54ZM163.19,15.8l-4-.55,1.47.78,1.45.8h0l4.11.59,4.23.61-1.6-.85-1.61-.83ZM127.57,227.75c-.55-1.77-1.09-3.52-1.61-5.23a8.62,8.62,0,0,0-1,4.66ZM95.5,248a15.6,15.6,0,0,1-1.23-1.13h-.05v.06h-.06L93,248.17l.07.11.9.73c.44-.25.88-.52,1.29-.79C95.4,248.16,95.39,248.07,95.5,248Zm24.59-15.92-1-.12,1.25,2.31h.26Zm-2.53-10.85-2.72,3.07c0,.08.12.14.17.22l.25.47c2.3.58,4.61,1.07,6.92,1.57-.07-.33-.14-.63-.23-1l-4.06-.66C117.73,223.55,117.67,222.39,117.56,221.22ZM202.05,48l-5-1.27-4.88-1.21h0c.27.49.4.74.65,1.24l.71.11-.05.26-.52-.09c.32.65.48,1,.78,1.63h.08l.25.07c-.19-.13-.32-.27-.32-.42l2,.78,1.15-.66a16.5,16.5,0,0,1,2.46.92,8,8,0,0,0,5.21,1.42l-.51-.53,1.59.24c-.17.46.41.77,1.55,1.13h0c-.64-1.11-1-1.66-1.67-2.74l-3.07-.78a1.22,1.22,0,0,1,.83.79l-.48.06-1.58-1.07a6.54,6.54,0,0,1,.83.12Zm-13.6,70.42,2.23.45-2.62.44h0l.13.07,5.71,3.5h0c-.63-1.92-2.66-3.82-1.67-5.66.33-.62-1-1.71-2.12-2.71-.64,1.55-1,2.33-1.65,3.9Zm10-34.68c-.11.87-.17,1.31-.3,2.2l2.58,1.11a15.46,15.46,0,0,0,1.8.51l-.22.17,7.42,3.19,7.77,3.38v-3.7a3.36,3.36,0,0,1-.56-.66c-1.35-2.36-1.33-2.36-6.09-3.59l.45-.73-5.2-2.11L205,83.37l-.24-.37-3.18-1.28a12,12,0,0,1-1.23.22,7.45,7.45,0,0,1-1.17-1.05v-.14l-.35-.14c-.1,1.17-.15,1.76-.29,3l.36.1Zm8,2.8h.62l3.66,2.24,3.83,2.41-.32.18c-1-.45-2.2-.87-3.07-1.36-1.62-.92-3.11-1.85-4.52-2.78-.26-.16-.14-.45-.21-.69Zm-9.13,83.5c.88-1.95,1.73-3.86,2.81-6.38-3.57-2.9-6.47-5.24-9.13-7.37l-7.5-6c-2.5-2-5.07-4-8.12-6.39-1.19,2-2.12,3.56-3.08,5.12s-2,3.18-3.35,5.35l.15.11c2.44,2.11,4.3,3.74,6.19,5.39s3.86,3.39,6.49,5.73c.2-1.8,1.3-2.6,4.16-2.72-.05-.23-.11-.45-.17-.68l1.79.16c.13.18.18.35.29.53.79,0,1.66.08,2.65.17l-2.08.87c1.16,2.47,1.07,4.89,1,7.37l-1.36-.16c2.45,2.19,3.69,3.31,6.21,5.59,1.22-2.7,2.14-4.71,3-6.69ZM78.38,234.73l-.13-.06.06.1h.24ZM192.78,93.29l-6-2.74-5-2.28-5.6-2.47c-.42,1.06-.75,1.87-1.1,2.68s-.71,1.65-1.22,2.77l6.73,3.24,5.27-.48a4.5,4.5,0,0,1-1.59-.73c-.59-.41-1.1-.83-1.65-1.24l.73-.2,3.32,2c.29-.83.49-1.46.69-2.08,2.3.21,3.34.52,4.47,1.67ZM146.94,133.6l-1,.18-1,1.15,4.57,3.75a22.82,22.82,0,0,0-2.3-6.43h0l-.72.89Zm40.22-23.89-6.43-3.53-5.39-2.93-5.95-3.19c-.69,1.25-1.23,2.2-1.78,3.16s-1.14,1.95-1.94,3.26c2.81,1.62,4.24,2.45,7.14,4.15l6.72-.4,6.63-.44a3.49,3.49,0,0,0,0-.54Zm-32.65,43.92c2.41,0,4.82,0,8,.06-2.76-2.41-5-4.36-7.08-6.14s-3.89-3.35-5.87-5-4-3.39-6.41-5.41c-1.51,1.79-2.68,3.14-3.87,4.51s-2.45,2.79-4.16,4.69c2,1.85,3,2.8,5,4.72l3.54-1.23,1.33,1,4-.82c.37.62,1.34,1.54,1,1.82a16.61,16.61,0,0,1-3.57,1.67C149.73,153.57,152.1,153.61,154.51,153.63Zm-1-4.73c-2.88-.28-2.87-.3-3.77-4.08,4.09.84,1.42,2.92,3.75,4.08ZM175,35.75c.31.49.53.87.75,1.25s.43.76.71,1.28h0l4.31,1,2.62-.69-.24-.08,1.29-.43v.2l1-.27h0l-5.31-1.21L175,35.71Zm1.8,3.18c.27.53.46.92.65,1.33s.38.81.61,1.36h0l4.5,1.06c1.67-.4,2.49-.6,4.08-1l-1.8-.39a7,7,0,0,1,2.38.24l.47-.12h0l-5.55-1.26-5.39-1.23ZM145.84,153l-.18.5h.78Zm44.44-72.87,5.12-.66-5.52-2.15-4.66-1.8-5.19-2c-.21.91-.38,1.6-.57,2.3s-.38,1.41-.66,2.37l6.26,2.61Zm-6.34-36.49-5.6-1.34h0c.23.56.39,1,.55,1.41s.32.86.51,1.45h0l4.7,1.18c2.32-.52,3.45-.78,5.64-1.31h0ZM93.6,189.34c-.16-.47-.33-.94-.5-1.41l-.23.2Zm58.72-21.45c-2.77-2.8-5-5.07-7.1-7.13s-3.9-3.87-5.87-5.81-4-3.9-6.39-6.23c-1.71,1.86-3,3.27-4.37,4.7s-2.76,2.91-4.67,4.89a8.4,8.4,0,0,1-.16,1c1.85,2,2.79,3.07,4.68,5.18q4.12-.11,8.21-.25l.62.8q-4,.2-8,.35l1.54,1.74c3.9.18,5.85.26,9.75.41a16,16,0,0,1-1.24-2.34c-.54-1.13.29-2.35.5-3.51l1.36.36V164c3.09.75,5.75,1.59,3.81,3.72Zm-19.59-8.23-1.66-.23c.19-1.68.37-3.34.52-5l1.79.27Q133.11,157.16,132.73,159.66ZM90.07,192.8l-.84-1.44-.95.85Zm16.11-16.73a1.08,1.08,0,0,0,.22.35l.37.08ZM86.28,195l-1.33.21c-4.52,4-6.86,6-11.69,10.13,1.7,3.69,2.57,5.59,4.32,9.48,2.47-.16,4.95-.34,7.45-.45,2-.09,4.74,1.08,7.14,1.66a40.18,40.18,0,0,1-3.44,3.77l5.47.73c.15-1.78.33-3.54.49-5.27a20.53,20.53,0,0,0-2.38-2.69l-1.58,2.18-1.85-.3a35,35,0,0,1-.15-3.51,12.69,12.69,0,0,0-3-.1c0-.49.06-1,.1-1.49,1.87.09,4.38-.2,5.67.21.9.06,1.89.13,2.85.14l-.68,1a14.93,14.93,0,0,0,1.63.77,6.59,6.59,0,0,0,.57-.59l2,1.3a12.89,12.89,0,0,0,2.82.17l-.11-.74c-1.06-1.93-1.6-2.88-2.64-4.75-3.74,0-8-.82-11.21-.53s-5.41,1.67-5.07,6.1L75,207c4.48-1.59,7.52-2.48,10.71-2.66s6.54.33,11.65,1.51c-1.94-3.48-2.9-5.18-4.79-8.5l-5.81-.82c0-.53.09-1.23.12-1.92a4.22,4.22,0,0,1-.61.22ZM69,212.51l-2.79-1.2L61.73,215l.51.11c-.09.21-.18.42-.29.64,3.23-.18,6.45-.39,9.65-.61L70.25,212Zm44.68-39.24-3.08-1.62-.58.57V173Zm10.57-7.87-3.4-3.9-1.07,1a31.26,31.26,0,0,1,.53,4.23c0,.29-.57.53-1.27.79l6.16,1.2c0-.42.38-.81.92-1.2l-1.77-2h0Zm-7.06,1.81-.74-1.29c-1.65,1.64-2.49,2.47-4.21,4.13l3.56.14c3.45.13,3.56-.77,2.16-2.17l-.23.1-.38-.66-.33-.29ZM176.87,21.73A5.9,5.9,0,0,1,174.1,21a8.44,8.44,0,0,0-2-.78l-2.71-.46,2.29.8c-.67.07-.73.2,0,.47a1.88,1.88,0,0,1,.57.41l-1.08,0h-.35l3.7.59,3.8.61Zm21,66.17.82-.18L198,87.4C197.92,87.59,197.9,87.69,197.87,87.9Zm7.25,7.49L200.64,94A19.3,19.3,0,0,1,197,92.44l-.18.82h.11l5.49,2.54a5.29,5.29,0,0,1-.72-1l5.82,2,.53-.13c1.2.89,2.45,1.78,3.62,2.71a9.23,9.23,0,0,0,5.09,2.08l.37.08c.09-1.14.14-2,.19-2.83s.08-1.66.11-2.74l-8.53-3.77-8.1-3.54a5.21,5.21,0,0,0-1.36.43c-1.26.92-.42,2.49,2.45,3.47,2.61.87,2.63,1.76,3.22,2.82Zm12.32-5.92v-1.3l-2-.81a10,10,0,0,1,2,2.1ZM183,34.8l-5.08-1-4.92-1h0l.84,1.18c.25.36.49.72.8,1.21l4.13.87c1.75-.49,2.6-.74,4.23-1.23h0Zm14.34,56.29.26.06c0-.72.09-1.4.12-2.07-.14.72-.22,1.16-.38,2Zm5.23,35.58a16.35,16.35,0,0,1-2.62,0l5.45,3.4,5.66,3.56c.55-1.91.94-3.31,1.31-4.7s.71-2.73,1.13-4.51l-5.21-3c-1,.33-2.64.59-2.57,1.08.1.79,1.61,1.8,2.44,2.63-.94.64-1.76,1.19-2.93,2l3.77.58v2c-2.32-1.52-5.51-2.23-5.49-4,0-.19-.86-.67-1.39-.81-1.46-.37-2.94-.63-4.7-1,.31,1.38,2.7,2,5.15,2.73Zm-8.41-23.25h.22a6.84,6.84,0,0,1,4.31,3.26,9,9,0,0,0,2,1.45l.67-.23-1.89-.64,1.58-1-6.72-3.46Zm1.59-5.47c-.26,1-.52,1.94-.91,3.26h.12l7,3.54,6.37,3.26,7.64,4c.29-1.86.42-2.78.65-4.59a8.8,8.8,0,0,0-3.14.48c-.12-.95-.25-1.88-.42-3-2.14-.73-1.76-1.59-1.49-2.73v-.22L206,99.31l1.63,1.49-1.2.14-1.7-1.71,1-.1-4.67-2.22-4.57-2.11c-.29,1.21-.54,2.16-.76,3.11Zm-1.86,7.57-.3-.33c-.4,1.22-.61,1.84-1.05,3.09,1.56-.26,2.62-.89,2.36-1.92-.06-.3-.74-.56-1-.88ZM174.66,20.65l.14.25,1.55.51-1.11-.67Zm-.28,0-1.65-.29h.18a4.2,4.2,0,0,0,1.46.25Zm7.4,10.9,5.38,1,5.57,1.1h0l-1.17-1.07-1.18-1L190,31.3l-5.4-1-5.22-1,1.19,1.13c.35.34.71.69,1.17,1.16ZM197,57.5,202.1,59l4.63,1.33L212.18,62c-.32-.83-.57-1.45-.83-2.06s-.51-1.2-.87-2l-5.27-1.52-4.48-1.25-5-1.38c.25.71.42,1.26.59,1.8s.34,1.11.54,1.86Zm10.26,1.63c-1.16.59.59,1,1.41,1.48l-.35.11a15.48,15.48,0,0,1-3.09-1.48c-.59-.63.79-.35,2-.16ZM199,70.93c0,.69.06,1.38.07,2.32h.1l4.06,1.48L201,72.57c1.06.23,1.12.25,2.33,2.19l6.54,2.41,6.81,2.54c-.14-1.06-.27-1.85-.4-2.62s-.27-1.53-.47-2.54l-6.1-2.15-5.15-1.79-5.71-2c.08.91.11,1.59.15,2.27Zm-.47-5.37c.08.6.15,1.21.23,2h.1l5.63,1.92,5.06,1.74,6,2.09c-.21-1-.38-1.7-.56-2.41s-.36-1.41-.62-2.33L207,66.16l-7-2.28c0,.13-.09.26-.33.39l-1.43-.74c.09.79.18,1.38.25,2Zm.42.51c1.73.1,1.91.17,2.64,1l-.4.13ZM177.55,27.59l1.18,1.08h.06l5,.93,5.19,1-.51-.18.11-.09.37.08c-.86-.71-1.29-1.07-2.18-1.76l-2-.61h.11l-1.11-.19.37.13c.09,0-.17.16-.26.25l-1-.53-3.32-.59-3.25-.58ZM153.92,176.27l1.24,1.52,1.09-1.85,1.07.46c-.39.74-.73,1.5-1.13,2.23l10,2.87-.07-.13c-3.7-3.89-5.51-5.77-9.05-9.43C155.82,173.66,155.2,174.53,153.92,176.27Zm63-71.78-1-.47a1.62,1.62,0,0,0,.91,1.13c0-.26,0-.35,0-.65ZM174.41,25l1.27,1h.05l4.91.86,5.09.94-1.45-1.08-1.47-1.06-4.92-.86-4.77-.8Zm6.08,1.39h.6l1.38.69-1.15-.28Zm-9.34-3.83,1.32,1h.05l3.7.62-2-1-2-1,.77.16c.59.15,1.16.33,1.77.46,1.06.22,2.39,1,2.08,1.25a1.14,1.14,0,0,0-.17.2l5.34.9-1-.71a2.72,2.72,0,0,1-1.38-.17c-.5-.19-1-.36-1.69-.59l2.37.28L179,23.13l-4.71-.76-4.56-.73Zm-4.62,197.88c1.07-.12,2.18-.21,3.27-.32l-1.92-2.46c-3.5,0-7-.07-10.69-.14,2,2.79,4,5.72,6.08,8.71l1.94.35a13,13,0,0,1-.24-3.38C165.19,222.16,165.35,220.57,166.53,220.44Zm10.88-11.64c-3.89-.14-7.3-.27-10.71-.42l1.48,1.81c2.37.76,4.74,1.53,7.15,2.22C176.18,211,176.59,210.26,177.41,208.8Zm-16.86-.24h.18l-.15-.18a1.18,1.18,0,0,1,0,.21Zm19.1-3.74a3.54,3.54,0,0,1-1-.1c-2.66-.52-5.42-2.07-7.74-2.49.06.28.12.57.19.85l-1-1-3-.15c-.44.79-.88,1.55-1.3,2.31L165,204v-2.18c-1.07,0-2.14-.08-3.22-.14a5.44,5.44,0,0,1-.09.56c1.65,2,2.49,3,4.18,5.1l3.47-1.09L166,204.34c2.78-.85,4.54-2.25,8.6,1.27a6.74,6.74,0,0,0,4,.9ZM154.49,184.2a26.39,26.39,0,0,0,3.21,2.34l-2.54,1.64c1.5.68,3.19,1.53,4.55,2.09,2.24-2.95,1.92-3.61-5.22-6Zm-7.18.88a1.44,1.44,0,0,1,.15.14l1.83,2.17c.66-.05,1.27-.13,1.87-.23a21.46,21.46,0,0,1-2.7-2.25c-.27-.28,1.83-1.51,3.12-2.55v-2.89c-1.7,2.25-2.54,3.33-4.27,5.63Zm30,2.13,1.91,2,7.35,1.61a11.39,11.39,0,0,0-9.28-3.59ZM152.73,212.8l5.52-.27c-.43-1.47-1.49-3.07-.84-3.3a9.4,9.4,0,0,1,1-.29c.13-.91.25-1.81.39-2.7L154.6,201c-.48-.09-.95-.13-1.43-.24-4-.88-5.06-.21-6.82.73a9.93,9.93,0,0,1-5.88.87,63.35,63.35,0,0,1,5.66-4.47,37.16,37.16,0,0,1,4.24-2.16l-1.65-2a43.59,43.59,0,0,1-7.39,3.83,11.19,11.19,0,0,1-4,.28c-1.82,2.25-2.75,3.38-4.65,5.68l.16.17,2.11,3,8.86,1,9.22,1C152.94,210,152.87,211,152.73,212.8ZM208,143.26c1-2.93,1.46-4.37,2.31-7.2-3.3-2.13-6-3.85-8.46-5.43l-7-4.44c-2.32-1.46-4.77-3-7.65-4.79-.28.62-.42.93-.71,1.55l1.17-.52c1,1.15,1.88,2.11,3.08,3.48l-3.13-1c.3,1,.55,2,.89,3.16l-3.5-1.91c-.72,1.49-1.09,2.24-1.87,3.77l.13.08,3.94,2.67c.37,0,.76.1,1.13.13,3.1.23,3,1.49,4.44,3.05l-1.23-.2c3,2,5.21,3.59,7.5,5.19l7.91,5.53c.28-.78.41-1.17.68-1.95l-4.09-1.12c.8-.89,1.39-1.55,2.12-2.39Zm-35,51.13c-4.22-.68-7.46-1.22-10.65-1.76a3.75,3.75,0,0,0,.11.67l5.89,2.08c-4,.42-6.85,1.45-9.7.81-.49-.11-.9-.18-1.31-.24-.12.24-.22.47-.34.71L158.9,199l6.13-.55v-2a7,7,0,0,1,4.12,1.61c3.83-.37,7.66-.77,11.42-1.19l-5.25-5.63L173,194.35ZM185.45,125l.22-.1-.14-.06Zm-7.26,14,1.24,1.39-.57.37-1.39-.49-.71,1.25.14.08c3,2.3,5.59,4.28,8,6.17s4.84,3.75,7.41,5.77,5.5,4.31,9,7.1c1-2.4,1.7-4.18,2.39-5.92s1.32-3.42,2.14-5.64c-3-2.17-5.49-3.94-7.76-5.56l-6.35-4.63-7-4.94c-1-.07-1.11.46-1.43,1.81l-1-.15c0-1.24,0-2.44-.07-3.4l-.23-.17c-1.46,2.73-2.2,4.1-3.77,6.91Zm2-1.65,1.54.16c.66,3,1,4.47,1.62,7.58L182.1,145q-.88-4-1.84-7.66ZM215.53,114l-6.41-3.38L203,107.38c1.36,1.92,1.71,3.69-.55,5.06a12.47,12.47,0,0,1,3.84,3.19A15.55,15.55,0,0,1,208.1,119l5.78,3.28.2-.89-1.46-1.55.28-.39c.46.18,1,.34,1.56.52.5-2.42.74-3.63,1.14-6Zm-2.15,3.79a14.7,14.7,0,0,1-1.84-.91c-1.12-.78-2.1-1.59-3.71-2.82,2.79.68,4.71,1.42,5.92,2.62.38.28-.15.69-.3,1.07Zm-20.85,62.49c-3.68-3.42-6.66-6.17-9.39-8.67s-5.11-4.67-7.68-7-5.17-4.66-8.28-7.43c-2.07,3.17-3.15,4.78-5.41,8.06l.91-.33c2.07,1.27,1.31,2.4-2.52,2.63l-.93,1.34.15.12c2.4,2.4,3.62,3.62,6.09,6.12a2.8,2.8,0,0,1,.22-.55c.13.39.23.74.35,1.13,3.48,3.53,5.26,5.35,8.89,9.09a7,7,0,0,0,.92-.3c.66-.28.54-1,.77-1.56,2-.21,5,0,5.82-.73,2.08-2,6-2,10-1.82Zm-12.31-9.19c-3.83.5-7.68,1-11.6,1.43l-.94-.86q5.68-.85,11.22-1.79Zm-9.55,15.12-1.19-1.26c-2,1.2-4,2.41-6.28,3.71,4.61.83,8.18,1.44,11.71,2l-2.86-3c-1.43-.37-2.05-.84-1.39-1.45Zm15.7-21.39-3.82,1.54,5.26,4.68Q187.08,167.8,186.37,164.8ZM162.18,24.18l1,1,1,1,2.32.41c-.39-.4-.69-.7-1-1s-.61-.59-1-1ZM63.44,184.43h-.12v.07Zm-18.15,4h-.2l-1.49,1a10.7,10.7,0,0,0,1.69-1ZM64.57,178a10,10,0,0,0-3.66-1c-2.44,1.78-3.67,2.67-6.19,4.48a4.66,4.66,0,0,1,1.56,2c.72,1.93-1.51,1.63-3.67,1.36.09.4.22.78.29,1.21l6.57,1.28L63,184.7l-1.29.26c-.08-.19-.18-.37-.26-.56h0q-1.19-2.53-2.38-5l2.61-.4c.49,1.64,1,3.3,1.48,5l1.06-.23,4.86-3.71a16.84,16.84,0,0,1-2.29-1,17.36,17.36,0,0,1-2.1,2.5c0-1.17-.09-2.32-.16-3.53ZM34.23,197.49l-3,.52,6.39,5.2a6.39,6.39,0,0,1-.07-4,2.72,2.72,0,0,0-.55-1.95A21.57,21.57,0,0,0,34.23,197.49ZM53.06,190a7.41,7.41,0,0,1-.19,1.14c-.14.51-.33,1-.51,1.53l3-2.21Zm36.2-28.22-6.95-.92-1.26,1c-.07.59-.32,1.09-1.52,1.18L76,165.8h1.55A6.32,6.32,0,0,1,73,168.09c-1.67,1.27-2.52,1.9-4.24,3.19,3.86.63,5.8.93,9.69,1.53l1.12-.89c-.3-1.18-.92-2.29-.39-3,.26-.36,3.22-.29,4.21,0,2.74-2.21,4.08-3.31,6.7-5.48C89.8,162.91,89.52,162.38,89.26,161.8ZM87.37,157a.19.19,0,0,1,.06-.17l-2,1.58,2.37.3a7.42,7.42,0,0,1-.44-1.66ZM64.48,176.34c0-.6-.06-1.16-.1-1.81l-1.8,1.32Zm8.76.56,1.62-1.27c-3.59-.58-5.38-.88-8.93-1.48,1.27,1,1.83,1.91,1.7,3l1.91.48c.68-.12,2-1.47,3.7-.73ZM154.17,16.72l-1.25-.78-1.87-.26,1.21.77,1.19.79,1.94.28ZM105.89,149.88c-3.51-.34-5.26-.53-8.75-.89-2.38,2-3.6,3-6.09,5l.51.11c.29,1.11,1.34,2.47.74,3.33a3.28,3.28,0,0,0-.62,1.84l2.92.36,3.65-3.1-2.08-.39L95,157.36l-.6-.13c0-.51-.46-1.23,0-1.5a6.85,6.85,0,0,1,5.06-.31l1.94-1.67a12.64,12.64,0,0,1-.2-1.48l1.12.68C103.83,151.71,104.52,151.1,105.89,149.88ZM151,14.8l-1.3-.74-1.79-.26,1.26.73,1.24.74,1.86.25ZM147.73,13l-1.34-.7-1.66-.21,1.31.69,1.29.71,1.78.23Zm9.44,5.74-1.2-.82-2-.28,1.16.81,1.14.83,2,.3ZM48.13,195.8c-.79-.36-1.75-.88-3-1.6-.38,1,.27,2,1,3.05ZM131,6h-.29l1.48.56,1.46.57,1.32.14-.39-.12h-.21l-1.6-.61.19-.07-.39-.2-.21-.08.28.35c-.48-.12-.74-.3-.72-.44h-.62Zm13.41,5.31L143,10.61l-1.64-.2,1.36.65,1.34.67,1.7.21ZM137.3,8.1l-1.47-.59-1.5-.17,1.44.59,1.42.6,1.55.18Zm22.79,12.76L158.95,20l-2-.31.74.57,1.35.22a1.53,1.53,0,0,1-1,0l1.14.92,2.12.34Zm11.79,10.45.66.85h0l4,.78c1.11-.34,1.66-.5,2.72-.84a.16.16,0,0,1,0-.22h.48l.1.07.84-.28-.24-.25h-1.88l-3.91-.75-3.92-.74c.48.55.7.87,1.15,1.39Zm-19.31-2.93,3.18-.74-4.09-.84c.38.62.56.94.9,1.59ZM138.06,9.54l-1.33-.62-.45.34,1.31.62,1.29.64.54-.35ZM160.38,28.3c-.22-.31-.44-.61-.75-1l-1.54.38a.84.84,0,0,0,0,.11h-.23l-1.21.29c.06.27.1.49.16.8l-.9-.63-2.78.55,5.2,1.15,2.76-.63ZM156.82,24c-.53-.57-.81-.86-1.38-1.42-1.13.33-1.71.5-2.91.83l1.53.54a13.14,13.14,0,0,0,1.38.3,5.12,5.12,0,0,1-2.56-.35c-.29-.12-.61-.22-.93-.33L150.1,24l4.82,1,2-.54-1.77-1A3.77,3.77,0,0,1,156.82,24Zm2.11,2.43-1.05.23c.14-.18.32-.43-.78-.59.52-.23,1.57-.26.58-.91l.25.07-.3-.34-2.67.71-2.82.7,1.56.3-.48.11,2.7.57a1.63,1.63,0,0,0,.66-.3c.1-.14-.1-.37.06-.55a12.73,12.73,0,0,1,1.39.71l1.22-.31Zm-.4,6.53h0l-4.4-1c.26.71.38,1.07.6,1.8Zm-6.8-6.57Zm4.56,13.74h0l4.64,1.28-.35-.28c1.06-.14,1.68,0,1.92.63l1-.16,1.3-.3.06.07,1.38-.23c-.12-.53-.22-.92-.33-1.31s-.22-.77-.38-1.28l-5.58,1a8.91,8.91,0,0,1,1.22.33,1.3,1.3,0,0,1,.67.6,24.68,24.68,0,0,1-2.38-.84ZM151.12,26l2.9-.73-3.94-.79c.46.6.65.9,1.06,1.52Zm-33,112.73-8.23-.62c-1.91,1.69-3.37,3-4.87,4.26S102,145,99.84,146.75l7.68.74-3-2.19,5.59-1,.59.18-1.12-2.28c1.78-.29,3.87-.65,5.93-1ZM165.73,35.22c.22.48.37.84.52,1.2s.3.73.48,1.23h0l2.34-.45h0L168.51,36c-.17-.37-.35-.72-.6-1.19h0Zm-20.2,67.23h-.65c-1,1.22-1.77,2.14-2.56,3.07s-1.62,1.89-2.75,3.17l6.7.06c1.05-1.3,1.82-2.26,2.56-3.22s1.46-1.88,2.38-3.12h-1a6.45,6.45,0,0,1-1.71,2.15c-.08-.75-.16-1.45-.24-2.13h-1a1.57,1.57,0,0,1,0,1.91,2.8,2.8,0,0,1-1.75-1.89Zm-.61,7.94-6.78-.09c-1.18,1.32-2.1,2.31-3,3.32s-1.91,2-3.23,3.43l7.15.2c.93-1,1.38-1.56,2.27-2.59a20.26,20.26,0,0,1-2.25-1.19c-.26-.18-.38-.67-.16-.82,1.15-.76,2.4-1.47,3.59-2.2l.79.1-.6,2.5,2.2-2.66Zm-20.33,22c1.22-1.21,2.43-2.41,4-4l-7.73-.41c-1.33,1.26-2,1.9-3.38,3.18a7.39,7.39,0,0,1,1,1,10.44,10.44,0,0,1-2.23.14h0c-1.58,1.46-2.38,2.19-4,3.67,3.25.24,4.88.36,8.13.58,1.68-1.65,3-2.89,4.19-4.12Zm9.46-9.72c1-1.11,2.06-2.22,3.38-3.67l-7.25-.23c-1.39,1.43-2.47,2.51-3.57,3.6s-2.25,2.22-3.8,3.72l7.64.37c1.46-1.49,2.53-2.66,3.59-3.75Zm33.68-61.55c-.17.74-.31,1.3-.46,1.86s-.31,1.14-.54,1.91l4.08-.39c.18-.77.31-1.35.42-1.92s.22-1.13.34-1.87ZM154.44,97.94l2-2.88-5.92.13-1.25,1.61c.32.65.54,1.12.76,1.58l-.51.12-1-.74c-1,1.25-1.46,1.89-2.48,3.16h2a5.9,5.9,0,0,0-.09-.72,4.46,4.46,0,0,1,1.83.71h.75a1.59,1.59,0,0,1,.07-1.17l1.06,1.16h.6c.93-1.19,1.57-2.1,2.19-3Zm4.66-7c.5-.81,1-1.61,1.62-2.67l-5.52.21c-.69,1-1.23,1.84-1.78,2.64s-1.12,1.62-1.91,2.72l5.84-.14,1.76-2.79ZM140.88,9.65,139.45,9l-1.56-.22,1.4.62,1.38.63,1.63.19Zm3.35,115.15a7.41,7.41,0,0,1-1.71-1.59l-1,1.2Zm-7.78,14.32c1.2-1.33,2.36-2.65,3.87-4.38-1.87-1.55-2.79-2.32-4.62-3.82-1.51,1.65-2.67,2.9-3.86,4.17s-2.44,2.57-4.13,4.31c1.82,1.67,2.74,2.53,4.6,4.26,1.69-1.86,2.93-3.21,4.14-4.55Zm8.6-9.93c-1.24-1.48-2.61-2.94-3.89-4.4-1.42,1.63-2.15,2.45-3.64,4.11l4.62,3.72,1.11-1.3-1-1.05,1.49-.27.3.34ZM125.53,150.8c1.42-1.46,2.81-2.91,4.6-4.81-1.86-1.78-2.78-2.66-4.59-4.37-2,2-3.06,3.08-5.19,5.18.15,1,.3,2,.46,3a10.36,10.36,0,0,1-1.64-1.85l-.92.89c-.15,1.15-.3,2.23-.47,3.49-.32-.18-.57-.34-.83-.5l3.67,4C122.62,153.8,124.09,152.27,125.53,150.8ZM156,115.13l-4.54-2.95-.17.23.95.87-1.34.13-.21-.21c-1.27,1.64-1.93,2.48-3.29,4.16l2.73,1.13.82-.2c-.1-.58.06-1.18-.35-1.71-1.3-1.67-.48-2.25,3.12-2.12-.87,1.55-.89,2.86-.07,3.88l2.34-3.22Zm-38,43.22c-1.81-2-2.71-3.05-4.49-5-2.77,2.61-4.19,3.94-7.13,6.62.11.63.34,1.35.52,2.3a20.06,20.06,0,0,1-1.51-1.4l-3,2.71,1.31,1.69a56,56,0,0,1,6.54.48l-5.43,1,1.92,2.5c2.14-2,3.19-3,5.24-5l-3.41-4.08a44.74,44.74,0,0,0,6.44,1.16Zm39.43-54.41c-.88,1.28-1.56,2.24-2.26,3.22s-1.44,2-2.44,3.33l4.52,2.88c1-1.4,1.71-2.44,2.41-3.47s1.37-2,2.23-3.35Zm-13.55,17.8h-.17l-.21.25c.69.66,1.36,1.34,2.13,2,.35.3,1.2.54,1.37.82a8.09,8.09,0,0,0,.73,1l.94-1.16-.33.07Zm21-20c.56-.94,1.11-1.86,1.81-3.08l-4.35-2.3c-.72,1.18-1.28,2.07-1.86,3s-1.18,1.83-2,3.07l4.43,2.54c.81-1.35,1.42-2.3,2-3.25ZM146,119.1l-.18.21,1.85,1.31h0l2.75,2c.8-1,1.19-1.53,2-2.55l-.86-.3a12.27,12.27,0,0,0-2.87-.85,12.43,12.43,0,0,0-2.67.16ZM94.13,179.25a4.4,4.4,0,0,1-.31,1.73l1.69-1.51q.34-2,.65-3.84l1.23.2c0,.63,0,1.31-.06,2,2-1.83,3-2.74,5-4.54l-1.39-1,2.27.18.52-.48-1.05-1.44a16.39,16.39,0,0,1-2.58.51c-2,.27-2.43,2.09-3.83,3.44L93,173.65a2.48,2.48,0,0,1,.18.38A34.29,34.29,0,0,1,94.13,179.25ZM162.84,23.13l-1.11-.92-2.14-.34,1.06.92.94.41-.62-.12.69.63,2.22.37Zm1.29-2.33-3.94-.61,1.16.88,1.14.9,3.31.53c1-.43,1.48-.64,2.39-1.07ZM170,25.49l-4.22-.69,1,1,1,1,2.7.48,1.21-.11-1.52-.49v-.12c.52.1,1.09.16,1.57.29a7,7,0,0,1,.69.22l1.86-.7a.4.4,0,0,0-.1-.11Zm1.52.57c.49-.06.49-.06,1.46.58h-.2Zm-2.76,0c.44-.3,1-.24,2.38.19-.7.3-1.56-.18-2.36-.15ZM70.4,199.2l2.46-.2,2.1-1.75A30,30,0,0,1,68,194.13C69,196.12,69.43,197.13,70.4,199.2Zm18.44-23.48a.81.81,0,0,1,0-.34l-2.51,2.13c1.6,2.55,2.4,3.86,4,6.52l1-.88c-.88-2.54-1.71-5.07-2.49-7.44Zm-15.2,14.67c-1.19.26-2.49.46-3.81.66l-2.38,1.9L68,194.1c2-2,4.45-2.5,9-1.38h.14c.1-1,.19-2,.29-3.07a6,6,0,0,1,3.06,2.89l.67-.57a15.25,15.25,0,0,0-1.34-2.58l3.12,1.05.79-.64c-.24-1.12-.49-2.28-.77-3.56l2.8,1.81.7-.61c-.91-.78-1.81-1.58-2.74-2.34a7.19,7.19,0,0,0-1.27-.6,3,3,0,0,1,1.76-1.7l-1.39-2.35c-3.61,3-5.47,4.53-9.28,7.62.94.21,1.93.53,2.87.74A8.67,8.67,0,0,1,73.64,190.39ZM55.86,202c-3.17,2.44-4.78,3.68-8.07,6.17l-1,2.43,5.88,4.78c3.29-2.61,4.91-3.9,8.07-6.45l-6-2.58a43.82,43.82,0,0,0,6.45-.15A15.83,15.83,0,0,0,65,204.56l.74.32,1-.84-.48-1.24c-.94-.58-1.86-1.2-2.8-1.76l1.49-1.24c-.64-1.46-1-2.18-1.61-3.61-2,1.57-3,2.37-5.06,4l5.29,1.1c-.66,1.07-.9,2.45-2.14,3.15-.87.49-3.1,0-4.73,0,.17-.85.33-1.69.49-2.52Zm42.69-34.64a1.16,1.16,0,0,1,0-.39L95,170.06h.64C98.73,170.45,99.09,169.07,98.55,167.39Zm48-157.59-3.11-.36-3-.35,1.4.61,1.32.33v.1l-1-.27,1.11.5,1.66.2h0c.28-.28.34-.33,1.08-.1A6.87,6.87,0,0,0,146.53,9.8Zm19.57,80c-.53,1-.95,1.74-1.37,2.49s-.87,1.53-1.49,2.56l4.33,2.24c.66-1.19,1.13-2.06,1.59-2.94s.89-1.71,1.45-2.84l-3.88-1.82v.37ZM166,92.16c1.89,1.1,2.42,2.15.74,3.36-.29-1.31-.51-2.31-.74-3.31Zm9.69-52.3c-.18-.4-.37-.79-.63-1.32l-2.77-.61c.24.51.41.9.58,1.29s.33.79.54,1.33l2.87.67h0Zm.86,2-2.86-.65c.2.55.34,1,.47,1.38s.27.84.43,1.41l3,.74h0c-.18-.58-.33-1-.48-1.43s-.3-.84-.52-1.39Zm-1.8,2.81h0c.15.58.26,1,.36,1.46s.2.89.31,1.49h0l3.12.82h0c-.13-.62-.24-1.07-.36-1.53s-.24-.9-.41-1.49h0ZM167.89,28a11.72,11.72,0,0,0-1-1l-2.33-.41.92,1c.27.29.54.62.89,1l2.42.45-.91-1Zm-11.5,15.3h0l3.08.9,3.14.92,1.12-.15a.61.61,0,0,1,.17-.66,2.84,2.84,0,0,1,1.14.46l1.83-.28c-.06-.44-.09-.67-.16-1.1-.43-.22-.87-.44-1.27-.67l.34-.2.86.43c-.09-.49-.13-.73-.24-1.21l-3.75.61v.32l-.33-.27C160,42.8,158.79,43,156.39,43.33Zm4.63.34c2.47,0,1.54.65,1.37,1.13Zm11.19-10.06-.81-1.17-2.55-.5h0c.31.45.54.79.76,1.14l.73,1.17h0l2.64.54a12.81,12.81,0,0,0-.76-1.18Zm-1.48,1.19h0c.28.48.48.85.68,1.21s.39.74.64,1.24l2.75.6h0c-.26-.51-.47-.89-.68-1.26s-.42-.74-.72-1.23h0Zm-3.88-5.64.8,1c.23.28.47.63.78,1l.07.1h0l2.52.49h0l-.42-.57c-.51-.67-.77-1-1.31-1.65Zm8.33,51.66c.27-.74.53-1.47.85-2.43l-4-1.61c-.34.93-.62,1.64-.91,2.36s-.59,1.45-1,2.43l4.07,1.77c.4-1,.69-1.73,1-2.48Zm1.93-5.94c.19-.69.38-1.36.6-2.26l-3.82-1.44c-.25.87-.45,1.53-.66,2.19s-.44,1.35-.75,2.26l3.93,1.58c.32-.9.48-1.6.67-2.29Zm-4.55,12.35c.36-.8.7-1.59,1.13-2.63l-4.12-1.8c-.45,1-.81,1.77-1.18,2.54s-.76,1.56-1.31,2.62l4.2,2c.53-1.07.9-1.88,1.26-2.69ZM175.14,66c-.16.81-.3,1.42-.44,2s-.3,1.25-.52,2.1l3.8,1.41c.2-.87.34-1.52.47-2.16s.25-1.27.38-2.1Zm3.59-16.72-3.14-.84c.1.62.17,1.09.23,1.56s.12,1,.17,1.61l3.25.91h0c-.08-.66-.15-1.14-.23-1.63s-.16-1-.28-1.59Zm-2.86,11.91c-.08.75-.16,1.33-.25,1.9s-.17,1.17-.32,2L179,66.32c.12-.81.2-1.41.27-2s.13-1.18.19-2Zm3.69-1.67V57.67l-3.41-1a13.75,13.75,0,0,1-.07,1.78c-.07.54-.07,1.09-.14,1.83l3.52,1.13c.07-.8.09-1.36.11-1.92Zm-.23-6.18-3.28-.93c0,.66.07,1.16.09,1.67s0,1,0,1.72l3.39,1v-.82c-.05-1.07-.09-1.59-.2-2.63Z" transform="translate(0.07 0)"/></svg>