<?xml version="1.0" encoding="UTF-8"?>
<!DOCTYPE svg PUBLIC "-//W3C//DTD SVG 1.1//EN" "http://www.w3.org/Graphics/SVG/1.1/DTD/svg11.dtd">
<!-- Creator: CorelDRAW X7 -->
<svg xmlns="http://www.w3.org/2000/svg" xml:space="preserve" width="61.604mm" height="8.107mm" version="1.1" style="shape-rendering:geometricPrecision; text-rendering:geometricPrecision; image-rendering:optimizeQuality; fill-rule:evenodd; clip-rule:evenodd"
viewBox="0 0 6160 811"
 xmlns:xlink="http://www.w3.org/1999/xlink">
 <defs>
  <style type="text/css">
   <![CDATA[
    .fil0 {fill:#00A651;fill-rule:nonzero}
    .fil1 {fill:white;fill-rule:nonzero}
   ]]>
  </style>
 </defs>
 <g id="Layer_x0020_1">
  <metadata id="CorelCorpID_0Corel-Layer"/>
  <g id="_2003557644752">
   <path class="fil0" d="M64 616l-26 0 0 -350 26 0 0 350zm282 -308c-1,3 -3,5 -6,5 -2,0 -5,-2 -8,-5 -4,-3 -8,-6 -14,-10 -6,-4 -13,-7 -22,-10 -8,-3 -19,-5 -32,-5 -13,0 -24,2 -33,5 -10,4 -18,9 -25,15 -6,7 -11,14 -14,22 -4,8 -6,17 -6,26 0,12 3,22 8,29 5,8 12,15 20,20 8,6 18,10 28,14 10,4 21,7 32,11 11,4 22,8 33,12 10,4 19,10 28,16 8,7 15,15 20,25 5,9 7,21 7,36 0,14 -2,28 -7,41 -5,13 -13,24 -22,34 -10,10 -22,17 -35,23 -14,5 -30,8 -48,8 -23,0 -43,-4 -59,-12 -17,-9 -32,-20 -44,-34l7 -11c2,-2 4,-4 7,-4 1,0 3,1 5,3 3,2 5,5 9,8 3,2 7,6 12,9 4,3 10,6 16,9 6,3 13,6 21,8 8,2 17,3 27,3 13,0 26,-3 37,-7 11,-4 20,-10 27,-17 8,-7 13,-16 17,-26 4,-10 6,-20 6,-32 0,-12 -2,-22 -7,-30 -5,-8 -12,-15 -20,-20 -8,-6 -18,-10 -28,-14 -11,-3 -21,-7 -33,-10 -11,-4 -21,-8 -32,-12 -10,-4 -20,-10 -28,-17 -8,-6 -15,-15 -20,-25 -5,-10 -7,-22 -7,-37 0,-12 2,-23 6,-34 5,-11 11,-20 20,-29 8,-8 19,-15 32,-20 12,-5 27,-7 43,-7 18,0 34,3 49,8 14,6 27,15 39,27l-6 11zm115 286l166 0 0 22 -192 0 0 -350 26 0 0 328zm491 22l-20 0c-2,0 -4,-1 -5,-2 -2,-1 -3,-3 -4,-5l-41 -101 -172 0 -41 101c-1,2 -2,4 -3,5 -2,1 -4,2 -6,2l-20 0 144 -350 25 0 143 350zm-234 -127l157 0 -72 -177c-1,-2 -2,-6 -3,-9 -2,-4 -3,-7 -4,-11 -1,4 -2,7 -3,11 -1,3 -3,7 -4,10l-71 176zm458 25c2,4 4,9 6,15 1,-3 2,-6 3,-8 1,-3 2,-5 4,-7l137 -244c2,-2 3,-3 4,-4 1,0 3,0 6,0l17 0 0 350 -22 0 0 -298c0,-5 0,-9 1,-14l-138 245c-2,4 -5,6 -10,6l-4 0c-4,0 -7,-2 -9,-6l-142 -245c0,5 1,9 1,14l0 298 -23 0 0 -350 18 0c2,0 4,0 5,0 2,1 3,2 4,4l142 244zm316 102l-26 0 0 -350 26 0 0 350zm367 -59c2,0 4,1 5,2l10 10c-8,8 -16,15 -24,21 -9,6 -18,12 -28,16 -10,4 -21,8 -34,10 -12,3 -25,4 -40,4 -24,0 -46,-4 -66,-13 -20,-8 -38,-20 -52,-36 -15,-16 -26,-34 -34,-57 -8,-22 -12,-46 -12,-73 0,-27 4,-51 12,-73 9,-22 20,-41 36,-57 15,-15 33,-28 54,-36 21,-9 44,-13 69,-13 13,0 25,1 35,3 11,1 21,4 30,8 9,3 18,8 26,13 8,5 16,11 23,18l-7 11c-2,2 -4,3 -6,3 -2,0 -4,-1 -6,-2 -2,-2 -5,-4 -9,-7 -3,-2 -8,-5 -13,-8 -5,-3 -11,-6 -18,-9 -7,-2 -15,-4 -24,-6 -9,-2 -19,-3 -31,-3 -21,0 -40,4 -58,12 -18,7 -33,17 -46,31 -13,14 -23,30 -30,49 -7,20 -11,42 -11,66 0,24 3,47 11,66 7,19 16,36 29,49 13,14 27,24 44,31 17,7 36,11 56,11 12,0 24,-1 33,-2 10,-2 19,-4 28,-8 8,-3 15,-7 23,-12 7,-5 14,-10 21,-17 0,0 1,-1 2,-1 1,-1 1,-1 2,-1zm142 -291l21 0c5,0 8,2 9,6l88 288c1,3 2,7 3,11 1,3 1,7 2,12 1,-5 2,-9 3,-12 0,-4 1,-8 3,-11l99 -288c0,-1 1,-3 3,-4 2,-2 4,-2 6,-2l7 0c2,0 4,0 6,1 1,2 2,3 3,5l99 288c1,3 2,7 3,10 1,4 2,8 3,12 0,-4 1,-8 2,-12 1,-3 1,-7 2,-10l89 -288c0,-1 1,-3 3,-4 2,-2 4,-2 6,-2l19 0 -110 350 -22 0 -104 -304c-1,-4 -2,-8 -3,-12 -1,4 -2,8 -4,12l-103 304 -23 0 -110 -350zm848 175c0,27 -4,51 -12,74 -8,22 -20,40 -34,56 -15,16 -33,28 -53,36 -20,9 -43,13 -68,13 -24,0 -47,-4 -67,-13 -21,-8 -38,-20 -53,-36 -15,-16 -26,-34 -34,-56 -9,-23 -13,-47 -13,-74 0,-27 4,-52 13,-74 8,-22 19,-40 34,-56 15,-16 32,-28 53,-36 20,-9 43,-13 67,-13 25,0 48,4 68,12 20,9 38,21 53,37 14,15 26,34 34,56 8,22 12,47 12,74zm-26 0c0,-25 -4,-47 -10,-66 -7,-20 -17,-36 -29,-50 -12,-13 -27,-24 -44,-31 -18,-7 -37,-11 -58,-11 -21,0 -40,4 -57,11 -17,7 -32,18 -44,31 -13,14 -22,30 -29,50 -7,19 -10,41 -10,66 0,24 3,46 10,66 7,19 16,35 29,49 12,14 27,24 44,31 17,7 36,11 57,11 21,0 40,-4 58,-11 17,-7 32,-17 44,-31 12,-14 22,-30 29,-49 6,-20 10,-42 10,-66zm141 17l0 158 -25 0 0 -350 89 0c40,0 71,8 90,23 20,16 30,39 30,69 0,13 -2,25 -7,36 -4,11 -11,21 -19,29 -9,9 -20,16 -32,21 -12,5 -26,9 -41,11 4,2 7,5 11,9l120 152 -22 0c-2,0 -5,-1 -6,-2 -2,-1 -4,-2 -6,-5l-112 -141c-3,-4 -6,-7 -9,-8 -4,-2 -8,-2 -15,-2l-46 0zm0 -19l61 0c15,0 29,-2 41,-5 13,-4 23,-9 32,-16 8,-7 15,-16 19,-25 4,-10 7,-21 7,-33 0,-25 -8,-44 -25,-56 -16,-12 -40,-18 -71,-18l-64 0 0 153zm305 155l166 0 0 22 -192 0 0 -350 26 0 0 328zm522 -153c0,27 -4,51 -12,73 -8,21 -20,40 -34,55 -15,15 -33,27 -53,35 -21,8 -43,12 -68,12l-128 0 0 -350 128 0c25,0 47,4 68,12 20,8 38,20 53,35 14,15 26,33 34,55 8,22 12,46 12,73zm-26 0c0,-25 -4,-46 -11,-66 -6,-19 -16,-35 -28,-48 -12,-13 -27,-23 -44,-30 -18,-7 -37,-11 -58,-11l-102 0 0 309 102 0c21,0 40,-3 58,-10 17,-7 32,-17 44,-30 12,-14 22,-30 28,-49 7,-19 11,-41 11,-65zm442 -186l0 67 -101 0 0 294 -84 0 0 -294 -101 0 0 -67 286 0zm376 180c0,27 -5,51 -14,73 -9,23 -21,42 -38,59 -16,16 -36,29 -59,39 -23,9 -48,14 -76,14 -28,0 -54,-5 -77,-14 -23,-10 -43,-23 -59,-39 -16,-17 -29,-36 -38,-59 -9,-22 -14,-46 -14,-73 0,-26 5,-50 14,-72 9,-23 22,-42 38,-59 16,-16 36,-29 59,-39 23,-9 49,-14 77,-14 28,0 53,5 76,15 23,9 43,22 59,39 17,16 29,36 38,58 9,22 14,47 14,72zm-86 1c0,-18 -2,-34 -7,-49 -4,-14 -11,-26 -20,-36 -8,-10 -19,-17 -31,-22 -13,-6 -27,-8 -43,-8 -16,0 -31,2 -43,8 -13,5 -24,12 -32,22 -9,10 -16,22 -20,36 -5,15 -7,31 -7,49 0,18 2,34 7,48 4,14 11,26 20,36 8,10 19,18 32,23 12,5 27,8 43,8 16,0 30,-3 43,-8 12,-5 23,-13 31,-23 9,-10 16,-22 20,-36 5,-14 7,-30 7,-48zm276 114c11,0 21,-2 30,-6 9,-4 16,-9 22,-16 6,-7 11,-15 14,-25 3,-10 5,-22 5,-34l0 -214 84 0 0 214c0,22 -4,42 -11,61 -7,18 -18,34 -31,48 -13,13 -30,23 -49,31 -19,7 -40,11 -64,11 -24,0 -46,-4 -65,-11 -19,-8 -35,-18 -49,-31 -13,-14 -23,-30 -30,-48 -8,-19 -11,-39 -11,-61l0 -214 84 0 0 213c0,13 1,24 4,34 4,10 8,19 14,26 6,7 14,12 23,16 9,4 19,6 30,6zm293 -68l0 134 -84 0 0 -361 117 0c26,0 49,3 67,8 18,5 33,13 45,22 12,10 20,21 25,34 6,13 8,28 8,43 0,12 -1,23 -4,33 -4,11 -8,20 -14,29 -7,9 -14,17 -23,24 -9,7 -20,12 -31,17 5,3 11,6 15,10 5,4 10,9 13,15l77 126 -76 0c-14,0 -24,-6 -30,-16l-60 -105c-2,-4 -6,-8 -9,-10 -4,-2 -9,-3 -15,-3l-21 0zm0 -58l33 0c12,0 21,-1 29,-4 8,-3 15,-7 20,-12 5,-5 9,-11 11,-18 2,-7 4,-14 4,-22 0,-16 -6,-28 -16,-37 -10,-9 -26,-13 -48,-13l-33 0 0 106zm337 192l-85 0 0 -361 85 0 0 361zm267 -287c-2,4 -5,7 -8,8 -2,2 -6,3 -10,3 -4,0 -8,-1 -12,-3 -5,-3 -10,-5 -15,-8 -6,-3 -12,-6 -19,-8 -7,-3 -15,-4 -24,-4 -16,0 -28,4 -35,10 -8,7 -12,16 -12,27 0,7 2,14 7,18 5,5 11,9 18,13 8,3 16,6 26,9 10,3 19,6 29,10 11,3 20,8 30,12 10,5 18,11 26,19 7,7 13,16 18,27 5,10 7,23 7,38 0,17 -3,33 -9,47 -6,15 -14,27 -25,38 -11,11 -24,19 -40,26 -16,6 -35,9 -55,9 -11,0 -23,-1 -34,-3 -12,-3 -23,-6 -34,-10 -11,-4 -21,-9 -31,-15 -9,-6 -18,-12 -25,-19l25 -40c2,-3 4,-5 7,-7 4,-2 7,-3 11,-3 5,0 10,2 15,5 5,3 11,7 17,11 7,3 14,7 22,10 8,3 18,5 29,5 15,0 27,-4 36,-10 8,-7 12,-18 12,-32 0,-9 -2,-16 -7,-21 -4,-5 -10,-9 -18,-13 -7,-3 -16,-6 -25,-9 -10,-3 -20,-6 -30,-9 -10,-3 -20,-7 -29,-12 -10,-4 -18,-11 -26,-18 -7,-8 -14,-18 -18,-29 -5,-11 -7,-26 -7,-42 0,-14 3,-27 8,-40 6,-13 14,-24 24,-35 11,-10 24,-18 39,-24 15,-6 33,-9 53,-9 11,0 21,1 32,3 10,2 20,4 30,8 9,3 18,7 26,12 8,5 16,10 22,16l-21 39zm252 122c3,6 6,13 9,20 3,6 6,13 9,20 3,-7 6,-14 9,-21 3,-7 6,-13 10,-20l92 -182c2,-3 3,-6 5,-8 2,-1 4,-3 6,-3 2,-1 5,-2 7,-2 3,0 6,0 10,0l64 0 0 361 -74 0 0 -208c0,-10 0,-21 1,-32l-95 185c-3,6 -7,10 -12,13 -5,3 -11,5 -17,5l-12 0c-6,0 -12,-2 -17,-5 -5,-3 -9,-7 -12,-13l-96 -185c1,5 1,11 2,17 0,5 0,11 0,15l0 208 -74 0 0 -361 64 0c4,0 7,0 10,0 3,0 5,1 7,2 2,0 4,2 6,3 2,2 3,5 5,8l93 183z"/>
   <polygon class="fil1" points="0,0 6160,0 6160,50 0,50 "/>
   <polygon class="fil1" points="0,761 6160,761 6160,811 0,811 "/>
  </g>
 </g>
</svg>
