<?xml version="1.0" encoding="UTF-8"?>
<!DOCTYPE svg PUBLIC "-//W3C//DTD SVG 1.1//EN" "http://www.w3.org/Graphics/SVG/1.1/DTD/svg11.dtd">
<!-- Creator: CorelDRAW X7 -->
<svg xmlns="http://www.w3.org/2000/svg" xml:space="preserve" width="202.5mm" height="62.123mm" version="1.1" style="shape-rendering:geometricPrecision; text-rendering:geometricPrecision; image-rendering:optimizeQuality; fill-rule:evenodd; clip-rule:evenodd"
viewBox="0 0 20250 6212"
 xmlns:xlink="http://www.w3.org/1999/xlink">
 <defs>
  <style type="text/css">
   <![CDATA[
    .fil0 {fill:#232323}
   ]]>
  </style>
 </defs>
 <g id="Layer_x0020_1">
  <metadata id="CorelCorpID_0Corel-Layer"/>
  <path class="fil0" d="M-3 6212l635 0 19621 0 0 -2980c-35,23 -64,45 -99,64 -42,22 -65,52 -75,88 -4,16 -13,31 -20,47 21,3 41,6 72,11 -55,29 -122,8 -168,43 30,8 56,15 82,22 7,47 13,93 19,139 4,24 -5,47 -23,68 -8,10 -13,17 -32,22 -40,9 -48,54 -11,66 37,11 46,26 49,52 3,20 17,38 26,58 1,2 -1,5 -4,14 -19,1 -40,2 -62,2 -50,1 -101,1 -152,1 -60,0 -120,0 -180,0 -69,0 -69,0 -142,-36 7,-12 14,-26 17,-32 -7,-23 -15,-40 -15,-56 -1,-100 2,-200 -1,-300 -2,-63 -3,-125 20,-185 7,-20 -9,-34 -28,-45 -11,-6 -25,-9 -37,-13 -22,17 -43,33 -66,51 16,28 25,58 29,90 3,23 17,48 17,73 0,42 -2,85 -3,127 -1,33 0,66 0,103 -15,3 -29,5 -43,5 -37,0 -75,-10 -116,-21 18,-59 -12,-120 19,-171 -5,-20 -12,-34 -13,-49 -4,-112 -9,-223 -11,-335 0,-33 3,-66 12,-97 9,-33 -1,-57 -32,-80 -6,-5 -11,-11 -18,-17 -27,22 -8,64 -63,70 50,53 43,112 47,168 4,60 -1,120 -4,180 -1,20 -25,34 -60,36 -23,0 -46,1 -69,1 -18,0 -36,0 -54,-1 -2,0 -3,0 -5,0 -22,0 -38,6 -52,20 -24,24 -50,47 -75,71 -11,10 -23,19 -39,33 -23,-31 -2,-57 0,-83 1,-13 11,-24 -4,-40 -13,-15 -24,-23 -36,-23 -8,0 -17,3 -27,11 -10,8 -17,17 -16,26 0,23 -2,46 0,69 3,24 7,49 12,74 7,30 -16,50 -42,70 -42,-8 -84,-14 -128,-22 -2,-15 -4,-28 -4,-41 -2,-85 -6,-169 -5,-254 0,-43 11,-85 18,-140 -12,-9 -36,-28 -58,-45 -35,26 -64,48 -88,66 -78,-13 -147,-25 -218,-38 13,-44 18,-84 -13,-122 -5,-6 -2,-15 -3,-23 -6,-65 -40,-121 -90,-176 -41,-44 -97,-73 -152,-105 -14,-8 -35,-19 -35,-29 2,-43 -46,-43 -79,-44 -30,-1 -49,-11 -70,-21 -26,-13 -50,-29 -75,-44 -21,-12 -51,-16 -59,-41 -3,-8 -26,-12 -32,-15 -52,31 -99,59 -147,86 -33,20 -68,36 -112,43 -38,6 -74,18 -78,55 -1,8 -15,18 -26,23 -46,24 -90,50 -122,85 -10,10 -28,16 -42,25 -26,-14 -14,-29 -10,-42 22,-77 51,-154 68,-231 13,-57 17,-116 17,-174 0,-77 -2,-155 -13,-231 -16,-100 -51,-196 -115,-285 -19,-26 -49,-49 -67,-75 -67,-106 -167,-194 -274,-279 -95,-75 -203,-140 -320,-198 -83,-40 -160,-87 -239,-130 -19,-10 -33,-25 -27,-40 13,-29 -31,-36 -36,-58 -1,-5 -20,-8 -32,-10 -9,-2 -20,-2 -32,-3 1,-10 2,-19 3,-30 -30,2 -59,3 -92,5 -6,-12 -11,-23 -18,-35 -6,1 -12,1 -17,1 -50,0 -84,-24 -121,-47 -65,-42 -134,-82 -201,-123 -11,-7 -24,-14 -27,-23 -9,-27 -34,-40 -71,-46 4,-40 -25,-64 -67,-84 -28,-13 -27,-23 -5,-43 31,-29 35,-49 5,-79 -21,-20 -19,-32 7,-49 55,-35 55,-80 0,-114 -25,-16 -36,-35 -34,-54 2,-32 -10,-66 26,-95 17,-15 19,-36 -6,-57 -31,-25 -35,-57 -21,-91 7,-17 7,-37 5,-55 -3,-24 -11,-47 -17,-71 -5,0 -10,0 -15,0 -5,39 -11,77 -17,120 6,6 27,19 25,29 -4,24 -14,50 -32,70 -28,32 -22,28 -8,65 17,42 48,89 -13,129 -13,9 -20,23 -30,34 -30,35 -25,62 18,90 34,22 36,29 12,55 -32,35 -30,46 7,78 4,3 6,7 12,15 -10,8 -18,18 -30,25 -31,16 -51,37 -60,65 -2,6 -6,16 -13,18 -97,34 -155,102 -241,145 -18,10 -36,20 -49,33 -36,36 -83,54 -142,60 -12,1 -28,1 -33,7 -19,19 -50,19 -74,28 -49,20 -109,44 -122,82 -16,45 -56,67 -99,90 -71,39 -147,73 -219,110 -32,17 -58,37 -87,56 -84,55 -179,103 -247,170 -65,64 -127,130 -184,198 -48,57 -86,118 -128,177 -6,7 -9,16 -12,25 -20,63 -40,126 -58,189 -4,13 -7,27 -1,38 12,21 11,39 -13,54 18,16 52,23 12,48 -36,22 -29,69 3,107 -26,34 -21,70 -7,107 4,8 12,17 10,24 -24,92 20,177 48,264 5,15 8,31 12,47 -11,4 -21,6 -29,6 -14,0 -24,-5 -35,-14 -26,-23 -55,-44 -84,-65 -31,-21 -63,-42 -95,-62 1,-9 9,-25 3,-30 -16,-9 -40,-22 -55,-22 -2,0 -4,0 -5,1 -10,3 -17,4 -23,4 -9,0 -17,-3 -27,-8 -3,-2 -7,-3 -12,-3 -11,0 -25,3 -38,4 -13,-32 -31,-59 -80,-71 -20,-6 -28,-31 -56,-38 -4,-1 -5,-16 -2,-24 3,-9 13,-17 19,-26 -9,-8 -17,-12 -26,-12 -9,0 -19,4 -29,12 6,10 12,22 18,32 -2,5 -2,8 -4,11 -36,45 -109,57 -155,94 -14,11 -45,11 -68,16 -41,8 -85,11 -92,53 -2,9 -17,21 -30,26 -83,37 -143,87 -184,150 -10,16 -12,34 -17,51l3 8c-35,45 -37,98 -65,144 -11,17 -13,29 -4,45 3,6 -1,14 -3,25 -58,10 -114,22 -172,29 -2,0 -4,0 -7,0 -18,0 -40,-7 -54,-16 -23,-13 -41,-32 -63,-51 -34,16 -22,58 -78,61 36,26 44,53 44,84 0,36 19,71 15,108 -8,80 12,162 -15,241 -34,3 -66,7 -98,10 -4,1 -8,1 -12,1 -34,0 -57,-15 -56,-42 0,-43 -1,-87 11,-129 5,-19 -1,-32 -7,-47 -4,-9 -16,-15 -28,-15 -6,0 -12,1 -17,4 -14,8 -25,19 -40,31 18,19 32,41 19,68 -4,7 7,18 13,28 -7,3 -13,4 -19,4 -14,0 -23,-7 -32,-14 -25,-22 -52,-43 -72,-67 -24,-28 -57,-35 -96,-35 -6,0 -12,0 -19,0 -28,2 -57,2 -85,2 -1,0 -1,0 -1,0 -28,0 -46,-8 -45,-31 2,-103 1,-206 8,-309 2,-27 16,-53 -16,-81 -29,9 -61,19 -97,31 20,26 44,50 30,80 36,28 14,61 12,92 -2,45 2,89 2,134 1,51 5,103 1,154 -1,16 -22,31 -30,41 23,55 28,106 18,156 -3,19 -26,26 -54,30 -29,5 -49,8 -63,8 -30,0 -32,-15 -32,-61 0,-80 -2,-161 -1,-241 1,-29 9,-57 19,-86 -5,-29 -39,-35 -77,-44 -18,15 -36,30 -48,40 9,33 16,60 24,87 2,7 7,13 9,20 10,25 16,49 11,77 -10,68 -6,136 -6,204 0,34 6,67 6,100 0,11 -7,24 -17,33 -23,21 -22,39 2,58 3,2 0,9 0,18 -76,4 -152,5 -229,5 -32,0 -64,0 -97,0 -32,0 -65,-1 -98,-1 -28,0 -57,1 -86,1 4,-26 8,-44 9,-63 1,-16 7,-28 29,-35 38,-12 51,-33 35,-62 -4,-5 -3,-11 -5,-17 -73,-19 -75,-20 -74,-76 1,-47 5,-94 8,-144 27,-6 55,-12 86,-19 -25,-33 -68,-23 -105,-32 23,-25 17,-52 6,-77 -6,-16 -20,-34 -38,-44 -34,-19 -57,-49 -100,-63 -14,-5 -20,-23 -27,-31 -24,13 -46,25 -69,38 -67,36 -125,76 -122,144 31,3 65,7 99,10 0,4 1,7 1,11 -61,16 -132,-1 -201,31 24,6 41,8 54,14 14,7 32,17 34,27 9,44 15,89 15,133 0,18 -14,36 -27,52 -10,14 -28,24 -43,35 -34,26 -33,32 6,56 18,11 53,17 36,44 49,61 -4,123 5,185 6,38 -14,78 -3,115 15,49 -19,93 -9,141 2,10 0,20 0,31 -1,27 16,55 -11,80 -4,4 -2,12 -1,18 3,42 7,84 11,133 -68,4 -135,5 -202,5 -33,0 -65,-1 -97,-1 -33,0 -65,0 -98,0 -26,0 -53,0 -80,0 -4,-43 -10,-83 -11,-122 -3,-58 -1,-116 -3,-174 -1,-15 4,-26 22,-34 58,-26 58,-26 36,-79 -65,-4 -78,-41 -77,-79 1,-47 12,-94 18,-140 28,-9 52,-16 79,-25 -24,-27 -66,-14 -91,-32 29,-58 -24,-96 -69,-134 -34,-28 -75,-51 -112,-76 -32,21 -63,44 -99,64 -38,21 -62,45 -69,80 -4,17 -14,34 -22,52 18,4 40,8 72,13 -57,27 -123,7 -170,41 30,10 65,13 78,27 15,15 9,40 12,60 4,31 12,63 9,93 -3,29 -7,61 -60,73 -33,8 -36,48 -8,64 11,7 26,9 36,12 13,28 28,54 37,80 4,14 3,30 -2,43 -9,23 -14,44 -8,69 8,34 0,70 -4,105 -2,20 -27,19 -48,19 -41,0 -81,0 -122,0 -37,0 -74,0 -112,0 -77,0 -155,0 -234,0 -15,-36 -10,-69 -6,-104 4,-32 1,-64 1,-96 20,-3 33,-6 54,-9 -21,-9 -34,-15 -53,-23 7,-14 14,-29 21,-44l-7 1c-4,-16 -11,-33 -11,-49 -2,-91 -1,-182 -1,-273 0,-50 1,-100 2,-150 0,-12 2,-24 5,-36 17,-52 14,-57 -39,-80 -26,18 -50,34 -76,51 62,122 37,256 41,389 -16,3 -32,5 -48,5 -38,0 -73,-8 -104,-18 0,-48 -8,-92 2,-133 10,-42 -7,-82 -4,-124 4,-44 -3,-89 -4,-133 -1,-43 7,-87 -2,-130 -9,-42 -2,-83 8,-123 10,-46 -8,-79 -55,-106 -21,22 -9,57 -53,67 38,73 48,147 38,223 -5,38 -5,76 -6,114 -1,34 -12,45 -59,47 -20,1 -41,1 -61,1 -19,0 -37,0 -56,-1 -2,0 -3,0 -5,0 -25,0 -42,7 -57,22 -22,23 -47,45 -71,67 -12,12 -25,23 -45,39 -4,-15 -10,-25 -9,-34 4,-23 14,-46 15,-70 0,-15 3,-36 -25,-43 -6,-2 -12,-3 -17,-3 -17,0 -28,9 -36,22 -4,5 -10,9 -13,12 7,49 16,95 18,142 3,39 -1,39 -43,73 -30,-4 -60,-9 -90,-13 -31,-3 -46,-14 -45,-39 1,-70 1,-140 0,-210 -1,-58 -4,-116 18,-173 4,-12 -11,-30 -23,-42 -8,-10 -25,-15 -38,-22 -31,23 -61,46 -87,65 -77,-14 -146,-26 -217,-38 16,-44 8,-82 -11,-121 -8,-16 -7,-35 -11,-52 -9,-46 -31,-87 -67,-127 -46,-50 -99,-91 -166,-125 -22,-11 -38,-22 -42,-45 -4,-25 -40,-30 -66,-30 -2,0 -4,0 -6,0 -1,0 -3,0 -4,0 -33,0 -53,-13 -75,-26 -19,-11 -43,-18 -58,-31 -21,-19 -66,-19 -72,-51 -1,-6 -26,-11 -44,-18 -20,48 -88,56 -127,88 -30,25 -71,38 -117,47 -33,6 -73,13 -75,49 0,8 -12,16 -20,22 -50,35 -100,69 -150,104 -7,4 -16,8 -22,12 -25,-7 -21,-17 -17,-30 17,-44 35,-89 49,-134 44,-145 52,-291 36,-439 -12,-113 -39,-221 -101,-324 -17,-27 -40,-52 -60,-77 -10,-13 -24,-25 -32,-38 -50,-79 -121,-147 -195,-213 -85,-74 -179,-143 -284,-201 -95,-53 -195,-102 -292,-152 -20,-11 -38,-23 -57,-34 -20,-12 -32,-26 -31,-46 0,-13 -7,-24 -19,-36 -20,-24 -44,-31 -76,-31 -1,-11 -2,-20 -3,-31 -29,2 -57,3 -88,5 -6,-11 -12,-22 -18,-33 -6,0 -12,0 -17,0 -51,0 -85,-25 -122,-47 -66,-42 -134,-82 -201,-124 -10,-5 -23,-11 -25,-19 -8,-30 -38,-44 -78,-52 9,-37 -18,-59 -55,-78 -34,-18 -34,-24 -8,-49 28,-26 29,-45 5,-73 -25,-30 -25,-30 9,-55 49,-34 51,-75 -1,-108 -35,-22 -45,-47 -40,-75 5,-28 -6,-57 28,-82 15,-11 15,-31 -3,-49 -30,-30 -54,-61 -19,-101 8,-9 -1,-28 -3,-42 -5,-27 -9,-54 -19,-81 -33,37 -10,82 -34,123 28,10 36,27 23,50 -11,21 -9,45 -38,62 -20,11 -14,30 2,45 30,28 12,62 24,92 3,8 -7,20 -14,28 -15,18 -33,34 -49,52 -29,32 -26,57 9,83 43,31 43,31 10,69 -24,28 -21,39 29,82 -8,8 -15,18 -26,24 -30,17 -50,38 -62,65 -4,9 -11,20 -21,24 -72,29 -125,73 -185,113 -52,34 -105,67 -158,101 -8,5 -17,10 -26,11 -46,9 -88,25 -132,37 -65,18 -104,53 -152,84 -4,3 -7,8 -6,12 5,33 -27,49 -57,64 -86,45 -173,87 -258,132 -31,16 -59,36 -87,55 -80,55 -175,98 -237,165 -63,67 -144,125 -193,200 -41,62 -88,122 -132,183 -4,5 -7,11 -7,17 -1,68 -44,129 -59,195 -3,13 -8,28 0,38 15,22 5,39 -12,55 40,22 40,22 9,45 -21,15 -30,67 -8,90 12,14 14,21 3,35 -9,11 -13,27 -8,39 30,67 -2,139 30,207 21,46 31,95 44,142 4,12 2,24 3,37 -10,4 -19,6 -27,6 -11,0 -22,-4 -32,-13 -22,-19 -45,-38 -70,-56 -36,-25 -74,-49 -114,-76 3,-4 9,-12 17,-23 -24,-10 -47,-20 -69,-29 -10,6 -17,11 -18,11 -31,-6 -56,-10 -87,-16 -6,-30 -31,-52 -77,-66 -25,-7 -42,-29 -65,-47 3,-5 7,-14 13,-21 5,-7 11,-12 16,-18 -10,-10 -19,-14 -28,-14 -10,0 -19,5 -28,12 15,37 -2,72 -49,92 -33,13 -69,22 -92,47 -10,9 -37,10 -57,14 -21,4 -45,6 -65,13 -13,4 -28,15 -31,24 -7,26 -32,38 -59,53 -77,40 -138,92 -174,157 -5,9 -8,21 -6,30 3,14 2,23 -15,31 -4,2 -8,8 -8,11 6,47 -34,84 -49,126 -2,8 -2,18 3,25 14,22 3,35 -27,40 -49,9 -99,19 -149,23 -1,0 -2,0 -4,0 -19,0 -42,-11 -60,-21 -21,-12 -38,-29 -61,-47 -25,22 -20,58 -69,62 29,26 45,51 37,81 -2,5 -1,12 2,17 26,42 12,86 14,130 0,16 -1,32 -1,48 -2,52 -4,105 -5,156 -43,4 -77,9 -112,11 -2,0 -5,1 -8,1 -31,0 -52,-15 -51,-39 2,-49 7,-98 15,-146 3,-20 -13,-33 -25,-44 -4,-4 -9,-6 -14,-6 -10,0 -23,7 -31,15 -8,6 -19,11 -23,13 9,37 18,70 27,105 -7,2 -13,3 -19,3 -15,0 -26,-7 -35,-16 -23,-21 -49,-41 -68,-63 -23,-27 -55,-37 -93,-37 -7,0 -14,0 -21,1 -29,2 -57,1 -86,2 -1,0 -1,0 -1,0 -28,0 -45,-8 -44,-32 2,-101 2,-203 4,-304 0,-15 11,-29 17,-45 -8,-11 -17,-23 -30,-40 -31,10 -61,20 -90,29 14,38 29,76 42,113 2,7 -1,15 -1,22 -2,48 -4,95 -5,143 -1,57 1,115 0,173 0,8 -4,17 -9,24 -15,20 -35,39 -2,59 -1,42 1,83 -2,124 -1,10 -16,24 -28,27 -35,7 -71,9 -116,14 0,-134 -34,-262 16,-401 -5,-17 -39,-24 -76,-34 -18,14 -37,29 -54,43 19,51 40,100 53,150 6,25 -3,52 -8,78 -15,83 -9,165 1,248 2,16 -13,33 -20,49 -4,8 -16,21 -13,23 36,23 6,54 22,79 7,10 8,23 8,35 -3,43 -7,85 -11,128 -24,6 -159,10 -286,10 -49,0 -96,0 -136,-1l-9 -338c0,-4 0,-8 -1,-13l-7 -261 17 -4c-5,-6 -11,-10 -17,-13l0 -11c-15,0 -29,0 -43,-1 -6,-1 -13,-2 -20,-3 -2,-7 -4,-10 -3,-12 9,-20 23,-38 26,-58 3,-26 14,-26 51,-37 37,-11 29,-57 -11,-66 -19,-4 -26,12 -34,2 -18,-21 -27,-43 -23,-68 6,-45 5,-78 12,-126 26,-7 36,-39 66,-47 -35,-41 -156,-41 -73,-81 -7,-16 -16,-31 -20,-47 -19,-70 -107,-111 -174,-152l0 471 0 2509z"/>
 </g>
</svg>
