<?xml version="1.0" encoding="UTF-8"?>
<!DOCTYPE svg PUBLIC "-//W3C//DTD SVG 1.1//EN" "http://www.w3.org/Graphics/SVG/1.1/DTD/svg11.dtd">
<!-- Creator: CorelDRAW X7 -->
<svg xmlns="http://www.w3.org/2000/svg" xml:space="preserve" width="40.817mm" height="41.139mm" version="1.1" style="shape-rendering:geometricPrecision; text-rendering:geometricPrecision; image-rendering:optimizeQuality; fill-rule:evenodd; clip-rule:evenodd"
viewBox="0 0 4082 4114"
 xmlns:xlink="http://www.w3.org/1999/xlink">
 <defs>
  <style type="text/css">
   <![CDATA[
    .fil0 {fill:whitesmoke}
   ]]>
  </style>
 </defs>
 <g id="Layer_x0020_1">
  <metadata id="CorelCorpID_0Corel-Layer"/>
  <path class="fil0" d="M3495 2057l32 -35 494 -493 58 -61 0 -45 0 -324 0 -116 0 -326 0 -48 -58 -58 -494 -493 -61 -58 -45 0 -325 0 -115 0 -325 0 -51 3 -55 55 -494 493 -16 16 -16 -16 -494 -493 -61 -58 -45 0 -325 0 -115 0 -326 0 -50 3 -55 55 -494 493 -58 57 0 49 0 326 0 116 0 324 -1 48 59 58 494 493 33 38 -30 30 -494 494 -58 56 0 50 0 326 0 115 0 325 -1 48 59 57 494 494 51 57 54 1 326 0 115 0 325 0 51 1 55 -59 494 -494 15 -16 17 16 494 494 51 57 54 1 326 0 115 0 325 0 51 1 55 -59 494 -494 58 -60 0 -45 0 -325 0 -115 0 -326 0 -49 -58 -57 -494 -494 -35 -33zm-997 1031l47 -51 190 -190 225 226 -239 238 -223 -223zm318 -322l222 -222 16 -17 226 225 -239 239 -225 -225zm-233 -706l-30 30 -190 190 -225 -225 222 -222 190 189 33 38zm-302 302l-222 222 -16 16 -16 -16 -209 -209 238 -238 225 225zm378 1635l-230 -230 292 -293 263 263 0 260 -325 0zm703 -1163l238 239 -238 238 -239 -238 239 -239zm-263 -426l0 -260 325 0 230 230 -292 293 -263 -263zm-118 3l-244 244 -279 -280 227 -227 296 0 0 263zm-341 341l-227 227 -296 0 0 -263 243 -243 280 279zm-263 378l263 263 -293 292 -230 -229 0 -326 260 0zm426 263l238 -239 239 239 -239 238 -238 -238zm296 604l0 -260 263 -263 292 293 -230 230 -325 0zm344 -604l263 -263 260 0 0 326 -230 229 -293 -292zm262 -378l-262 -263 293 -292 230 230 0 325 -261 0zm-609 -1050l0 -261 263 -262 292 293 -230 230 -325 0zm-41 -383l-17 -16 -222 -222 222 -222 239 238 -222 222zm-320 -320l-190 -190 -50 -47 223 -223 239 238 -222 222zm-695 251l16 16 222 222 -222 222 -238 -238 206 -206 1 -2 15 -14zm695 -55l246 246 0 261 -293 0 -230 -230 277 -277zm65 -738l238 -238 239 238 -239 238 -238 -238zm559 82l238 238 -238 238 -239 -238 239 -238zm-263 -426l0 -260 325 0 230 229 -292 293 -263 -262zm-115 -260l0 260 -263 262 -292 -293 229 -229 326 0zm-344 604l-263 262 -260 0 0 -325 230 -230 293 293zm-230 410l230 230 -277 277 -246 -246 0 -261 293 0zm1033 230l263 -262 260 0 0 325 -230 230 -293 -293zm262 -378l-262 -262 293 -293 230 230 0 325 -261 0zm-2658 1532l26 26 213 212 -239 239 -238 -239 238 -238zm320 320l203 203 34 38 -237 236 -238 -238 238 -239zm-703 1163l-230 -230 293 -293 263 263 0 260 -326 0zm302 -924l-239 238 -238 -238 238 -239 239 239zm169 -925l295 0 227 227 -293 293 -229 -230 0 -290zm-145 0l0 260 -263 263 -293 -293 230 -230 326 0zm-345 604l-262 263 -260 0 0 -325 230 -230 292 292zm-262 378l262 263 -292 292 -230 -229 0 -326 260 0zm426 263l238 -239 239 239 -239 238 -238 -238zm296 604l0 -260 262 -263 293 293 -230 230 -325 0zm344 -604l262 -263 261 0 0 326 -230 229 -293 -292zm28 -613l-28 -28 293 -292 211 211 19 19 0 289 -296 0 -199 -199zm-409 -1206l-24 24 -238 -238 238 -238 239 238 -215 214zm434 482l30 -33 207 -207 238 239 -238 238 -168 -167 -35 -36 -34 -34zm-841 -91l-230 -230 293 -293 263 262 0 261 -326 0zm145 -1245l238 -238 239 238 -239 238 -238 -238zm157 320l-239 238 -238 -238 238 -238 239 238zm401 -238l239 238 -239 238 -238 -238 238 -238zm-262 -426l0 -260 325 0 230 229 -293 293 -262 -262zm-115 -260l0 260 -263 262 -293 -293 230 -229 326 0zm-345 604l-262 262 -260 0 0 -325 230 -230 292 293zm-262 378l262 262 -292 293 -230 -230 0 -325 260 0zm984 344l59 58 234 235 -173 173 -57 57 -292 0 0 -293 229 -230zm605 -312l0 293 -230 230 -133 -133 -160 -160 230 -230 293 0zm-261 -148l-262 -262 293 -293 230 230 0 325 -261 0z"/>
 </g>
</svg>
